<?xml version="1.0" encoding="iso-8859-1"?>
<!-- Generator: Adobe Illustrator 19.0.1, SVG Export Plug-In . SVG Version: 6.00 Build 0)  -->
<svg version="1.1" xmlns="http://www.w3.org/2000/svg" xmlns:xlink="http://www.w3.org/1999/xlink" x="0px" y="0px"
	 viewBox="0 0 128 128" style="enable-background:new 0 0 128 128;" xml:space="preserve">
<g id="_x31_">
	<path id="_x31__2_" style="fill:#212121;" d="M0.275,61.372c-0.354,20.198,6.04,36.293,19.365,48.484
		C32.967,121.949,47.89,128,64.324,128c11.008,0,21.402-2.581,31.083-7.743c9.676-5.25,17.495-12.724,23.543-22.685
		c5.944-9.874,8.88-21.345,8.787-34.514c-0.173-12.625-3.199-23.657-9.144-33.185c-5.87-9.506-13.678-16.897-23.362-22.043
		C85.545,2.586,75.332,0,64.763,0c-7.279,0-14.572,1.329-21.936,3.91c-7.37,2.663-14.303,6.672-20.694,12.015
		c-6.484,5.426-11.636,11.823-15.463,19.39C2.762,42.778,0.637,51.504,0.275,61.372L0.275,61.372z M35.895,33.003
		c-1.42,2.669-2.841,6.93-4.261,12.801c-1.428,5.865-2.221,11.032-2.309,15.568H6.235c1.418-15.475,6.303-27.666,14.646-36.386
		c0.894,0.895,2.045,1.697,3.644,2.581c1.601,0.89,3.378,1.779,5.324,2.669C31.903,31.126,33.853,32.02,35.895,33.003L35.895,33.003
		z M47.89,8.446c-4.266,6.046-7.734,12.542-10.484,19.566c-6.747-3.201-10.926-5.513-12.614-7.023
		C30.565,15.118,38.206,10.933,47.89,8.446L47.89,8.446z M55.518,6.76c0.633-0.093,1.25-0.187,1.785-0.269
		c0.625-0.093,1.245-0.093,2.048-0.093h2.037v27.754c-2.13,0-4.883-0.357-8.348-1.148c-3.463-0.714-7.019-1.691-10.569-2.767
		C45.848,21.872,50.191,14.052,55.518,6.76L55.518,6.76z M61.387,40.021v21.351H34.738c0-8.281,1.96-17.084,5.862-26.419
		C49.308,38.33,56.239,40.021,61.387,40.021L61.387,40.021z M61.387,66.792v21.614c-5.237,0-12.08,1.697-20.431,5.074
		c-1.234-2.405-2.572-6.579-4.082-12.63c-1.417-6.139-2.136-10.763-2.136-14.058H61.387L61.387,66.792z M29.326,66.792
		c0,6.941,2.043,16.458,6.213,28.556c-9.138,4.629-14.029,7.21-14.657,7.743c-4.529-4.887-7.987-10.851-10.479-17.787
		c-2.481-6.941-3.734-13.081-3.734-18.512H29.326L29.326,66.792z M61.387,93.481v28.731l-5.87-0.351
		c-5.053-7.034-9.497-15.035-13.048-23.838C44.959,96.781,51.262,95.271,61.387,93.481L61.387,93.481z M37.406,100.241
		c4.614,9.615,8.173,16.189,10.838,19.753c-7.721-2.312-15.543-6.59-23.453-12.812C29.057,104.42,33.233,102.108,37.406,100.241
		L37.406,100.241z M72.757,121.861l-5.771,0.351V93.838c6.037,0.351,12.346,1.779,18.918,4.184
		C80.571,109.763,76.132,117.682,72.757,121.861L72.757,121.861z M103.58,107.182c-5.944,6.222-13.591,10.412-23.099,12.367
		c1.87-2.317,3.468-4.805,4.886-7.298c1.343-2.488,2.58-5.069,3.644-7.831c1.069-2.663,1.689-4.08,1.785-4.179
		C97.896,103.717,102.154,106.023,103.58,107.182L103.58,107.182z M121.883,66.792c0,6.403-1.338,13.081-4.181,20.022
		c-2.843,6.941-6.128,12.361-10.035,16.277c-0.976-0.802-2.753-1.785-5.338-3.114c-2.572-1.334-5.768-3.02-9.492-4.981
		c4.527-11.653,6.744-20.994,6.744-28.204H121.883L121.883,66.792z M93.63,66.792c0,7.836-1.955,16.639-5.865,26.688
		c-2.221-1.241-5.505-2.493-9.859-3.641c-4.261-1.252-7.901-1.691-10.92-1.433V66.792H93.63L93.63,66.792z M66.986,40.021
		c5.508,0,12.436-1.691,20.779-5.069c1.245,2.043,2.577,6.051,3.91,11.834c1.245,5.689,1.955,10.582,1.955,14.585H66.986V40.021
		L66.986,40.021z M107.311,24.986c4.444,4.278,7.989,9.698,10.66,16.463c2.662,6.76,3.913,13.438,3.913,19.923H99.226
		c0-8.545-2.13-17.968-6.388-28.369C99.314,29.873,104.202,27.215,107.311,24.986L107.311,24.986z M103.58,20.988
		c-1.426,1.247-5.508,3.734-12.434,7.381c-3.199-7.913-7.024-14.679-11.367-20.274C88.212,10.582,96.204,14.849,103.58,20.988
		L103.58,20.988z M72.404,6.76c5.242,6.409,9.774,14.047,13.5,23.114c-3.463,2.24-9.772,3.663-18.918,4.278V6.397h2.04
		C70.808,6.397,71.954,6.491,72.404,6.76z"/>
</g>
<g id="Layer_1">
</g>
</svg>
