<?xml version="1.0" encoding="iso-8859-1"?>
<!-- Generator: Adobe Illustrator 19.0.1, SVG Export Plug-In . SVG Version: 6.00 Build 0)  -->
<svg version="1.1" xmlns="http://www.w3.org/2000/svg" xmlns:xlink="http://www.w3.org/1999/xlink" x="0px" y="0px"
	 viewBox="0 0 128 128" style="enable-background:new 0 0 128 128;" xml:space="preserve">
<g id="_x31_00">
	<path style="fill:#212121;" d="M39.14,98.024c-7.712,0-13.985,6.282-13.985,14.006c0,7.723,6.273,14.006,13.985,14.006
		s13.985-6.283,13.985-14.006C53.125,104.306,46.852,98.024,39.14,98.024z M39.14,122.033c-5.514,0-9.989-4.502-9.989-10.004
		c0-5.522,4.475-10.004,9.989-10.004c5.494,0,9.989,4.482,9.989,10.004C49.129,117.532,44.634,122.033,39.14,122.033z
		 M87.089,98.024c-7.712,0-13.985,6.282-13.985,14.006c0,7.723,6.273,14.006,13.985,14.006s13.985-6.283,13.985-14.006
		C101.074,104.306,94.801,98.024,87.089,98.024z M87.089,122.033c-5.514,0-9.989-4.502-9.989-10.004
		c0-5.522,4.475-10.004,9.989-10.004c5.494,0,9.989,4.482,9.989,10.004C97.078,117.532,92.583,122.033,87.089,122.033z
		 M126.027,24.134c-1.938-2.681-5.115-4.162-8.99-4.162h-93.9V1.965H0.161v4.002h18.98v72.029c0,7.723,6.293,14.006,13.985,14.006
		h69.926c4.196,0,8.491-3.101,9.83-7.143l14.265-50.84C128.365,30.336,127.965,26.815,126.027,24.134z M109.066,83.698
		c-0.779,2.341-3.536,4.302-6.014,4.302H33.126c-5.115,0-9.37-3.902-9.91-8.904h87.147L109.066,83.698z M111.483,75.094H23.137
		V65.09h91.143L111.483,75.094z M115.399,61.089H23.137V51.085h95.079L115.399,61.089z M119.335,47.083H23.137V37.079h98.995
		L119.335,47.083z M123.33,32.837l-0.06,0.24H23.137v-9.104h93.9c2.557,0,4.595,0.9,5.754,2.501
		C123.97,28.095,124.169,30.316,123.33,32.837z"/>
</g>
<g id="Layer_1">
</g>
</svg>
