<?xml version="1.0" encoding="iso-8859-1"?>
<!-- Generator: Adobe Illustrator 19.0.1, SVG Export Plug-In . SVG Version: 6.00 Build 0)  -->
<svg version="1.1" xmlns="http://www.w3.org/2000/svg" xmlns:xlink="http://www.w3.org/1999/xlink" x="0px" y="0px"
	 viewBox="0 0 128 128" style="enable-background:new 0 0 128 128;" xml:space="preserve">
<g id="_x31_01">
	<path style="fill:#212121;" d="M64.102,127.932c-19.257,0-38.01-9.997-48.311-27.856C0.458,73.456,9.6,39.296,36.17,23.925
		c2.106-1.219,4.215-2.265,6.269-3.104c1.113-0.459,2.39,0.079,2.846,1.198c0.456,1.116-0.08,2.393-1.196,2.85
		c-1.869,0.764-3.8,1.721-5.735,2.841C13.867,41.874,5.442,73.358,19.572,97.89c14.143,24.522,45.582,32.958,70.077,18.807
		c24.484-14.164,32.909-45.645,18.779-70.178c-5.635-9.786-14.12-17.277-24.536-21.659c-1.112-0.468-1.634-1.748-1.167-2.863
		c0.467-1.11,1.743-1.635,2.857-1.168c11.304,4.756,20.512,12.885,26.627,23.504c15.333,26.62,6.191,60.781-20.378,76.151
		C83.091,125.533,73.536,127.932,64.102,127.932z M66.183,74.308V2.253c0-1.208-0.977-2.186-2.183-2.186
		c-1.205,0-2.183,0.978-2.183,2.186v72.054c0,1.208,0.977,2.186,2.183,2.186C65.205,76.494,66.183,75.516,66.183,74.308z"/>
</g>
<g id="Layer_1">
</g>
</svg>
