<?xml version="1.0" encoding="iso-8859-1"?>
<!-- Generator: Adobe Illustrator 19.0.1, SVG Export Plug-In . SVG Version: 6.00 Build 0)  -->
<svg version="1.1" xmlns="http://www.w3.org/2000/svg" xmlns:xlink="http://www.w3.org/1999/xlink" x="0px" y="0px"
	 viewBox="0 0 128 128" style="enable-background:new 0 0 128 128;" xml:space="preserve">
<g id="_x31_02">
	<path style="fill:#212121;" d="M66.938,9.466L58.045,25.69l-3.933-2.171l5.542-10.025c-26.21,2.171-46.388,23.944-46.388,50.596
		c0,20.721,12.357,39.161,31.506,47.015l-1.698,4.14C22.249,106.719,8.797,86.624,8.797,64.09c0-28.509,21.228-51.893,49.047-54.914
		l-8.692-5.259l2.324-3.849L66.938,9.466z M119.203,64.09c0-22.557-13.474-42.629-34.299-51.155l-1.676,4.14
		c19.127,7.832,31.506,26.294,31.506,47.015c0,26.137-19.395,47.574-44.868,50.439l5.519-10.047l-3.933-2.171l-8.893,16.224
		l15.485,9.399l2.301-3.827l-8.67-5.281C98.735,115.133,119.203,92.084,119.203,64.09z"/>
</g>
<g id="Layer_1">
</g>
</svg>
