<?xml version="1.0" encoding="iso-8859-1"?>
<!-- Generator: Adobe Illustrator 19.0.1, SVG Export Plug-In . SVG Version: 6.00 Build 0)  -->
<svg version="1.1" xmlns="http://www.w3.org/2000/svg" xmlns:xlink="http://www.w3.org/1999/xlink" x="0px" y="0px"
	 viewBox="0 0 128 128" style="enable-background:new 0 0 128 128;" xml:space="preserve">
<g id="_x31_03">
	<path style="fill:#212121;" d="M95.996,127.932H16.61c-7.869,0-14.269-6.411-14.269-14.291V29.532
		c0-7.878,6.401-14.289,14.269-14.289h51.659v4.329H16.61c-5.485,0-9.947,4.469-9.947,9.96v84.109c0,5.494,4.462,9.962,9.947,9.962
		h79.386c5.485,0,9.947-4.469,9.947-9.962V57.622h4.323v56.019C110.265,121.521,103.864,127.932,95.996,127.932z M100.354,0.068
		c-11.22,0-20.704,7.235-24.014,17.339c-0.847,2.506-1.292,5.214-1.292,8.003c0,14.025,11.301,25.342,25.305,25.342
		c2.704,0,5.287-0.405,7.749-1.213c10.211-3.274,17.556-12.812,17.556-24.129C125.659,11.385,114.359,0.068,100.354,0.068z"/>
</g>
<g id="Layer_1">
</g>
</svg>
