<?xml version="1.0" encoding="iso-8859-1"?>
<!-- Generator: Adobe Illustrator 19.0.1, SVG Export Plug-In . SVG Version: 6.00 Build 0)  -->
<svg version="1.1" xmlns="http://www.w3.org/2000/svg" xmlns:xlink="http://www.w3.org/1999/xlink" x="0px" y="0px"
	 viewBox="0 0 128 128" style="enable-background:new 0 0 128 128;" xml:space="preserve">
<g id="_x31_04">
	<path style="fill:#212121;" d="M110.228,127.932H17.772c-9.71,0-17.611-7.912-17.611-17.637V17.704
		c0-9.725,7.9-17.637,17.611-17.637h92.456c9.71,0,17.611,7.912,17.611,17.637v92.592
		C127.839,120.021,119.939,127.932,110.228,127.932z M17.772,4.477c-7.283,0-13.208,5.933-13.208,13.227v92.592
		c0,7.294,5.925,13.227,13.208,13.227h92.456c7.283,0,13.208-5.933,13.208-13.227V17.704c0-7.294-5.925-13.227-13.208-13.227H17.772
		z M79.375,61.959H49.284c-12.183,0-22.094-9.927-22.094-22.127s9.911-22.127,22.094-22.127h30.091
		c12.184,0,22.095,9.927,22.095,22.127S91.559,61.959,79.375,61.959z M49.284,22.113c-9.756,0-17.691,7.949-17.691,17.718
		S39.528,57.55,49.284,57.55h30.091c9.756,0,17.692-7.949,17.692-17.718s-7.937-17.718-17.692-17.718H49.284z M37.192,33.228v13.206
		c0,3.015,2.467,5.481,5.481,5.481h13.428c3.015,0,5.481-2.467,5.481-5.481V33.228c0-3.015-2.467-5.481-5.481-5.481H42.673
		C39.658,27.747,37.192,30.214,37.192,33.228z M79.162,69.552H49.497c-11.058,0-20.106,8.965-20.106,19.923v0
		c0,10.958,9.048,19.923,20.106,19.923h29.665c11.059,0,20.106-8.965,20.106-19.923v0C99.269,78.517,90.221,69.552,79.162,69.552z
		 M90.593,89.488c0,6.636-5.485,12.071-12.209,12.071c-3.349,0-6.408-1.359-8.596-3.553c-2.215-2.169-3.586-5.2-3.586-8.518v-0.026
		c0-6.637,5.485-12.071,12.182-12.071c6.724,0,12.209,5.435,12.209,12.071V89.488z"/>
</g>
<g id="Layer_1">
</g>
</svg>
