<?xml version="1.0" encoding="iso-8859-1"?>
<!-- Generator: Adobe Illustrator 19.0.1, SVG Export Plug-In . SVG Version: 6.00 Build 0)  -->
<svg version="1.1" xmlns="http://www.w3.org/2000/svg" xmlns:xlink="http://www.w3.org/1999/xlink" x="0px" y="0px"
	 viewBox="0 0 128 128" style="enable-background:new 0 0 128 128;" xml:space="preserve">
<g id="_x31_05">
	<path style="fill:#212121;" d="M52.633,127.932v-61.89L4.764,11.444C3.011,9.247,2.693,6.43,3.86,4.002
		c1.167-2.426,3.563-3.935,6.253-3.935h107.77c2.691,0,5.087,1.509,6.254,3.937c1.166,2.428,0.847,5.245-0.832,7.348L75.367,65.998
		v47.705L52.633,127.932z M10.113,5.101c-1.086,0-1.568,0.759-1.725,1.086C8.232,6.511,7.94,7.362,8.617,8.212l49.041,55.933v54.704
		l12.682-7.938v-46.81l49.112-55.98c0.602-0.757,0.31-1.607,0.155-1.934c-0.157-0.327-0.639-1.086-1.725-1.086H10.113z"/>
</g>
<g id="Layer_1">
</g>
</svg>
