<?xml version="1.0" encoding="iso-8859-1"?>
<!-- Generator: Adobe Illustrator 19.0.1, SVG Export Plug-In . SVG Version: 6.00 Build 0)  -->
<svg version="1.1" xmlns="http://www.w3.org/2000/svg" xmlns:xlink="http://www.w3.org/1999/xlink" x="0px" y="0px"
	 viewBox="0 0 128 128" style="enable-background:new 0 0 128 128;" xml:space="preserve">
<g id="_x31_06">
	<path style="fill:#212121;" d="M64,127.932c-12.137,0-51.337-54.732-51.337-76.636C12.663,23.048,35.693,0.068,64,0.068
		s51.337,22.981,51.337,51.229c0,14.788-16.111,39.315-21.05,46.48C92.159,100.864,73.237,127.932,64,127.932z M64,4.766
		c-25.721,0-46.645,20.872-46.645,46.53c0,21.639,39.393,71.938,46.645,71.938s46.645-50.299,46.645-71.938
		C110.645,25.638,89.721,4.766,64,4.766z M64,59.601c-10.826,0-19.634-8.821-19.634-19.666S53.174,20.27,64,20.27
		c10.829,0,19.637,8.821,19.637,19.666S74.829,59.601,64,59.601z M64,24.968c-8.24,0-14.943,6.715-14.943,14.967
		S55.76,54.903,64,54.903s14.945-6.715,14.945-14.967S72.24,24.968,64,24.968z"/>
</g>
<g id="Layer_1">
</g>
</svg>
