<?xml version="1.0" encoding="iso-8859-1"?>
<!-- Generator: Adobe Illustrator 19.0.1, SVG Export Plug-In . SVG Version: 6.00 Build 0)  -->
<svg version="1.1" xmlns="http://www.w3.org/2000/svg" xmlns:xlink="http://www.w3.org/1999/xlink" x="0px" y="0px"
	 viewBox="0 0 128 128" style="enable-background:new 0 0 128 128;" xml:space="preserve">
<g id="_x31_07">
	<path style="fill:#212121;" d="M28.849,127.939c-6.349,0-12.692-2.417-17.52-7.252l-3.914-3.919
		c-4.678-4.685-7.255-10.919-7.255-17.551s2.577-12.866,7.255-17.551l11.723-11.74c7.165-7.179,17.84-9.259,27.204-5.314
		l-2.091,4.966c-7.334-3.099-15.697-1.46-21.31,4.156l-11.723,11.74C7.558,89.142,5.54,94.024,5.54,99.217
		s2.017,10.075,5.679,13.742l3.914,3.919c7.559,7.571,19.868,7.568,27.448-0.003l11.717-11.735
		c5.618-5.645,7.242-14.02,4.137-21.333l4.949-2.11c3.969,9.343,1.896,20.039-5.28,27.249l-11.723,11.74
		C41.546,125.522,35.195,127.939,28.849,127.939z M108.88,58.079l11.72-11.737c9.653-9.667,9.653-25.413-0.005-35.109l-3.906-3.89
		c-4.678-4.695-10.903-7.281-17.53-7.281c-6.624,0-12.849,2.586-17.525,7.279l-11.72,11.737c-7.179,7.189-9.251,17.877-5.282,27.231
		l4.949-2.104c-3.105-7.323-1.481-15.691,4.137-21.317l11.723-11.74c3.662-3.675,8.534-5.698,13.719-5.698
		c5.188,0,10.06,2.023,13.729,5.706l3.906,3.89c7.559,7.589,7.559,19.921,0.003,27.489l-11.723,11.74
		c-5.613,5.64-13.971,7.273-21.305,4.159l-2.101,4.961c3.152,1.336,6.454,1.989,9.721,1.989
		C97.824,65.381,104.126,62.853,108.88,58.079z M87.384,44.392l-3.803-3.809L40.614,83.615l3.803,3.809L87.384,44.392z"/>
</g>
<g id="Layer_1">
</g>
</svg>
