<?xml version="1.0" encoding="iso-8859-1"?>
<!-- Generator: Adobe Illustrator 19.0.1, SVG Export Plug-In . SVG Version: 6.00 Build 0)  -->
<svg version="1.1" xmlns="http://www.w3.org/2000/svg" xmlns:xlink="http://www.w3.org/1999/xlink" x="0px" y="0px"
	 viewBox="0 0 128 128" style="enable-background:new 0 0 128 128;" xml:space="preserve">
<g id="_x31_08">
	<path style="fill:#212121;" d="M64,0.068c-25.776,0-46.735,21.423-46.735,47.744v32.376c0,26.321,20.958,47.744,46.735,47.744
		c25.752,0,46.735-21.423,46.735-47.744V47.812C110.735,21.491,89.752,0.068,64,0.068z M22.083,47.812
		c0-22.847,17.489-41.568,39.508-42.847v9.795c-1.999,0.7-3.397,2.244-3.397,4.005V33.94c0,1.23,0.65,2.316,1.71,3.112
		c0.482,0.362,1.06,0.675,1.686,0.893v12.28H22.083V47.812z M105.917,80.188c0,23.667-18.814,42.919-41.917,42.919
		c-23.126,0-41.917-19.252-41.917-42.919V55.049h83.834V80.188z M105.917,50.224H66.409V37.92c2-0.676,3.373-2.195,3.373-3.981
		V18.765c0-1.206-0.65-2.316-1.686-3.088c-0.482-0.386-1.06-0.675-1.686-0.893V4.965c21.994,1.279,39.508,20,39.508,42.847V50.224z"
		/>
</g>
<g id="Layer_1">
</g>
</svg>
