<?xml version="1.0" encoding="iso-8859-1"?>
<!-- Generator: Adobe Illustrator 19.0.1, SVG Export Plug-In . SVG Version: 6.00 Build 0)  -->
<svg version="1.1" xmlns="http://www.w3.org/2000/svg" xmlns:xlink="http://www.w3.org/1999/xlink" x="0px" y="0px"
	 viewBox="0 0 128 128" style="enable-background:new 0 0 128 128;" xml:space="preserve">
<g id="_x31_1">
	<path style="fill:#212121;" d="M79.057,113.317H3.201c-1.679,0-3.04-1.363-3.04-3.044c0-1.681,1.361-3.044,3.04-3.044h75.856
		c1.679,0,3.04,1.363,3.04,3.044C82.097,111.954,80.736,113.317,79.057,113.317z M124.799,90.191H3.201
		c-1.679,0-3.04-1.363-3.04-3.044c0-1.681,1.361-3.044,3.04-3.044h121.598c1.679,0,3.04,1.363,3.04,3.044
		C127.839,88.828,126.478,90.191,124.799,90.191z M67.049,67.047H3.201c-1.679,0-3.04-1.363-3.04-3.044
		c0-1.681,1.361-3.044,3.04-3.044h63.848c1.679,0,3.04,1.363,3.04,3.044C70.089,65.684,68.728,67.047,67.049,67.047z
		 M124.799,43.916H3.201c-1.679,0-3.04-1.363-3.04-3.044s1.361-3.044,3.04-3.044h121.598c1.679,0,3.04,1.363,3.04,3.044
		S126.478,43.916,124.799,43.916z M104.932,20.772H3.201c-1.679,0-3.04-1.363-3.04-3.044c0-1.681,1.361-3.044,3.04-3.044h101.731
		c1.679,0,3.04,1.363,3.04,3.044C107.972,19.409,106.611,20.772,104.932,20.772z"/>
</g>
<g id="Layer_1">
</g>
</svg>
