<?xml version="1.0" encoding="iso-8859-1"?>
<!-- Generator: Adobe Illustrator 19.0.1, SVG Export Plug-In . SVG Version: 6.00 Build 0)  -->
<svg version="1.1" xmlns="http://www.w3.org/2000/svg" xmlns:xlink="http://www.w3.org/1999/xlink" x="0px" y="0px"
	 viewBox="0 0 128 128" style="enable-background:new 0 0 128 128;" xml:space="preserve">
<g id="_x31_10">
	<path style="fill:#212121;" d="M38.083,88.677v4.444h51.834v-4.444H38.083z M38.083,101.722v4.444h51.834v-4.444H38.083z
		 M38.083,101.722v4.444h51.834v-4.444H38.083z M38.083,88.677v4.444h51.834v-4.444H38.083z M38.083,101.722v4.444h51.834v-4.444
		H38.083z M38.083,88.677v4.444h51.834v-4.444H38.083z M117.92,29.012H104.74V12.901c0-3.867-3.151-7.022-6.99-7.022H30.272
		c-3.861,0-7.012,3.155-7.012,7.022v16.111H10.08c-5.481,0-9.919,4.466-9.919,9.955v42.377c0,5.467,4.438,9.933,9.919,9.933H23.26
		v24.177c0,3.689,2.996,6.667,6.657,6.667h68.166c3.661,0,6.657-2.978,6.657-6.667V91.277h13.181c5.459,0,9.919-4.467,9.919-9.933
		V38.967C127.839,33.478,123.379,29.012,117.92,29.012z M27.698,12.901c0-1.422,1.154-2.578,2.574-2.578H97.75
		c1.398,0,2.552,1.156,2.552,2.578v16.111H27.698V12.901z M100.302,115.455c0,1.222-0.999,2.222-2.219,2.222H29.917
		c-1.221,0-2.219-1-2.219-2.222V78.766h72.604V115.455z M123.401,81.344c0,3.022-2.463,5.489-5.481,5.489H104.74v-8.067h11.139
		v-4.444H12.121v4.444H23.26v8.067H10.08c-3.04,0-5.481-2.467-5.481-5.489V38.967c0-3.044,2.441-5.511,5.481-5.511H117.92
		c3.018,0,5.481,2.467,5.481,5.511V81.344z M103.983,58.603L103.983,58.603c-2.417,0-4.367-1.953-4.367-4.373
		c0-2.405,1.95-4.373,4.367-4.373l0,0c2.402,0,4.364,1.968,4.364,4.373C108.348,56.65,106.385,58.603,103.983,58.603L103.983,58.603
		z"/>
</g>
<g id="Layer_1">
</g>
</svg>
