<?xml version="1.0" encoding="iso-8859-1"?>
<!-- Generator: Adobe Illustrator 19.0.1, SVG Export Plug-In . SVG Version: 6.00 Build 0)  -->
<svg version="1.1" xmlns="http://www.w3.org/2000/svg" xmlns:xlink="http://www.w3.org/1999/xlink" x="0px" y="0px"
	 viewBox="0 0 128 128" style="enable-background:new 0 0 128 128;" xml:space="preserve">
<g id="_x31_11">
	<path style="fill:#212121;" d="M63.995,127.932l-1.004-0.483C62.414,127.172,5.248,98.804,5.248,23.77v-2.29h2.287
		c30.281,0,54.756-19.706,55.001-19.905l1.846-1.507l1.214,1.619c2.904,2.035,29.018,19.793,54.87,19.793h2.287v2.29
		c0,74.257-57.18,103.384-57.759,103.668L63.995,127.932z M9.839,26.027c1.036,65.103,46.721,92.718,54.128,96.766
		c7.391-4.144,53.149-32.407,54.193-96.775c-23.924-0.892-47.222-15.28-54.026-19.887C58.681,10.239,37.019,25.211,9.839,26.027z
		 M59.276,80.692L43.985,65.275l4.817-4.988l10.526,10.557L82.541,47.57l5.106,4.671L59.276,80.692z"/>
</g>
<g id="Layer_1">
</g>
</svg>
