<?xml version="1.0" encoding="iso-8859-1"?>
<!-- Generator: Adobe Illustrator 19.0.1, SVG Export Plug-In . SVG Version: 6.00 Build 0)  -->
<svg version="1.1" xmlns="http://www.w3.org/2000/svg" xmlns:xlink="http://www.w3.org/1999/xlink" x="0px" y="0px"
	 viewBox="0 0 128 128" style="enable-background:new 0 0 128 128;" xml:space="preserve">
<g id="_x31_12">
	<path style="fill:#212121;" d="M126.055,59.521l-7.26-7.271c-1.164-1.116-2.676-1.712-4.262-1.712H86.609V27.983
		c0-0.472-0.025-0.894-0.124-1.29v-0.174c0-12.878-7.309-19.627-14.495-19.627c-6.839,0-14.198,6.129-14.198,19.627v14.02
		l-19.723,10H0.161v67.419H47.04l3.494,3.151h62.464l0.446-0.174c0.074-0.025,9.267-6.055,10.134-7.519l3.617-7.27
		c0.421-0.918,0.644-1.787,0.644-2.63V63.839C127.839,62.201,127.195,60.662,126.055,59.521z M20.652,107.461
		c-4.138,0-7.532-3.399-7.532-7.543c0-4.169,3.394-7.568,7.532-7.568c4.163,0,7.557,3.399,7.557,7.568
		C28.209,104.062,24.814,107.461,20.652,107.461z M122.883,81.183H85.816v2.481h37.067v8.337H85.816v2.481h37.067v8.362H85.816
		v2.481h36.249l-2.701,5.434c-1.239,0.968-5.922,4.293-7.557,5.385H52.441l-3.494-3.151h-6.64V53.963l20.441-10.372V26.519
		c0-10.075,4.782-14.665,9.242-14.665c2.354,0,4.584,1.191,6.293,3.374c1.487,1.886,3.246,5.36,3.246,11.29l-0.025,1.042
		l0.149,0.422v27.518h32.88c0.421,0,0.718,0.224,0.818,0.323l7.21,7.196c0.149,0.149,0.322,0.422,0.322,0.819v6.526H85.816v2.481
		h37.067V81.183z"/>
</g>
<g id="Layer_1">
</g>
</svg>
