<?xml version="1.0" encoding="iso-8859-1"?>
<!-- Generator: Adobe Illustrator 19.0.1, SVG Export Plug-In . SVG Version: 6.00 Build 0)  -->
<svg version="1.1" xmlns="http://www.w3.org/2000/svg" xmlns:xlink="http://www.w3.org/1999/xlink" x="0px" y="0px"
	 viewBox="0 0 128 128" style="enable-background:new 0 0 128 128;" xml:space="preserve">
<g id="_x31_13">
	<path style="fill:#212121;" d="M127.17,21.804l-3.692-7.395c-0.768-1.29-9.96-7.32-10.035-7.345l-0.446-0.174H50.533l-3.494,3.176
		H0.161v67.419H38.07l19.723,9.975v14.044c0,13.474,7.359,19.603,14.198,19.603c7.185,0,14.495-6.724,14.495-19.603v-0.198
		c0.099-0.397,0.124-0.819,0.124-1.29V77.486h27.924c1.586,0,3.097-0.62,4.311-1.787l7.21-7.221c1.14-1.142,1.784-2.655,1.784-4.318
		V24.484C127.839,23.641,127.616,22.772,127.17,21.804z M20.652,35.65c-4.138,0-7.532-3.399-7.532-7.543
		c0-4.169,3.394-7.568,7.532-7.568c4.163,0,7.557,3.399,7.557,7.568C28.209,32.251,24.814,35.65,20.652,35.65z M122.883,64.161
		c0,0.422-0.173,0.67-0.322,0.819l-7.161,7.171c-0.149,0.124-0.446,0.372-0.867,0.372h-32.88l0.025,27.568l-0.149,0.422v0.992
		c0,9.603-4.807,14.64-9.539,14.64c-4.46,0-9.242-4.566-9.242-14.64V84.409L42.307,74.062V15.03h6.64l3.494-3.176h59.367
		c1.61,1.092,6.293,4.392,7.557,5.384l2.725,5.459H85.816v2.481h37.067v8.338H85.816v2.481h37.067v8.337H85.816v2.481h37.067v8.338
		H85.816v2.481h37.067V64.161z"/>
</g>
<g id="Layer_1">
</g>
</svg>
