<?xml version="1.0" encoding="iso-8859-1"?>
<!-- Generator: Adobe Illustrator 19.0.1, SVG Export Plug-In . SVG Version: 6.00 Build 0)  -->
<svg version="1.1" xmlns="http://www.w3.org/2000/svg" xmlns:xlink="http://www.w3.org/1999/xlink" x="0px" y="0px"
	 viewBox="0 0 128 128" style="enable-background:new 0 0 128 128;" xml:space="preserve">
<g id="_x31_14">
	<path style="fill:#212121;" d="M8.966,76.39v8.972h46.668V76.39H8.966z M59.597,76.39v8.972H70.89V76.39H59.597z M8.966,76.39
		v8.972h46.668V76.39H8.966z M59.597,76.39v8.972H70.89V76.39H59.597z M8.966,76.39v8.972h46.668V76.39H8.966z M59.597,76.39v8.972
		H70.89V76.39H59.597z M121.235,16.47H6.765c-3.632,0-6.604,2.976-6.604,6.614v81.834c0,3.66,2.972,6.614,6.604,6.614h114.47
		c3.654,0,6.604-2.954,6.604-6.614V23.083C127.839,19.446,124.889,16.47,121.235,16.47z M4.564,23.083
		c0-1.212,0.991-2.205,2.201-2.205h114.47c1.233,0,2.201,0.992,2.201,2.205v14.969H4.564V23.083z M123.436,104.917
		c0,1.213-0.969,2.205-2.201,2.205H6.765c-1.211,0-2.201-0.992-2.201-2.205V58.004h118.872V104.917z M123.436,53.594H4.564V42.461
		h118.872V53.594z"/>
</g>
<g id="Layer_1">
</g>
</svg>
