<?xml version="1.0" encoding="iso-8859-1"?>
<!-- Generator: Adobe Illustrator 19.0.1, SVG Export Plug-In . SVG Version: 6.00 Build 0)  -->
<svg version="1.1" xmlns="http://www.w3.org/2000/svg" xmlns:xlink="http://www.w3.org/1999/xlink" x="0px" y="0px"
	 viewBox="0 0 128 128" style="enable-background:new 0 0 128 128;" xml:space="preserve">
<g id="_x31_15">
	<path style="fill:#212121;" d="M120.761,19.854H39.087v-2.67c0-3.922-3.161-7.088-7.077-7.088H7.239
		c-3.893,0-7.077,3.166-7.077,7.088v93.631c0,3.898,3.185,7.088,7.077,7.088h113.523c3.916,0,7.077-3.189,7.077-7.088V26.942
		C127.839,23.02,124.678,19.854,120.761,19.854z M4.879,17.185c0-1.323,1.062-2.363,2.359-2.363H32.01
		c1.298,0,2.359,1.04,2.359,2.363v7.395h86.393c1.298,0,2.359,1.039,2.359,2.363v9.45H4.879V17.185z M123.121,110.815
		c0,1.3-1.062,2.363-2.359,2.363H7.239c-1.298,0-2.359-1.063-2.359-2.363V41.118h118.241V110.815z"/>
</g>
<g id="Layer_1">
</g>
</svg>
