<?xml version="1.0" encoding="iso-8859-1"?>
<!-- Generator: Adobe Illustrator 19.0.1, SVG Export Plug-In . SVG Version: 6.00 Build 0)  -->
<svg version="1.1" xmlns="http://www.w3.org/2000/svg" xmlns:xlink="http://www.w3.org/1999/xlink" x="0px" y="0px"
	 viewBox="0 0 128 128" style="enable-background:new 0 0 128 128;" xml:space="preserve">
<g id="_x31_16">
	<path style="fill:#212121;" d="M78.575,0.09V0.068H20.116c-4.277,0-7.744,3.471-7.744,7.755v112.355
		c0,4.283,3.467,7.755,7.744,7.755h87.767c4.254,0,7.744-3.472,7.744-7.755V37.151L78.575,0.09z M111.125,120.177
		c0,1.804-1.463,3.246-3.241,3.246H20.116c-1.778,0-3.241-1.443-3.241-3.246V7.822c0-1.804,1.463-3.246,3.241-3.246h56.23v35.257
		h34.778V120.177z M98.724,104.106H28.812v-4.509h69.911V104.106z M98.724,87.606H28.812v-4.509h69.911V87.606z M98.724,71.106
		H28.812v-4.509h69.911V71.106z M98.724,54.606H28.812v-4.509h69.911V54.606z"/>
</g>
<g id="Layer_1">
</g>
</svg>
