<?xml version="1.0" encoding="iso-8859-1"?>
<!-- Generator: Adobe Illustrator 19.0.1, SVG Export Plug-In . SVG Version: 6.00 Build 0)  -->
<svg version="1.1" xmlns="http://www.w3.org/2000/svg" xmlns:xlink="http://www.w3.org/1999/xlink" x="0px" y="0px"
	 viewBox="0 0 128 128" style="enable-background:new 0 0 128 128;" xml:space="preserve">
<g id="_x31_18">
	<path style="fill:#212121;" d="M64.224,127.932c-35.072,0-63.598-28.611-63.598-63.778c0-32.499,24.243-59.743,56.392-63.374
		l2.591-0.292v69.297l57.863,24.656l2.095,1.198l-1.253,2.064C106.623,116.632,86.404,127.932,64.224,127.932z M54.951,5.767
		C26.457,10.259,5.285,34.911,5.285,64.155c0,32.595,26.435,59.112,58.928,59.112c19.655,0,37.645-9.567,48.656-25.734L54.951,72.87
		V5.767z M69.263,0.068v0.208v17.07v46.079l54.122,23.047l0.028,0.008l0.02,0.008l0.016,0.008l0.416,0.176
		c2.276-6.667,3.509-13.824,3.509-21.269C127.373,31.61,101.959,3.778,69.263,0.068z"/>
</g>
<g id="Layer_1">
</g>
</svg>
