<?xml version="1.0" encoding="iso-8859-1"?>
<!-- Generator: Adobe Illustrator 19.0.1, SVG Export Plug-In . SVG Version: 6.00 Build 0)  -->
<svg version="1.1" xmlns="http://www.w3.org/2000/svg" xmlns:xlink="http://www.w3.org/1999/xlink" x="0px" y="0px"
	 viewBox="0 0 128 128" style="enable-background:new 0 0 128 128;" xml:space="preserve">
<g id="_x31_19">
	<path style="fill:#212121;" d="M122.787,50.142c-1.413-15.862-14.491-27.824-30.416-27.824H79.165v-6.859H51.874v6.859H35.607
		c-15.925,0-29.003,11.961-30.394,27.802c-1.52,13.483-5.051,44.994-5.051,46.066c0,9.025,7.32,16.356,16.332,16.356
		c6.293,0,12.072-3.687,14.769-9.389l12.8-19.699h39.877l12.8,19.699c2.676,5.702,8.455,9.389,14.769,9.389
		c9.011,0,16.332-7.331,16.332-16.356C127.839,95.114,124.307,63.646,122.787,50.142z M111.507,108.254
		c-4.687,0-8.99-2.765-10.959-7.031L86.271,79.166H41.729L27.58,100.945l-0.15,0.279c-1.948,4.266-6.25,7.031-10.938,7.031
		c-6.657,0-12.051-5.423-12.051-12.004c0.064-1.372,3.039-28.06,5.03-45.701c1.22-13.655,12.436-23.944,26.156-23.944h56.765
		c13.678,0,24.915,10.289,26.135,23.944v0.043c1.991,17.599,4.966,44.287,5.03,45.594
		C123.558,102.831,118.143,108.254,111.507,108.254z M94.848,38.668c2.613,0,4.73,2.127,4.73,4.745c0,2.617-2.117,4.737-4.73,4.737
		c-2.606,0-4.723-2.12-4.723-4.737C90.126,40.795,92.242,38.668,94.848,38.668z M49.806,57.624h-9.46v9.467h-9.468v-9.467h-9.456
		V48.15h9.456v-9.482h9.468v9.482h9.46V57.624z M85.395,57.624c-2.614,0-4.738-2.127-4.738-4.745c0-2.61,2.124-4.73,4.738-4.73
		c2.606,0,4.73,2.12,4.73,4.73C90.126,55.497,88.001,57.624,85.395,57.624z M94.848,67.091c-2.606,0-4.723-2.112-4.723-4.73
		s2.116-4.737,4.723-4.737c2.613,0,4.73,2.12,4.73,4.737S97.462,67.091,94.848,67.091z M104.308,57.624
		c-2.614,0-4.73-2.127-4.73-4.745c0-2.61,2.116-4.73,4.73-4.73c2.614,0,4.73,2.12,4.73,4.73
		C109.039,55.497,106.922,57.624,104.308,57.624z M59.726,74.756H47.954v-4.644h11.772V74.756z M81.131,74.756H69.358v-4.644h11.772
		V74.756z"/>
</g>
<g id="Layer_1">
</g>
</svg>
