<?xml version="1.0" encoding="iso-8859-1"?>
<!-- Generator: Adobe Illustrator 19.0.1, SVG Export Plug-In . SVG Version: 6.00 Build 0)  -->
<svg version="1.1" xmlns="http://www.w3.org/2000/svg" xmlns:xlink="http://www.w3.org/1999/xlink" x="0px" y="0px"
	 viewBox="0 0 128 128" style="enable-background:new 0 0 128 128;" xml:space="preserve">
<g id="_x31_2">
	<path style="fill:#212121;" d="M124.799,113.316H48.943c-1.679,0-3.04-1.363-3.04-3.044s1.361-3.044,3.04-3.044h75.856
		c1.679,0,3.04,1.363,3.04,3.044S126.478,113.316,124.799,113.316z M124.799,90.19H3.201c-1.679,0-3.04-1.363-3.04-3.044
		s1.361-3.044,3.04-3.044h121.598c1.679,0,3.04,1.363,3.04,3.044S126.478,90.19,124.799,90.19z M124.799,67.048H60.951
		c-1.679,0-3.04-1.363-3.04-3.044s1.361-3.044,3.04-3.044h63.848c1.679,0,3.04,1.363,3.04,3.044S126.478,67.048,124.799,67.048z
		 M124.799,43.916H3.201c-1.679,0-3.04-1.363-3.04-3.044s1.361-3.044,3.04-3.044h121.598c1.679,0,3.04,1.363,3.04,3.044
		S126.478,43.916,124.799,43.916z M124.799,20.773H23.068c-1.679,0-3.04-1.363-3.04-3.044s1.361-3.044,3.04-3.044h101.731
		c1.679,0,3.04,1.363,3.04,3.044S126.478,20.773,124.799,20.773z"/>
</g>
<g id="Layer_1">
</g>
</svg>
