<?xml version="1.0" encoding="iso-8859-1"?>
<!-- Generator: Adobe Illustrator 19.0.1, SVG Export Plug-In . SVG Version: 6.00 Build 0)  -->
<svg version="1.1" xmlns="http://www.w3.org/2000/svg" xmlns:xlink="http://www.w3.org/1999/xlink" x="0px" y="0px"
	 viewBox="0 0 128 128" style="enable-background:new 0 0 128 128;" xml:space="preserve">
<g id="_x31_20">
	<path style="fill:#212121;" d="M127.396,73.614h-3.101l-0.665-0.725c-4.758-5.412-11.606-8.518-18.789-8.518
		c-7.187,0-14.039,3.105-18.803,8.518L85.4,73.614h-1.929l-0.68-0.725c-4.756-5.412-11.608-8.518-18.797-8.518
		s-14.039,3.105-18.793,8.515l-0.638,0.727h-1.931l-0.686-0.727c-4.75-5.412-11.599-8.515-18.789-8.515
		c-7.187,0-14.039,3.105-18.803,8.518l-0.638,0.725H0.619l-0.015-2.138c0-30.073,25.063-55.463,57.292-58.315l6.107-13.093
		l6.099,13.093c32.229,2.852,57.294,28.242,57.294,58.315V73.614z M23.158,60.095c7.652,0,14.971,3.001,20.417,8.305
		c5.448-5.302,12.769-8.305,20.419-8.305s14.971,3.001,20.421,8.305c5.457-5.304,12.779-8.305,20.425-8.305
		c6.572,0,12.902,2.218,18.015,6.212c-2.715-25.91-25.594-46.975-54.312-48.979l-1.255-0.088l-3.29-7.062l-3.292,7.062l-1.255,0.088
		C30.738,19.333,7.862,40.392,5.145,66.299C10.258,62.311,16.588,60.095,23.158,60.095z M66.71,109.392V68.807h-4.27v40.585
		c0,7.866-6.391,14.264-14.245,14.264c-7.852,0-14.241-6.398-14.241-14.264v-8.2h-4.27v8.2c0,10.224,8.305,18.541,18.511,18.541
		C58.403,127.932,66.71,119.615,66.71,109.392z"/>
</g>
<g id="Layer_1">
</g>
</svg>
