<?xml version="1.0" encoding="iso-8859-1"?>
<!-- Generator: Adobe Illustrator 19.0.1, SVG Export Plug-In . SVG Version: 6.00 Build 0)  -->
<svg version="1.1" xmlns="http://www.w3.org/2000/svg" xmlns:xlink="http://www.w3.org/1999/xlink" x="0px" y="0px"
	 viewBox="0 0 128 128" style="enable-background:new 0 0 128 128;" xml:space="preserve">
<g id="_x31_21">
	<path style="fill:#212121;" d="M105.729,103.236H24.65c-14.19,0-24.489-9.312-24.489-22.143c0-10.356,6.601-19.649,16.22-23.086
		c0.214-9.607,8.084-17.355,17.728-17.355c4.03,0,7.918,1.386,11.026,3.875c4.875-11.932,16.397-19.762,29.513-19.762
		c17.587,0,31.894,14.341,31.894,31.968c0,0.729-0.028,1.475-0.083,2.229c11.855,0.385,21.379,10.166,21.379,22.132
		C127.839,93.302,117.92,103.236,105.729,103.236z M34.109,44.339c-7.747,0-14.05,6.313-14.05,14.071
		c0,0.193-0.01,0.402,0.024,0.594l0.296,1.635l-1.594,0.463C9.987,63.659,3.843,71.88,3.843,81.093
		c0,10.866,8.556,18.455,20.807,18.455h81.079c10.162,0,18.428-8.279,18.428-18.455s-8.267-18.457-18.428-18.457
		c-0.38,0-0.738,0.022-1.097,0.067l-2.383,0.299l0.333-2.384c0.185-1.325,0.279-2.632,0.279-3.885
		c0-15.594-12.656-28.28-28.212-28.28c-12.467,0-23.305,7.994-26.97,19.894l-0.962,3.122l-2.172-2.44
		C41.893,46.048,38.089,44.339,34.109,44.339z"/>
</g>
<g id="Layer_1">
</g>
</svg>
