<?xml version="1.0" encoding="iso-8859-1"?>
<!-- Generator: Adobe Illustrator 19.0.1, SVG Export Plug-In . SVG Version: 6.00 Build 0)  -->
<svg version="1.1" xmlns="http://www.w3.org/2000/svg" xmlns:xlink="http://www.w3.org/1999/xlink" x="0px" y="0px"
	 viewBox="0 0 128 128" style="enable-background:new 0 0 128 128;" xml:space="preserve">
<g id="_x31_22">
	<path style="fill:#212121;" d="M69.401,116.827l-3.438-1.322l14.728-38.412l3.438,1.322L69.401,116.827z M58.355,116.827
		l-3.438-1.322l14.728-38.412l3.438,1.322L58.355,116.827z M47.309,116.827l-3.438-1.322L58.6,77.094l3.438,1.322L47.309,116.827z
		 M36.263,116.827l-3.438-1.322l14.728-38.412l3.438,1.322L36.263,116.827z M127.839,67.499c0-11.964-9.524-21.745-21.38-22.13
		c0.056-0.754,0.084-1.5,0.084-2.229c0-17.627-14.307-31.968-31.894-31.968c-13.116,0-24.639,7.83-29.513,19.762
		c-3.109-2.488-6.996-3.875-11.026-3.875c-9.643,0-17.512,7.748-17.728,17.353c-9.619,3.437-16.22,12.73-16.22,23.086
		c0,12.83,10.299,22.143,24.489,22.143v-3.687c-12.251,0-20.807-7.589-20.807-18.455c0-9.213,6.144-17.434,14.942-19.991
		l1.594-0.463l-0.296-1.635c-0.034-0.193-0.024-0.402-0.024-0.592c0-7.758,6.303-14.071,14.05-14.071
		c3.98,0,7.784,1.709,10.436,4.687l2.172,2.44l0.962-3.122c3.664-11.898,14.502-19.892,26.97-19.892
		c15.556,0,28.212,12.686,28.212,28.28c0,1.251-0.093,2.559-0.279,3.885l-0.333,2.382l2.383-0.297
		c0.359-0.045,0.716-0.067,1.097-0.067c10.162,0,18.428,8.279,18.428,18.455s-8.267,18.455-18.428,18.455v3.687
		C117.92,89.642,127.839,79.708,127.839,67.499z"/>
</g>
<g id="Layer_1">
</g>
</svg>
