<?xml version="1.0" encoding="iso-8859-1"?>
<!-- Generator: Adobe Illustrator 19.0.1, SVG Export Plug-In . SVG Version: 6.00 Build 0)  -->
<svg version="1.1" xmlns="http://www.w3.org/2000/svg" xmlns:xlink="http://www.w3.org/1999/xlink" x="0px" y="0px"
	 viewBox="0 0 128 128" style="enable-background:new 0 0 128 128;" xml:space="preserve">
<g id="_x31_23">
	<path d="M47.926,74.118c0-1.065,0.55-1.652,1.54-1.652s1.54,0.588,1.54,1.652v3.269l2.861-1.029
		c0.293-0.11,0.697-0.221,0.953-0.221c0.514,0,1.504,0.514,1.504,1.652c0,0.698-0.404,1.175-1.284,1.433l-3.227,0.954l2.2,2.865
		c0.257,0.331,0.44,0.661,0.44,1.065c0,1.248-1.21,1.542-1.65,1.542c-0.514,0-0.99-0.183-1.247-0.588l-2.09-3.121l-2.09,3.121
		c-0.257,0.404-0.733,0.588-1.247,0.588c-0.44,0-1.65-0.294-1.65-1.542c0-0.404,0.183-0.734,0.44-1.065l2.2-2.865l-3.227-0.954
		c-0.88-0.258-1.284-0.735-1.284-1.433c0-1.138,0.99-1.652,1.504-1.652c0.256,0,0.66,0.11,0.953,0.221l2.861,1.029V74.118z
		 M64.85,74.118c0-1.065,0.55-1.652,1.54-1.652s1.54,0.588,1.54,1.652v3.269l2.861-1.029c0.293-0.11,0.697-0.221,0.953-0.221
		c0.514,0,1.504,0.514,1.504,1.652c0,0.698-0.404,1.175-1.284,1.433l-3.227,0.954l2.2,2.865c0.257,0.331,0.44,0.661,0.44,1.065
		c0,1.248-1.21,1.542-1.65,1.542c-0.514,0-0.99-0.183-1.247-0.588l-2.09-3.121l-2.09,3.121c-0.257,0.404-0.733,0.588-1.247,0.588
		c-0.44,0-1.65-0.294-1.65-1.542c0-0.404,0.183-0.734,0.44-1.065l2.2-2.865l-3.227-0.954c-0.88-0.258-1.284-0.735-1.284-1.433
		c0-1.138,0.99-1.652,1.504-1.652c0.256,0,0.66,0.11,0.953,0.221l2.861,1.029V74.118z M80.364,74.118c0-1.065,0.55-1.652,1.54-1.652
		s1.54,0.588,1.54,1.652v3.269l2.861-1.029c0.293-0.11,0.697-0.221,0.953-0.221c0.514,0,1.504,0.514,1.504,1.652
		c0,0.698-0.404,1.175-1.284,1.433l-3.227,0.954l2.2,2.865c0.257,0.331,0.44,0.661,0.44,1.065c0,1.248-1.21,1.542-1.65,1.542
		c-0.514,0-0.99-0.183-1.247-0.588l-2.09-3.121l-2.09,3.121c-0.257,0.404-0.733,0.588-1.247,0.588c-0.44,0-1.65-0.294-1.65-1.542
		c0-0.404,0.183-0.734,0.44-1.065l2.2-2.865l-3.227-0.954c-0.88-0.258-1.284-0.735-1.284-1.433c0-1.138,0.99-1.652,1.504-1.652
		c0.256,0,0.66,0.11,0.953,0.221l2.861,1.029V74.118z M55.29,92.555c0-1.065,0.55-1.652,1.54-1.652s1.54,0.588,1.54,1.652v3.269
		l2.861-1.029c0.293-0.11,0.697-0.221,0.953-0.221c0.514,0,1.504,0.514,1.504,1.652c0,0.698-0.404,1.175-1.284,1.433l-3.227,0.954
		l2.2,2.865c0.257,0.331,0.44,0.661,0.44,1.065c0,1.248-1.21,1.542-1.65,1.542c-0.514,0-0.99-0.183-1.247-0.588l-2.09-3.121
		l-2.09,3.121c-0.257,0.404-0.733,0.588-1.247,0.588c-0.44,0-1.65-0.294-1.65-1.542c0-0.404,0.183-0.734,0.44-1.065l2.2-2.865
		l-3.227-0.954c-0.88-0.258-1.284-0.735-1.284-1.433c0-1.138,0.99-1.652,1.504-1.652c0.256,0,0.66,0.11,0.953,0.221l2.861,1.029
		V92.555z M72.214,92.555c0-1.065,0.55-1.652,1.54-1.652s1.54,0.588,1.54,1.652v3.269l2.861-1.029
		c0.293-0.11,0.697-0.221,0.953-0.221c0.514,0,1.504,0.514,1.504,1.652c0,0.698-0.404,1.175-1.284,1.433l-3.227,0.954l2.2,2.865
		c0.257,0.331,0.44,0.661,0.44,1.065c0,1.248-1.21,1.542-1.65,1.542c-0.514,0-0.99-0.183-1.247-0.588l-2.09-3.121l-2.09,3.121
		c-0.257,0.404-0.733,0.588-1.247,0.588c-0.44,0-1.65-0.294-1.65-1.542c0-0.404,0.183-0.734,0.44-1.065l2.2-2.865L68.18,97.66
		c-0.88-0.258-1.284-0.735-1.284-1.433c0-1.138,0.99-1.652,1.504-1.652c0.256,0,0.66,0.11,0.953,0.221l2.861,1.029V92.555z
		 M65.636,109.148c0-1.065,0.55-1.652,1.54-1.652s1.54,0.588,1.54,1.652v3.269l2.861-1.029c0.293-0.11,0.697-0.221,0.953-0.221
		c0.514,0,1.504,0.514,1.504,1.652c0,0.698-0.404,1.175-1.284,1.433l-3.227,0.954l2.2,2.865c0.257,0.331,0.44,0.661,0.44,1.065
		c0,1.248-1.21,1.542-1.65,1.542c-0.514,0-0.99-0.183-1.247-0.588l-2.09-3.121l-2.09,3.121c-0.257,0.404-0.733,0.588-1.247,0.588
		c-0.44,0-1.65-0.294-1.65-1.542c0-0.404,0.183-0.734,0.44-1.065l2.2-2.865l-3.227-0.954c-0.88-0.258-1.284-0.735-1.284-1.433
		c0-1.138,0.99-1.652,1.504-1.652c0.256,0,0.66,0.11,0.953,0.221l2.861,1.029V109.148z M127.839,63.647
		c0-11.964-9.524-21.743-21.379-22.13c0.056-0.751,0.083-1.491,0.083-2.229c0-17.627-14.308-31.968-31.895-31.968
		c-13.116,0-24.638,7.83-29.512,19.762c-3.109-2.488-6.996-3.875-11.027-3.875c-9.643,0-17.512,7.747-17.728,17.353
		c-9.619,3.437-16.22,12.729-16.22,23.086c0,12.83,10.299,22.142,24.489,22.142v-3.687c-12.251,0-20.807-7.589-20.807-18.455
		c0-9.213,6.144-17.434,14.942-19.991l1.596-0.463l-0.298-1.637c-0.034-0.191-0.024-0.4-0.024-0.591
		c0-7.758,6.303-14.071,14.05-14.071c3.98,0,7.785,1.709,10.437,4.687l2.172,2.44l0.962-3.122
		c3.664-11.898,14.501-19.892,26.969-19.892c15.557,0,28.213,12.686,28.213,28.28c0,1.264-0.092,2.535-0.28,3.885l-0.333,2.382
		l2.383-0.297c0.359-0.045,0.716-0.067,1.097-0.067c10.161,0,18.429,8.279,18.429,18.455s-8.267,18.455-18.429,18.455v3.687
		C117.92,85.789,127.839,75.856,127.839,63.647z"/>
</g>
<g id="Layer_1">
</g>
</svg>
