<?xml version="1.0" encoding="iso-8859-1"?>
<!-- Generator: Adobe Illustrator 19.0.1, SVG Export Plug-In . SVG Version: 6.00 Build 0)  -->
<svg version="1.1" xmlns="http://www.w3.org/2000/svg" xmlns:xlink="http://www.w3.org/1999/xlink" x="0px" y="0px"
	 viewBox="0 0 128 128" style="enable-background:new 0 0 128 128;" xml:space="preserve">
<g id="_x31_24">
	<path style="fill:#212121;" d="M66.155,127.932h-4.31V105.05h4.31V127.932z M107.616,110.733L91.461,94.552l3.048-3.052
		l16.155,16.181L107.616,110.733z M20.384,110.733l-3.048-3.052L33.491,91.5l3.048,3.052L20.384,110.733z M64.84,99.132
		c-18.975,0-34.411-15.458-34.411-34.459S45.866,30.211,64.84,30.211c18.973,0,34.41,15.46,34.41,34.462S83.814,99.132,64.84,99.132
		z M64.84,34.527c-16.597,0-30.101,13.523-30.101,30.145S48.243,94.815,64.84,94.815s30.1-13.521,30.1-30.143
		S81.438,34.527,64.84,34.527z M127.839,66.158h-22.848v-4.317h22.848V66.158z M23.009,66.158H0.161v-4.317h22.848V66.158z
		 M94.509,36.498l-3.048-3.052l16.155-16.179l3.048,3.052L94.509,36.498z M33.491,36.498L17.336,20.319l3.048-3.052l16.155,16.179
		L33.491,36.498z M66.155,22.948h-4.31V0.068h4.31V22.948z"/>
</g>
<g id="Layer_1">
</g>
</svg>
