<?xml version="1.0" encoding="iso-8859-1"?>
<!-- Generator: Adobe Illustrator 19.0.1, SVG Export Plug-In . SVG Version: 6.00 Build 0)  -->
<svg version="1.1" xmlns="http://www.w3.org/2000/svg" xmlns:xlink="http://www.w3.org/1999/xlink" x="0px" y="0px"
	 viewBox="0 0 128 128" style="enable-background:new 0 0 128 128;" xml:space="preserve">
<g id="_x31_25">
	<path style="fill:#212121;" d="M111.43,60.35v3.188h16.409V60.35H111.43z M50.662,28.344l-2.244,2.247l11.619,11.62l2.244-2.263
		L50.662,28.344z M113.276,28.344l-11.587,11.604l2.244,2.263l11.603-11.62L113.276,28.344z M80.393,16.007V32.44h3.183V16.007
		H80.393z"/>
	<path style="fill:#212121;" d="M102.437,77.214c3.215-4.304,4.902-9.404,4.902-14.792c0-13.676-11.109-24.802-24.749-24.802
		c-6.287,0-12.192,2.327-16.775,6.567c-0.414-0.016-0.844-0.032-1.257-0.032c-11.332,0-21.296,6.774-25.513,17.087
		c-2.69-2.152-6.048-3.347-9.534-3.347c-8.34,0-15.136,6.694-15.327,14.999C5.875,75.875,0.161,83.908,0.161,92.85
		c0,11.094,8.897,19.143,21.168,19.143h70.094c10.536,0,19.115-8.575,19.115-19.143C110.538,86.395,107.339,80.689,102.437,77.214z
		 M91.423,108.805H21.329c-10.584,0-17.985-6.551-17.985-15.955c0-7.954,5.316-15.063,12.924-17.278l1.369-0.398l-0.255-1.419
		c-0.032-0.159-0.016-0.351-0.016-0.51c0-6.711,5.443-12.162,12.144-12.162c3.438,0,6.732,1.482,9.024,4.049l1.878,2.104
		l0.828-2.694c3.167-10.281,12.542-17.198,23.317-17.198c13.449,0,24.383,10.966,24.383,24.451c0,1.084-0.08,2.216-0.239,3.363
		l-0.286,2.056l2.069-0.255c0.302-0.032,0.621-0.064,0.939-0.064c8.786,0,15.932,7.157,15.932,15.955
		C107.355,101.649,100.209,108.805,91.423,108.805z"/>
</g>
<g id="Layer_1">
</g>
</svg>
