<?xml version="1.0" encoding="iso-8859-1"?>
<!-- Generator: Adobe Illustrator 19.0.1, SVG Export Plug-In . SVG Version: 6.00 Build 0)  -->
<svg version="1.1" xmlns="http://www.w3.org/2000/svg" xmlns:xlink="http://www.w3.org/1999/xlink" x="0px" y="0px"
	 viewBox="0 0 128 128" style="enable-background:new 0 0 128 128;" xml:space="preserve">
<g id="_x31_26">
	<path style="fill:#212121;" d="M71.779,77.333l1.173,12.337l-12.906-0.613c0,0-3.163-5.236,1.964-10.345
		C67.111,73.578,71.779,77.333,71.779,77.333z M80.042,49.798c-5.101,5.108-1.964,10.37-1.964,10.37l12.931,0.613l-1.199-12.363
		C89.811,48.419,85.143,44.664,80.042,49.798z M92.132,7.168c-11.401,0-21.552,5.338-28.056,13.665
		c-6.529-8.327-16.68-13.665-28.056-13.665c-19.741,0-35.707,16.015-35.707,35.759c0,0-6.376,44.699,63.329,77.904h0.281
		c4.999-2.401,9.641-4.828,13.875-7.331L56.272,91.943c-5.177-5.211-5.177-13.767,0-18.978c2.602-2.58,6.045-3.908,9.488-3.882
		c3.443,0,6.861,1.303,9.462,3.882L99.911,97.69c1.658-1.456,3.214-2.912,4.667-4.368L74.329,63.029
		c-5.203-5.185-5.203-13.742,0-18.953c2.576-2.605,6.019-3.908,9.462-3.908c3.443,0,6.861,1.303,9.462,3.908l27.443,27.484
		c4.616-9.144,6.121-16.985,6.555-22.145c0-0.026,0-0.051,0.026-0.077c-0.026-0.026-0.026-0.051,0-0.051
		c0.357-2.069,0.561-4.189,0.561-6.36C127.839,23.183,111.847,7.168,92.132,7.168z"/>
</g>
<g id="Layer_1">
</g>
</svg>
