<?xml version="1.0" encoding="iso-8859-1"?>
<!-- Generator: Adobe Illustrator 19.0.1, SVG Export Plug-In . SVG Version: 6.00 Build 0)  -->
<svg version="1.1" xmlns="http://www.w3.org/2000/svg" xmlns:xlink="http://www.w3.org/1999/xlink" x="0px" y="0px"
	 viewBox="0 0 128 128" style="enable-background:new 0 0 128 128;" xml:space="preserve">
<g id="_x31_27">
	<path style="fill:#212121;" d="M110.178,30.898H96.975C95.801,13.697,81.469,0.068,64,0.068c-11.353,0-21.78,5.764-27.896,15.393
		c-2.957,4.679-4.695,9.968-5.078,15.438H17.8c-5.485,0-9.953,4.475-9.953,9.968v77.099c0,5.492,4.469,9.968,9.953,9.968h92.378
		c5.484,0,9.953-4.475,9.953-9.968l0.023-77.099C120.154,35.374,115.685,30.898,110.178,30.898z M39.918,17.902
		C45.199,9.561,54.182,4.588,64,4.588c14.964,0,27.287,11.618,28.416,26.31H35.562C35.923,26.287,37.413,21.834,39.918,17.902z
		 M115.617,117.965c0,3.006-2.438,5.447-5.439,5.447H17.8c-3.002,0-5.439-2.441-5.439-5.447V104.81h103.257V117.965z
		 M115.617,100.289H12.36V40.866c0-3.006,2.438-5.447,5.439-5.447h13.158v17.02c0,1.243,0.993,2.26,2.257,2.26
		c1.241,0,2.257-1.017,2.257-2.26v-17.02h57.057v17.02c0,1.243,1.016,2.26,2.257,2.26c1.241,0,2.257-1.017,2.257-2.26v-17.02h13.136
		c3.002,0,5.462,2.441,5.462,5.447L115.617,100.289z"/>
</g>
<g id="Layer_1">
</g>
</svg>
