<?xml version="1.0" encoding="iso-8859-1"?>
<!-- Generator: Adobe Illustrator 19.0.1, SVG Export Plug-In . SVG Version: 6.00 Build 0)  -->
<svg version="1.1" xmlns="http://www.w3.org/2000/svg" xmlns:xlink="http://www.w3.org/1999/xlink" x="0px" y="0px"
	 viewBox="0 0 128 128" style="enable-background:new 0 0 128 128;" xml:space="preserve">
<g id="_x31_29">
	<path style="fill:#212121;" d="M0.161,10.325V45.87h5.121v66.389c0,2.982,2.525,5.415,5.598,5.415h106.263
		c3.073,0,5.574-2.433,5.574-5.415V45.87h5.121V10.325H0.161z M117.953,112.259c0,0.358-0.381,0.644-0.81,0.644H10.88
		c-0.453,0-0.834-0.286-0.834-0.644V45.87h107.907V112.259z M123.075,41.099H4.925V15.096h118.15V41.099z M81.173,80.21H51.877
		c-6.197,0-11.24-5.048-11.24-11.254v-1.33c0-6.206,5.043-11.254,11.24-11.254h29.296c6.197,0,11.238,5.048,11.238,11.254v1.33
		C92.411,75.161,87.37,80.21,81.173,80.21z M51.877,61.142c-3.571,0-6.476,2.907-6.476,6.483v1.33c0,3.576,2.905,6.483,6.476,6.483
		h29.296c3.571,0,6.474-2.907,6.474-6.483v-1.33c0-3.576-2.903-6.483-6.474-6.483H51.877z"/>
</g>
<g id="Layer_1">
</g>
</svg>
