<?xml version="1.0" encoding="iso-8859-1"?>
<!-- Generator: Adobe Illustrator 19.0.1, SVG Export Plug-In . SVG Version: 6.00 Build 0)  -->
<svg version="1.1" xmlns="http://www.w3.org/2000/svg" xmlns:xlink="http://www.w3.org/1999/xlink" x="0px" y="0px"
	 viewBox="0 0 128 128" style="enable-background:new 0 0 128 128;" xml:space="preserve">
<g id="_x31_3">
	<path style="fill:#212121;" d="M114.886,20.7H13.113c-1.665,0-3.015-1.352-3.015-3.019s1.35-3.019,3.015-3.019h101.773
		c1.665,0,3.015,1.352,3.015,3.019S116.551,20.7,114.886,20.7z M127.839,40.847c0-1.667-1.35-3.019-3.015-3.019H3.176
		c-1.665,0-3.015,1.352-3.015,3.019c0,1.667,1.35,3.019,3.015,3.019h121.649C126.489,43.866,127.839,42.514,127.839,40.847z
		 M98.954,64.004c0-1.667-1.35-3.019-3.015-3.019H32.064c-1.665,0-3.015,1.352-3.015,3.019c0,1.667,1.35,3.019,3.015,3.019h63.876
		C97.604,67.023,98.954,65.671,98.954,64.004z M127.839,87.17c0-1.667-1.35-3.019-3.015-3.019H3.176
		c-1.665,0-3.015,1.352-3.015,3.019c0,1.667,1.35,3.019,3.015,3.019h121.649C126.489,90.189,127.839,88.838,127.839,87.17z
		 M104.959,110.319c0-1.667-1.35-3.019-3.015-3.019H26.061c-1.665,0-3.015,1.352-3.015,3.019s1.35,3.019,3.015,3.019h75.884
		C103.61,113.338,104.959,111.987,104.959,110.319z"/>
</g>
<g id="Layer_1">
</g>
</svg>
