<?xml version="1.0" encoding="iso-8859-1"?>
<!-- Generator: Adobe Illustrator 19.0.1, SVG Export Plug-In . SVG Version: 6.00 Build 0)  -->
<svg version="1.1" xmlns="http://www.w3.org/2000/svg" xmlns:xlink="http://www.w3.org/1999/xlink" x="0px" y="0px"
	 viewBox="0 0 128 128" style="enable-background:new 0 0 128 128;" xml:space="preserve">
<g id="_x31_4">
	<path style="fill:#212121;" d="M124.825,44.887H3.176c-1.665,0-3.014-1.352-3.014-3.019c0-1.667,1.35-3.019,3.014-3.019h121.649
		c1.665,0,3.014,1.352,3.014,3.019C127.839,43.536,126.489,44.887,124.825,44.887z M127.839,86.114c0-1.667-1.35-3.019-3.014-3.019
		H3.176c-1.665,0-3.014,1.352-3.014,3.019s1.35,3.019,3.014,3.019h121.649C126.489,89.133,127.839,87.781,127.839,86.114z
		 M127.839,19.752c0-1.667-1.35-3.019-3.014-3.019H3.176c-1.665,0-3.014,1.352-3.014,3.019c0,1.667,1.35,3.019,3.014,3.019h121.649
		C126.489,22.771,127.839,21.419,127.839,19.752z M127.839,64.009c0-1.667-1.35-3.019-3.014-3.019H3.176
		c-1.665,0-3.014,1.352-3.014,3.019c0,1.667,1.35,3.019,3.014,3.019h121.649C126.489,67.028,127.839,65.676,127.839,64.009z
		 M127.839,108.248c0-1.667-1.35-3.019-3.014-3.019H3.176c-1.665,0-3.014,1.352-3.014,3.019s1.35,3.019,3.014,3.019h121.649
		C126.489,111.267,127.839,109.915,127.839,108.248z"/>
</g>
<g id="Layer_1">
</g>
</svg>
