<?xml version="1.0" encoding="iso-8859-1"?>
<!-- Generator: Adobe Illustrator 19.0.1, SVG Export Plug-In . SVG Version: 6.00 Build 0)  -->
<svg version="1.1" xmlns="http://www.w3.org/2000/svg" xmlns:xlink="http://www.w3.org/1999/xlink" x="0px" y="0px"
	 viewBox="0 0 128 128" style="enable-background:new 0 0 128 128;" xml:space="preserve">
<g id="_x31_5">
	<path style="fill:#212121;" d="M64.1,127.941c-5.575,0-11.165-0.742-16.615-2.204c-16.464-4.422-30.226-14.999-38.748-29.784
		C0.215,81.165-2.049,63.938,2.364,47.446c4.41-16.494,14.97-30.279,29.731-38.817c14.736-8.525,31.93-10.781,48.411-6.357
		c16.483,4.424,30.248,14.991,38.759,29.756c8.52,14.788,10.784,32.015,6.373,48.508c-4.411,16.492-14.971,30.278-29.732,38.815
		C86.19,124.97,75.191,127.941,64.1,127.941z M63.854,5.176c-10.165,0-20.185,2.665-29.206,7.882
		C21.067,20.913,11.355,33.594,7.296,48.769C3.238,63.942,5.32,79.791,13.16,93.395c7.84,13.603,20.499,23.334,35.646,27.402
		c14.997,4.023,31.107,1.897,44.546-5.875c13.579-7.855,23.293-20.538,27.353-35.711c4.057-15.174,1.975-31.023-5.864-44.627
		c-7.829-13.582-20.492-23.303-35.657-27.373C74.11,5.85,68.963,5.176,63.854,5.176z M88.241,39.461l-57.576,27.28l28.303,2.036
		l2.033,28.344L88.241,39.461z"/>
</g>
<g id="Layer_1">
</g>
</svg>
