<?xml version="1.0" encoding="iso-8859-1"?>
<!-- Generator: Adobe Illustrator 19.0.1, SVG Export Plug-In . SVG Version: 6.00 Build 0)  -->
<svg version="1.1" xmlns="http://www.w3.org/2000/svg" xmlns:xlink="http://www.w3.org/1999/xlink" x="0px" y="0px"
	 viewBox="0 0 128 128" style="enable-background:new 0 0 128 128;" xml:space="preserve">
<g id="_x31_6">
	<path style="fill:#212121;" d="M111.282,127.932H16.718V33.23H52.18c1.307,0,2.364,1.06,2.364,2.368
		c0,1.307-1.057,2.368-2.364,2.368H21.446v85.232h85.107V37.965H75.82c-1.307,0-2.364-1.06-2.364-2.368
		c0-1.307,1.057-2.368,2.364-2.368h35.461V127.932z M85.276,20.816L64.295,0.068L43.975,20.485c-0.426,0.45-0.426,1.184,0.024,1.634
		l1.773,1.894c0.426,0.45,1.135,0.474,1.56,0.024L61.635,8.907v71.666h4.728V8.907l15.39,15.413
		c0.402,0.426,1.111,0.426,1.537-0.024l1.962-1.87C85.678,21.976,85.678,21.266,85.276,20.816z"/>
</g>
<g id="Layer_1">
</g>
</svg>
