<?xml version="1.0" encoding="iso-8859-1"?>
<!-- Generator: Adobe Illustrator 19.0.1, SVG Export Plug-In . SVG Version: 6.00 Build 0)  -->
<svg version="1.1" xmlns="http://www.w3.org/2000/svg" xmlns:xlink="http://www.w3.org/1999/xlink" x="0px" y="0px"
	 viewBox="0 0 128 128" style="enable-background:new 0 0 128 128;" xml:space="preserve">
<g id="_x31_7">
	<path id="_x31_7_2_" style="fill:#212121;" d="M64,73.264c-2.987,0-5.41-2.449-5.41-5.468s2.423-5.468,5.41-5.468
		c2.986,0,5.411,2.449,5.411,5.468S66.986,73.264,64,73.264z M74.008,85.93l-3.021-5.044c4.621-2.53,7.799-7.417,7.799-13.091
		c0-8.243-6.633-14.948-14.787-14.948c-8.154,0-14.788,6.705-14.788,14.948c0,6.127,3.67,11.387,8.899,13.694l-2.84,5.093
		c-6.977-3.327-11.829-10.484-11.829-18.787c0-11.459,9.222-20.781,20.558-20.781c11.335,0,20.558,9.322,20.558,20.781
		C84.558,75.579,80.294,82.37,74.008,85.93z M69.41,67.796c0,3.019-2.424,5.468-5.411,5.468c-2.987,0-5.41-2.449-5.41-5.468
		s2.423-5.468,5.41-5.468C66.986,62.327,69.41,64.776,69.41,67.796z M81.475,98.386l-2.986-4.982
		c8.783-5.099,14.726-14.657,14.726-25.608c0-16.284-13.105-29.53-29.215-29.53c-16.109,0-29.215,13.247-29.215,29.53
		c0,11.567,6.628,21.573,16.234,26.415l-2.835,5.087c-11.359-5.851-19.17-17.76-19.17-31.502c0-19.499,15.695-35.364,34.985-35.364
		c19.291,0,34.986,15.865,34.986,35.364C98.985,80.857,91.923,92.262,81.475,98.386z M88.751,110.531l-2.984-4.981
		c12.842-7.597,21.514-21.655,21.514-37.754c0-24.125-19.414-43.75-43.281-43.75c-23.866,0-43.28,19.625-43.28,43.75
		c0,16.873,9.512,31.518,23.387,38.813l-2.835,5.085c-15.627-8.301-26.324-24.849-26.324-43.898
		c0-27.34,22.005-49.583,49.052-49.583c27.047,0,49.052,22.242,49.052,49.583C113.051,86.005,103.262,101.909,88.751,110.531z
		 M96.432,123.345l-3.015-5.03c17.112-10.222,28.65-29.012,28.65-50.519c0-32.365-26.05-58.697-58.068-58.697
		c-32.019,0-58.068,26.332-58.068,58.697c0,22.45,12.544,41.975,30.911,51.844l-2.841,5.095
		c-20.118-10.872-33.84-32.313-33.84-56.939c0-35.583,28.636-64.53,63.839-64.53c35.202,0,63.839,28.947,63.839,64.53
		C127.839,91.416,115.213,112.1,96.432,123.345z"/>
</g>
<g id="Layer_1">
</g>
</svg>
