<?xml version="1.0" encoding="iso-8859-1"?>
<!-- Generator: Adobe Illustrator 19.0.1, SVG Export Plug-In . SVG Version: 6.00 Build 0)  -->
<svg version="1.1" xmlns="http://www.w3.org/2000/svg" xmlns:xlink="http://www.w3.org/1999/xlink" x="0px" y="0px"
	 viewBox="0 0 128 128" style="enable-background:new 0 0 128 128;" xml:space="preserve">
<g id="_x31_9">
	<path style="fill:#212121;" d="M19.933,39.673c-10.901,0-19.772-8.883-19.772-19.802c0-10.92,8.87-19.803,19.772-19.803
		c10.904,0,19.775,8.883,19.775,19.803C39.707,30.79,30.837,39.673,19.933,39.673z M19.933,6.156
		c-7.549,0-13.692,6.153-13.692,13.715c0,7.562,6.142,13.713,13.692,13.713c7.552,0,13.695-6.151,13.695-13.713
		C33.627,12.309,27.485,6.156,19.933,6.156z M63.997,39.673c-10.901,0-19.772-8.883-19.772-19.802
		c0-10.92,8.87-19.803,19.772-19.803c10.904,0,19.775,8.883,19.775,19.803C83.772,30.79,74.901,39.673,63.997,39.673z M63.997,6.156
		c-7.549,0-13.692,6.153-13.692,13.715c0,7.562,6.142,13.713,13.692,13.713c7.552,0,13.695-6.151,13.695-13.713
		C77.692,12.309,71.549,6.156,63.997,6.156z M108.064,39.673c-10.904,0-19.775-8.883-19.775-19.802
		c0-10.92,8.87-19.803,19.775-19.803s19.775,8.883,19.775,19.803C127.839,30.79,118.968,39.673,108.064,39.673z M108.064,6.156
		c-7.552,0-13.695,6.153-13.695,13.715c0,7.562,6.142,13.713,13.695,13.713s13.695-6.151,13.695-13.713
		C121.759,12.309,115.617,6.156,108.064,6.156z M19.933,83.802C9.032,83.802,0.161,74.919,0.161,64
		c0-10.92,8.87-19.803,19.772-19.803c10.904,0,19.775,8.883,19.775,19.803C39.707,74.919,30.837,83.802,19.933,83.802z
		 M19.933,50.285c-7.549,0-13.692,6.153-13.692,13.715s6.142,13.713,13.692,13.713c7.552,0,13.695-6.151,13.695-13.713
		S27.485,50.285,19.933,50.285z M63.997,83.802c-10.901,0-19.772-8.883-19.772-19.802c0-10.92,8.87-19.803,19.772-19.803
		c10.904,0,19.775,8.883,19.775,19.803C83.772,74.919,74.901,83.802,63.997,83.802z M63.997,50.285
		c-7.549,0-13.692,6.153-13.692,13.715s6.142,13.713,13.692,13.713c7.552,0,13.695-6.151,13.695-13.713S71.549,50.285,63.997,50.285
		z M108.064,83.802C97.16,83.802,88.29,74.919,88.29,64c0-10.92,8.87-19.803,19.775-19.803S127.839,53.08,127.839,64
		C127.839,74.919,118.968,83.802,108.064,83.802z M108.064,50.285c-7.552,0-13.695,6.153-13.695,13.715s6.142,13.713,13.695,13.713
		S121.759,71.562,121.759,64S115.617,50.285,108.064,50.285z M19.933,127.932c-10.901,0-19.772-8.883-19.772-19.803
		c0-10.919,8.87-19.802,19.772-19.802c10.904,0,19.775,8.883,19.775,19.802C39.707,119.049,30.837,127.932,19.933,127.932z
		 M19.933,94.416c-7.549,0-13.692,6.151-13.692,13.713c0,7.562,6.142,13.715,13.692,13.715c7.552,0,13.695-6.153,13.695-13.715
		C33.627,100.567,27.485,94.416,19.933,94.416z M63.997,127.932c-10.901,0-19.772-8.883-19.772-19.803
		c0-10.919,8.87-19.802,19.772-19.802c10.904,0,19.775,8.883,19.775,19.802C83.772,119.049,74.901,127.932,63.997,127.932z
		 M63.997,94.416c-7.549,0-13.692,6.151-13.692,13.713c0,7.562,6.142,13.715,13.692,13.715c7.552,0,13.695-6.153,13.695-13.715
		C77.692,100.567,71.549,94.416,63.997,94.416z M108.064,127.932c-10.904,0-19.775-8.883-19.775-19.803
		c0-10.919,8.87-19.802,19.775-19.802s19.775,8.883,19.775,19.802C127.839,119.049,118.968,127.932,108.064,127.932z
		 M108.064,94.416c-7.552,0-13.695,6.151-13.695,13.713c0,7.562,6.142,13.715,13.695,13.715s13.695-6.153,13.695-13.715
		C121.759,100.567,115.617,94.416,108.064,94.416z"/>
</g>
<g id="Layer_1">
</g>
</svg>
