<?xml version="1.0" encoding="iso-8859-1"?>
<!-- Generator: Adobe Illustrator 19.0.1, SVG Export Plug-In . SVG Version: 6.00 Build 0)  -->
<svg version="1.1" xmlns="http://www.w3.org/2000/svg" xmlns:xlink="http://www.w3.org/1999/xlink" x="0px" y="0px"
	 viewBox="0 0 128 128" style="enable-background:new 0 0 128 128;" xml:space="preserve">
<g id="_x32_0">
	<path style="fill-rule:evenodd;clip-rule:evenodd;fill:#212121;" d="M61.098,0.068h5.804v23.248h-5.804V0.068z M61.098,104.684
		h5.804v23.248h-5.804V104.684z M127.839,61.093v5.812h-23.214v-5.812H127.839z M23.375,61.093v5.812H0.161v-5.812H23.375z
		 M107.089,16.738l4.104,4.11L94.778,37.286l-4.104-4.11L107.089,16.738z M33.222,90.713l4.104,4.11l-16.415,16.438l-4.103-4.109
		L33.222,90.713z M111.193,107.153l-4.104,4.109L90.674,94.823l4.104-4.11L111.193,107.153z M37.326,33.176l-4.104,4.11
		L16.807,20.848l4.103-4.11L37.326,33.176z M64.001,96.525c-17.909,0-32.481-14.591-32.481-32.525s14.571-32.525,32.481-32.525
		c17.909,0,32.478,14.591,32.478,32.525S81.91,96.525,64.001,96.525z M64.001,37.286c-14.71,0-26.677,11.983-26.677,26.713
		s11.967,26.713,26.677,26.713c14.707,0,26.674-11.983,26.674-26.713S78.708,37.286,64.001,37.286z"/>
</g>
<g id="Layer_1">
</g>
</svg>
