<?xml version="1.0" encoding="iso-8859-1"?>
<!-- Generator: Adobe Illustrator 19.0.1, SVG Export Plug-In . SVG Version: 6.00 Build 0)  -->
<svg version="1.1" xmlns="http://www.w3.org/2000/svg" xmlns:xlink="http://www.w3.org/1999/xlink" x="0px" y="0px"
	 viewBox="0 0 128 128" style="enable-background:new 0 0 128 128;" xml:space="preserve">
<g id="_x32_1">
	<path id="_x32_1_1_" style="fill-rule:evenodd;clip-rule:evenodd;fill:#212121;" d="M72.327,8.407
		c-18.18,0-34.279,8.812-44.41,22.349v-0.111L0.161,64l27.756,33.356v-0.111c10.131,13.537,26.229,22.349,44.41,22.349
		c30.67,0,55.512-24.878,55.512-55.593S102.997,8.407,72.327,8.407z M96.197,84.18l-3.969,3.975c-1.083,1.112-2.859,1.112-3.969,0
		L72.688,72.561L57.949,87.294c-1.082,1.084-2.831,1.084-3.914,0l-3.941-3.919c-1.083-1.084-1.083-2.863,0-3.947l14.738-14.732
		L50.622,50.463c-1.083-1.084-1.083-2.863,0-3.975l3.969-3.947c1.11-1.112,2.887-1.112,3.969,0l14.211,14.204l14.627-14.649
		c1.082-1.084,2.831-1.084,3.914,0l3.941,3.919c1.083,1.084,1.083,2.863,0,3.947L80.598,64.611l15.599,15.622
		C97.279,81.317,97.279,83.096,96.197,84.18z"/>
</g>
<g id="Layer_1">
</g>
</svg>
