<?xml version="1.0" encoding="iso-8859-1"?>
<!-- Generator: Adobe Illustrator 19.0.1, SVG Export Plug-In . SVG Version: 6.00 Build 0)  -->
<svg version="1.1" xmlns="http://www.w3.org/2000/svg" xmlns:xlink="http://www.w3.org/1999/xlink" x="0px" y="0px"
	 viewBox="0 0 128 128" style="enable-background:new 0 0 128 128;" xml:space="preserve">
<g id="_x32_9">
	<path style="fill:#212121;" d="M64,127.932c-35.202,0-63.839-28.68-63.839-63.932S28.798,0.068,64,0.068S127.839,28.748,127.839,64
		S99.202,127.932,64,127.932z M64,5.627C31.861,5.627,5.712,31.813,5.712,64S31.861,122.373,64,122.373S122.288,96.187,122.288,64
		S96.139,5.627,64,5.627z M97.307,64c0-1.535-1.241-2.78-2.776-2.78H33.468c-1.534,0-2.776,1.245-2.776,2.78s1.241,2.78,2.776,2.78
		h61.063C96.066,66.78,97.307,65.535,97.307,64z M66.776,94.576V33.424c0-1.535-1.241-2.78-2.776-2.78s-2.776,1.245-2.776,2.78
		v61.153c0,1.535,1.241,2.78,2.776,2.78S66.776,96.111,66.776,94.576z"/>
</g>
<g id="Layer_1">
</g>
</svg>
