<?xml version="1.0" encoding="iso-8859-1"?>
<!-- Generator: Adobe Illustrator 19.0.1, SVG Export Plug-In . SVG Version: 6.00 Build 0)  -->
<svg version="1.1" xmlns="http://www.w3.org/2000/svg" xmlns:xlink="http://www.w3.org/1999/xlink" x="0px" y="0px"
	 viewBox="0 0 128 128" style="enable-background:new 0 0 128 128;" xml:space="preserve">
<g id="_x33_">
	<path id="_x33__2_" style="fill-rule:evenodd;clip-rule:evenodd;fill:#212121;" d="M0,42.162h30.53l43.611-30.573v104.823
		L30.53,85.838H0V42.162z M128,62.903c0,13.24-4.667,26.055-13.141,36.086c-0.541,0.639-1.305,0.967-2.073,0.967
		c-0.631,0-1.264-0.22-1.779-0.67c-1.144-1-1.275-2.755-0.292-3.919c7.624-9.023,11.823-20.553,11.823-32.463
		c0-12.131-4.337-23.822-12.212-32.919c-0.998-1.152-0.888-2.907,0.244-3.922c1.131-1.014,2.857-0.903,3.853,0.249
		C123.179,36.423,128,49.418,128,62.903z M97.481,39.317c6.06,6.361,9.397,14.737,9.397,23.585c0,8.573-3.157,16.758-8.893,23.047
		c-0.538,0.591-1.269,0.888-2.002,0.888c-0.665,0-1.332-0.245-1.857-0.741c-1.105-1.044-1.171-2.802-0.145-3.927
		c4.794-5.259,7.435-12.101,7.435-19.267c0-7.397-2.791-14.399-7.858-19.718c-1.049-1.102-1.023-2.861,0.061-3.929
		C94.702,38.188,96.432,38.216,97.481,39.317z"/>
</g>
<g id="Layer_1">
</g>
</svg>
