<?xml version="1.0" encoding="iso-8859-1"?>
<!-- Generator: Adobe Illustrator 19.0.1, SVG Export Plug-In . SVG Version: 6.00 Build 0)  -->
<svg version="1.1" xmlns="http://www.w3.org/2000/svg" xmlns:xlink="http://www.w3.org/1999/xlink" x="0px" y="0px"
	 viewBox="0 0 128 128" style="enable-background:new 0 0 128 128;" xml:space="preserve">
<g id="_x33_2">
	<path style="fill-rule:evenodd;clip-rule:evenodd;fill:#212121;" d="M69.54,93.187H58.437h-5.551v-2.78h5.551V48.712h-5.551v-2.78
		h5.551H69.54v2.78v41.696h5.551v2.78H69.54z M63.988,38.115c-4.216,0-7.633-3.422-7.633-7.644c0-4.221,3.417-7.644,7.633-7.644
		s7.633,3.422,7.633,7.644C71.621,34.693,68.204,38.115,63.988,38.115z M64,127.932c-35.201,0-63.839-28.68-63.839-63.932
		S28.799,0.068,64,0.068S127.839,28.748,127.839,64S99.201,127.932,64,127.932z M64,5.627C31.86,5.627,5.712,31.813,5.712,64
		S31.86,122.373,64,122.373S122.288,96.187,122.288,64S96.14,5.627,64,5.627z"/>
</g>
<g id="Layer_1">
</g>
</svg>
