<?xml version="1.0" encoding="iso-8859-1"?>
<!-- Generator: Adobe Illustrator 19.0.1, SVG Export Plug-In . SVG Version: 6.00 Build 0)  -->
<svg version="1.1" xmlns="http://www.w3.org/2000/svg" xmlns:xlink="http://www.w3.org/1999/xlink" x="0px" y="0px"
	 viewBox="0 0 128 128" style="enable-background:new 0 0 128 128;" xml:space="preserve">
<g id="_x33_4">
	<path style="fill:#212121;" d="M64,127.871c-35.201,0-63.839-28.652-63.839-63.87C0.161,28.782,28.799,0.129,64,0.129
		s63.839,28.654,63.839,63.872C127.839,99.219,99.201,127.871,64,127.871z M64,5.047c-32.493,0-58.928,26.447-58.928,58.954
		c0,32.507,26.436,58.952,58.928,58.952s58.928-26.445,58.928-58.952C122.928,31.493,96.493,5.047,64,5.047z M63.987,71.369H32.07
		v-4.913h31.917V19.788h4.91v46.669v4.913H63.987z"/>
</g>
<g id="Layer_1">
</g>
</svg>
