<?xml version="1.0" encoding="iso-8859-1"?>
<!-- Generator: Adobe Illustrator 19.0.1, SVG Export Plug-In . SVG Version: 6.00 Build 0)  -->
<svg version="1.1" xmlns="http://www.w3.org/2000/svg" xmlns:xlink="http://www.w3.org/1999/xlink" x="0px" y="0px"
	 viewBox="0 0 128 128" style="enable-background:new 0 0 128 128;" xml:space="preserve">
<g id="_x33_5">
	<path style="fill-rule:evenodd;clip-rule:evenodd;fill:#212121;" d="M98.536,93.317c35.289,0-55.563,0-69.072,0
		C13.281,93.317,0.161,80.191,0.161,64s13.119-29.317,29.303-29.317c16.183,0,29.303,13.126,29.303,29.317
		c0,10.684-5.731,20.005-14.267,25.129h38.999C74.964,84.005,69.232,74.684,69.232,64c0-16.191,13.12-29.317,29.304-29.317
		c16.184,0,29.303,13.126,29.303,29.317S114.72,93.317,98.536,93.317z M55.301,64c0-14.276-11.567-25.849-25.836-25.849
		S3.628,49.724,3.628,64s11.567,25.849,25.836,25.849c1.429,0,2.82-0.146,4.186-0.369l1.777-0.35
		C46.817,86.432,55.301,76.219,55.301,64z M98.536,38.151C84.267,38.151,72.7,49.724,72.7,64s11.567,25.849,25.836,25.849
		c14.269,0,25.836-11.573,25.836-25.849S112.805,38.151,98.536,38.151z"/>
</g>
<g id="Layer_1">
</g>
</svg>
