<?xml version="1.0" encoding="iso-8859-1"?>
<!-- Generator: Adobe Illustrator 19.0.1, SVG Export Plug-In . SVG Version: 6.00 Build 0)  -->
<svg version="1.1" xmlns="http://www.w3.org/2000/svg" xmlns:xlink="http://www.w3.org/1999/xlink" x="0px" y="0px"
	 viewBox="0 0 128 128" style="enable-background:new 0 0 128 128;" xml:space="preserve">
<g id="_x33_6">
	<path style="fill-rule:evenodd;clip-rule:evenodd;fill:#212121;" d="M34.982,80.467V49.47l7.738,9.687h17.41v-1.938l-9.673-25.185
		h5.804l21.28,27.123H98.82c0,0,5.804,0.831,5.804,5.811c0,4.981-5.804,5.812-5.804,5.812H77.541l-21.28,27.123h-5.804l9.673-25.186
		v-1.937H42.72L34.982,80.467z M64,127.932c-35.201,0-63.839-28.68-63.839-63.932C0.161,28.748,28.799,0.068,64,0.068
		s63.839,28.681,63.839,63.933C127.839,99.253,99.201,127.932,64,127.932z M64,3.942c-33.068,0-59.97,26.942-59.97,60.059
		c0,33.116,26.902,60.057,59.97,60.057s59.97-26.941,59.97-60.057C123.97,30.884,97.068,3.942,64,3.942z"/>
</g>
<g id="Layer_1">
</g>
</svg>
