<?xml version="1.0" encoding="iso-8859-1"?>
<!-- Generator: Adobe Illustrator 19.0.1, SVG Export Plug-In . SVG Version: 6.00 Build 0)  -->
<svg version="1.1" xmlns="http://www.w3.org/2000/svg" xmlns:xlink="http://www.w3.org/1999/xlink" x="0px" y="0px"
	 viewBox="0 0 128 128" style="enable-background:new 0 0 128 128;" xml:space="preserve">
<g id="_x33_7">
	<path style="fill-rule:evenodd;clip-rule:evenodd;fill:#212121;" d="M49.615,73.711c0,0,5.993-6.428,14.963-6.428
		c8.97,0,14.952,6.405,14.952,6.405l5.686-5.489c0,0-6.352-8.784-20.613-8.784S43.95,68.021,43.95,68.021L49.615,73.711z
		 M32.77,56.662c0,0,10.306-13.278,31.938-13.278c21.633,0,31.862,13.255,31.862,13.255l-5.696,5.728
		c0,0-10.62-11.184-26.333-11.184c-15.713,0-26.325,11.187-26.325,11.187L32.77,56.662z M64.597,89.581l-9.337-8.799
		c0,0,1.826-5.065,9.299-5.065c7.474,0,9.347,5.065,9.347,5.065L64.597,89.581z M64,127.932c-35.201,0-63.839-28.68-63.839-63.932
		C0.161,28.748,28.799,0.068,64,0.068s63.839,28.681,63.839,63.933C127.839,99.253,99.201,127.932,64,127.932z M64,3.942
		c-33.068,0-59.97,26.942-59.97,60.059c0,33.116,26.902,60.057,59.97,60.057s59.97-26.941,59.97-60.057
		C123.97,30.884,97.068,3.942,64,3.942z"/>
</g>
<g id="Layer_1">
</g>
</svg>
