<?xml version="1.0" encoding="iso-8859-1"?>
<!-- Generator: Adobe Illustrator 19.0.1, SVG Export Plug-In . SVG Version: 6.00 Build 0)  -->
<svg version="1.1" xmlns="http://www.w3.org/2000/svg" xmlns:xlink="http://www.w3.org/1999/xlink" x="0px" y="0px"
	 viewBox="0 0 128 128" style="enable-background:new 0 0 128 128;" xml:space="preserve">
<g id="_x33_8">
	<path style="fill:#212121;" d="M64,127.932c-35.201,0-63.839-28.68-63.839-63.932C0.161,28.748,28.799,0.068,64,0.068
		s63.839,28.681,63.839,63.933C127.839,99.253,99.201,127.932,64,127.932z M64,3.942c-33.068,0-59.97,26.942-59.97,60.059
		c0,33.116,26.902,60.057,59.97,60.057s59.97-26.941,59.97-60.057C123.97,30.884,97.068,3.942,64,3.942z M59.164,72.288V25.199
		l27.219,23.544L59.164,72.288z M64.967,37.9v21.687l12.537-10.844L64.967,37.9z M59.164,103.285V56.197l27.219,23.544
		L59.164,103.285z M64.967,68.897v21.687l12.537-10.844L64.967,68.897z M67.038,64.242L44.617,44.849l-3.793,4.399l17.335,14.995
		L40.824,79.237l3.793,4.399L67.038,64.242z"/>
</g>
<g id="Layer_1">
</g>
</svg>
