<?xml version="1.0" encoding="iso-8859-1"?>
<!-- Generator: Adobe Illustrator 19.0.1, SVG Export Plug-In . SVG Version: 6.00 Build 0)  -->
<svg version="1.1" xmlns="http://www.w3.org/2000/svg" xmlns:xlink="http://www.w3.org/1999/xlink" x="0px" y="0px"
	 viewBox="0 0 128 128" style="enable-background:new 0 0 128 128;" xml:space="preserve">
<g id="_x33_9">
	<path style="fill:#212121;" d="M84.707,79.897c-17.583,0-31.837-14.148-31.837-31.601c0-7.201,2.432-13.836,6.518-19.151
		c-14.176,4.426-24.459,17.574-24.459,33.106c0,19.165,15.652,34.7,34.959,34.7c14.998,0,27.788-9.376,32.751-22.544
		C97.531,77.87,91.358,79.897,84.707,79.897z M64,127.932c-35.201,0-63.839-28.68-63.839-63.932C0.161,28.748,28.799,0.068,64,0.068
		s63.839,28.681,63.839,63.933C127.839,99.253,99.201,127.932,64,127.932z M64,3.942c-33.068,0-59.97,26.942-59.97,60.059
		c0,33.116,26.902,60.057,59.97,60.057s59.97-26.941,59.97-60.057C123.97,30.884,97.068,3.942,64,3.942z"/>
</g>
<g id="Layer_1">
</g>
</svg>
