<?xml version="1.0" encoding="iso-8859-1"?>
<!-- Generator: Adobe Illustrator 19.0.1, SVG Export Plug-In . SVG Version: 6.00 Build 0)  -->
<svg version="1.1" xmlns="http://www.w3.org/2000/svg" xmlns:xlink="http://www.w3.org/1999/xlink" x="0px" y="0px"
	 viewBox="0 0 128 128" style="enable-background:new 0 0 128 128;" xml:space="preserve">
<g id="_x34_">
	<path id="_x34__2_" style="fill-rule:evenodd;clip-rule:evenodd;fill:#212121;" d="M0.161,45.76h26.733l38.187-26.771v91.785
		l-38.187-26.77H0.161V45.76z M127.839,61.338c0,15.629-5.407,30.843-15.223,42.837c-0.474,0.577-1.154,0.876-1.839,0.876
		c-0.54,0-1.082-0.185-1.529-0.563c-1.015-0.86-1.153-2.394-0.308-3.427c9.103-11.122,14.116-25.229,14.116-39.723
		c0-14.674-5.126-28.917-14.434-40.107c-0.853-1.026-0.727-2.561,0.28-3.429c1.009-0.868,2.518-0.74,3.37,0.285
		C122.311,30.154,127.839,45.515,127.839,61.338z M109.662,61.338c0,11.593-4.087,22.814-11.507,31.598
		c-0.473,0.559-1.143,0.846-1.815,0.846c-0.553,0-1.107-0.193-1.558-0.587c-1.002-0.876-1.116-2.412-0.256-3.431
		c6.676-7.9,10.352-17.996,10.352-28.426c0-10.622-3.797-20.859-10.693-28.824c-0.874-1.009-0.778-2.546,0.214-3.434
		c0.99-0.888,2.502-0.791,3.374,0.218C105.441,38.152,109.662,49.53,109.662,61.338z M82.939,40.686
		c5.306,5.57,8.228,12.904,8.228,20.652c0,7.507-2.765,14.674-7.787,20.18c-0.471,0.517-1.111,0.778-1.753,0.778
		c-0.582,0-1.166-0.214-1.626-0.649c-0.968-0.914-1.025-2.453-0.127-3.438c4.198-4.604,6.511-10.596,6.511-16.871
		c0-6.477-2.444-12.608-6.881-17.265c-0.919-0.965-0.895-2.505,0.053-3.44C80.506,39.697,82.02,39.721,82.939,40.686z"/>
</g>
<g id="Layer_1">
</g>
</svg>
