<?xml version="1.0" encoding="iso-8859-1"?>
<!-- Generator: Adobe Illustrator 19.0.1, SVG Export Plug-In . SVG Version: 6.00 Build 0)  -->
<svg version="1.1" xmlns="http://www.w3.org/2000/svg" xmlns:xlink="http://www.w3.org/1999/xlink" x="0px" y="0px"
	 viewBox="0 0 128 128" style="enable-background:new 0 0 128 128;" xml:space="preserve">
<g id="_x34_0">
	<path style="fill:#212121;" d="M64,127.932c-35.201,0-63.839-28.68-63.839-63.932C0.161,28.748,28.799,0.068,64,0.068
		s63.839,28.681,63.839,63.933C127.839,99.253,99.201,127.932,64,127.932z M64,3.942c-33.068,0-59.97,26.942-59.97,60.059
		c0,33.116,26.902,60.057,59.97,60.057s59.97-26.941,59.97-60.057C123.97,30.884,97.068,3.942,64,3.942z M51.791,59.856h25.548
		v17.59H51.791V59.856z M59.775,59.856v-7.995c0,0,1.885-3.198,4.791-3.198c2.905,0,4.79,3.198,4.79,3.198v7.995h4.791v-7.995
		c0,0-1.406-7.996-9.58-7.996c-8.175,0-9.581,7.996-9.581,7.996v7.995H59.775z M98.085,59.797
		c-0.797-8.244-4.623-15.88-10.776-21.51c-6.212-5.684-14.264-8.814-22.672-8.814c-18.532,0-33.609,15.064-33.609,33.581
		c0,18.517,15.077,33.581,33.609,33.581c9.419,0,18.473-4.003,24.84-10.983c0.07-0.078,0.107-0.18,0.102-0.285
		c-0.006-0.105-0.052-0.203-0.131-0.273l-3.514-3.143c-0.159-0.143-0.406-0.131-0.552,0.028c-5.323,5.819-12.884,9.157-20.745,9.157
		c-15.497,0-28.106-12.598-28.106-28.083S49.14,34.972,64.637,34.972c14.352,0,26.359,10.74,27.932,24.983
		c0.022,0.199,0.19,0.35,0.391,0.35h4.742c0.003,0,0.006,0,0.006,0c0.219,0,0.395-0.176,0.395-0.393
		C98.102,59.872,98.097,59.834,98.085,59.797z M106.077,59.856L95.702,77.442L85.327,59.856"/>
</g>
<g id="Layer_1">
</g>
</svg>
