<?xml version="1.0" encoding="iso-8859-1"?>
<!-- Generator: Adobe Illustrator 19.0.1, SVG Export Plug-In . SVG Version: 6.00 Build 0)  -->
<svg version="1.1" xmlns="http://www.w3.org/2000/svg" xmlns:xlink="http://www.w3.org/1999/xlink" x="0px" y="0px"
	 viewBox="0 0 128 128" style="enable-background:new 0 0 128 128;" xml:space="preserve">
<g id="_x34_1">
	<path style="fill:#212121;" d="M114.159,8.059H75.4c-4.765,0-8.96,2.443-11.4,6.142c-2.44-3.699-6.635-6.142-11.4-6.142H13.841
		c-7.547,0-13.68,6.142-13.68,13.7V94.87c0,7.558,6.133,13.723,13.68,13.723h36.821c6.452,0.206,7.227,8.859,7.25,9.224l0.16,2.101
		h3.648l2.28,0.023l2.28-0.023h3.648l0.16-2.101c0-0.091,0.73-9.019,7.159-9.224h36.913c7.547,0,13.68-6.165,13.68-13.723V21.759
		C127.839,14.201,121.706,8.059,114.159,8.059z M61.72,113.616c-1.322-4.384-4.537-9.384-10.967-9.59H13.841
		c-5.039,0-9.12-4.11-9.12-9.156V21.759c0-5.046,4.081-9.133,9.12-9.133H52.6c5.039,0,9.12,4.087,9.12,9.133V113.616z
		 M123.279,94.87c0,5.046-4.081,9.156-9.12,9.156H77.178c-6.384,0.206-9.576,5.206-10.898,9.59V21.759
		c0-5.046,4.081-9.133,9.12-9.133h38.759c5.039,0,9.12,4.087,9.12,9.133V94.87z"/>
</g>
<g id="Layer_1">
</g>
</svg>
