<?xml version="1.0" encoding="iso-8859-1"?>
<!-- Generator: Adobe Illustrator 19.0.1, SVG Export Plug-In . SVG Version: 6.00 Build 0)  -->
<svg version="1.1" xmlns="http://www.w3.org/2000/svg" xmlns:xlink="http://www.w3.org/1999/xlink" x="0px" y="0px"
	 viewBox="0 0 128 128" style="enable-background:new 0 0 128 128;" xml:space="preserve">
<g id="_x34_2">
	<path style="fill-rule:evenodd;clip-rule:evenodd;fill:#212121;" d="M46.667,18.124h34.666v7.44H46.667V18.124z M56.571,102.437
		h14.857v4.959H56.571V102.437z M46.666,28.043l9.905,16.119v55.796h14.857V44.162l9.905-16.119H46.666z M68.952,67.72
		c0,2.74-2.216,4.96-4.952,4.96c-2.736,0-4.952-2.219-4.952-4.96V60.28c0-2.74,2.216-4.96,4.952-4.96
		c2.736,0,4.952,2.219,4.952,4.96V67.72z M63.999,64.211c-1.61,0-2.922,1.314-2.922,2.926c0,1.624,1.312,2.926,2.922,2.926
		c1.609,0,2.922-1.302,2.922-2.926C66.921,65.525,65.609,64.211,63.999,64.211z M99.078,127.932H28.921
		c-15.859,0-28.76-12.92-28.76-28.802V28.869c0-15.882,12.901-28.802,28.76-28.802h70.157c15.859,0,28.761,12.92,28.761,28.802
		v70.261C127.839,115.012,114.937,127.932,99.078,127.932z M28.921,3.942C15.196,3.942,4.03,15.125,4.03,28.869v70.261
		c0,13.745,11.166,24.927,24.891,24.927h70.157c13.726,0,24.892-11.182,24.892-24.927V28.869c0-13.745-11.166-24.927-24.892-24.927
		H28.921z"/>
</g>
<g id="Layer_1">
</g>
</svg>
