<?xml version="1.0" encoding="iso-8859-1"?>
<!-- Generator: Adobe Illustrator 19.0.1, SVG Export Plug-In . SVG Version: 6.00 Build 0)  -->
<svg version="1.1" xmlns="http://www.w3.org/2000/svg" xmlns:xlink="http://www.w3.org/1999/xlink" x="0px" y="0px"
	 viewBox="0 0 128 128" style="enable-background:new 0 0 128 128;" xml:space="preserve">
<g id="_x34_3">
	<path style="fill-rule:evenodd;clip-rule:evenodd;fill:#212121;" d="M65.531,20.467c-23.167,0-41.937,18.798-41.937,41.999
		c0,23.201,18.771,41.999,41.937,41.999s41.937-18.798,41.937-41.999C107.468,39.266,88.698,20.467,65.531,20.467z M65.198,97.065
		c-19.147,0-34.721-15.598-34.721-34.787c0-9.109,3.5-17.726,9.848-24.258l2.473,2.404c-5.727,5.894-8.879,13.657-8.879,21.854
		c0,17.277,14.027,31.34,31.279,31.34s31.28-14.062,31.28-31.34c0-16.713-12.943-30.37-29.559-31.282v12.6h-2.805V27.535h2.444
		C85.299,28.288,99.92,43.552,99.92,62.278C99.92,81.467,84.345,97.065,65.198,97.065z M48.409,45.203l21.388,13.295
		c0,0,4.136,4.287-0.39,8.226c-4.512,3.925-8.084-1.347-8.084-1.347L48.409,45.203z M99.078,127.932H28.921
		c-15.859,0-28.76-12.92-28.76-28.802V28.869c0-15.882,12.901-28.802,28.76-28.802h70.157c15.859,0,28.761,12.92,28.761,28.802
		v70.261C127.839,115.012,114.937,127.932,99.078,127.932z M28.921,3.942C15.196,3.942,4.03,15.125,4.03,28.869v70.261
		c0,13.745,11.166,24.927,24.891,24.927h70.157c13.726,0,24.892-11.182,24.892-24.927V28.869c0-13.745-11.166-24.927-24.892-24.927
		H28.921z"/>
</g>
<g id="Layer_1">
</g>
</svg>
