<?xml version="1.0" encoding="iso-8859-1"?>
<!-- Generator: Adobe Illustrator 19.0.1, SVG Export Plug-In . SVG Version: 6.00 Build 0)  -->
<svg version="1.1" xmlns="http://www.w3.org/2000/svg" xmlns:xlink="http://www.w3.org/1999/xlink" x="0px" y="0px"
	 viewBox="0 0 128 128" style="enable-background:new 0 0 128 128;" xml:space="preserve">
<g id="_x34_4">
	<path style="fill-rule:evenodd;clip-rule:evenodd;fill:#212121;" d="M90.035,19.522H37.964c-3.385,0-6.126,2.745-6.126,6.135
		v76.687c0,3.39,2.741,6.135,6.126,6.135h52.071c3.385,0,6.126-2.745,6.126-6.135V25.657C96.161,22.267,93.419,19.522,90.035,19.522
		z M53.279,100.81H39.495V87.006h13.783V100.81z M53.279,82.405H39.495V68.601h13.783V82.405z M53.279,64H39.495V50.196h13.783V64z
		 M71.657,100.81H57.873V87.006h13.783V100.81z M71.657,82.405H57.873V68.601h13.783V82.405z M71.657,64H57.873V50.196h13.783V64z
		 M88.503,100.81H76.251V68.601h12.252V100.81z M88.503,64H76.251V50.196h12.252V64z M88.503,40.994H39.495V30.258h49.008V40.994z
		 M99.078,127.932H28.921c-15.859,0-28.76-12.92-28.76-28.802V28.869c0-15.882,12.901-28.802,28.76-28.802h70.157
		c15.859,0,28.761,12.92,28.761,28.802v70.261C127.839,115.012,114.937,127.932,99.078,127.932z M28.921,3.942
		C15.196,3.942,4.03,15.125,4.03,28.869v70.261c0,13.745,11.166,24.927,24.891,24.927h70.157c13.726,0,24.892-11.182,24.892-24.927
		V28.869c0-13.745-11.166-24.927-24.892-24.927H28.921z"/>
</g>
<g id="Layer_1">
</g>
</svg>
