<?xml version="1.0" encoding="iso-8859-1"?>
<!-- Generator: Adobe Illustrator 19.0.1, SVG Export Plug-In . SVG Version: 6.00 Build 0)  -->
<svg version="1.1" xmlns="http://www.w3.org/2000/svg" xmlns:xlink="http://www.w3.org/1999/xlink" x="0px" y="0px"
	 viewBox="0 0 128 128" style="enable-background:new 0 0 128 128;" xml:space="preserve">
<g id="_x34_5">
	<path style="fill-rule:evenodd;clip-rule:evenodd;fill:#212121;" d="M105.35,37.926H90.035c0,0,0,0-0.015,0
		c-0.23,0-4.503-0.107-8.056-7.27c-1.899-3.819-7.259-3.466-7.259-3.466H53.279c0,0-4.977-0.103-7.076,3.42
		c-3.124,5.245-5.743,7.117-8.239,7.316H22.649c-3.385,0-6.126,2.745-6.126,6.135v47.546c0,3.39,2.741,6.135,6.126,6.135h82.701
		c3.385,0,6.126-2.745,6.126-6.135V44.061C111.476,40.672,108.734,37.926,105.35,37.926z M63.999,88.54
		c-11.838,0-21.441-9.617-21.441-21.472c0-11.856,9.603-21.472,21.441-21.472S85.44,55.212,85.44,67.067
		C85.44,78.923,75.838,88.54,63.999,88.54z M90.8,50.196c-1.271,0-2.297-1.028-2.297-2.301c0-1.273,1.026-2.301,2.297-2.301
		c1.271,0,2.297,1.028,2.297,2.301C93.098,49.169,92.072,50.196,90.8,50.196z M27.243,30.258h9.189v4.602h-9.189V30.258z
		 M63.999,50.196c-9.296,0-16.846,7.561-16.846,16.871c0,9.325,7.55,16.871,16.846,16.871c9.312,0,16.846-7.546,16.846-16.871
		C80.846,57.758,73.311,50.196,63.999,50.196z M99.078,127.932H28.921c-15.859,0-28.76-12.92-28.76-28.802V28.869
		c0-15.882,12.901-28.802,28.76-28.802h70.157c15.859,0,28.761,12.92,28.761,28.802v70.261
		C127.839,115.012,114.937,127.932,99.078,127.932z M28.921,3.942C15.196,3.942,4.03,15.125,4.03,28.869v70.261
		c0,13.745,11.166,24.927,24.891,24.927h70.157c13.726,0,24.892-11.182,24.892-24.927V28.869c0-13.745-11.166-24.927-24.892-24.927
		H28.921z"/>
</g>
<g id="Layer_1">
</g>
</svg>
