<?xml version="1.0" encoding="iso-8859-1"?>
<!-- Generator: Adobe Illustrator 19.0.1, SVG Export Plug-In . SVG Version: 6.00 Build 0)  -->
<svg version="1.1" xmlns="http://www.w3.org/2000/svg" xmlns:xlink="http://www.w3.org/1999/xlink" x="0px" y="0px"
	 viewBox="0 0 128 128" style="enable-background:new 0 0 128 128;" xml:space="preserve">
<g id="_x34_6">
	<path id="_x34_6_2_" style="fill-rule:evenodd;clip-rule:evenodd;fill:#212121;" d="M61.096,2.895v13.776
		c0,1.582,1.295,2.828,2.874,2.826c0.01,0,0.02,0,0.029,0c0.01,0,0.02,0,0.029,0c1.579,0.001,2.874-1.245,2.874-2.826V2.895
		c0-1.561-1.264-2.827-2.823-2.827H63.92C62.36,0.068,61.096,1.333,61.096,2.895z M64,108.502c-0.01,0-0.02,0-0.029,0
		c-1.579-0.001-2.874,1.245-2.874,2.826v13.776c0,1.561,1.264,2.827,2.823,2.827h0.161c1.559,0,2.823-1.266,2.823-2.827v-13.776
		c0-1.582-1.295-2.828-2.874-2.826C64.02,108.502,64.01,108.502,64,108.502z M111.259,61.092c-1.579,0-2.823,1.297-2.822,2.878
		c0,0.01,0,0.02,0,0.03c0,0.01,0,0.02,0,0.029c-0.001,1.581,1.243,2.878,2.822,2.878h13.756c1.559,0,2.823-1.266,2.823-2.827V63.92
		c0-1.561-1.264-2.827-2.823-2.827H111.259z M16.741,61.092H2.984c-1.559,0-2.823,1.266-2.823,2.827v0.161
		c0,1.561,1.264,2.827,2.823,2.827h13.757c1.579,0,2.823-1.297,2.822-2.878c0-0.01,0-0.02,0-0.029c0-0.01,0-0.02,0-0.03
		C19.564,62.389,18.32,61.092,16.741,61.092z M105.065,18.773l-9.676,9.69c-1.119,1.12-1.112,2.931,0.008,4.05
		c0.017,0.017,0.035,0.035,0.052,0.052c1.119,1.122,2.926,1.128,4.045,0.006l9.669-9.697c1.118-1.121,1.117-2.936-0.001-4.056
		l-0.045-0.045C107.998,17.652,106.184,17.652,105.065,18.773z M28.515,95.436l-9.676,9.69c-1.119,1.121-1.119,2.937,0,4.058
		l0.045,0.045c1.118,1.12,2.931,1.121,4.05,0.001l9.683-9.683c1.12-1.12,1.114-2.93-0.006-4.051
		c-0.017-0.017-0.035-0.035-0.052-0.052C31.441,94.322,29.633,94.315,28.515,95.436z M95.452,95.438c-0.02,0.02-0.04,0.04-0.06,0.06
		c-1.121,1.12-1.128,2.93-0.007,4.05l9.681,9.682c1.119,1.119,2.932,1.119,4.05-0.001l0.047-0.047
		c1.118-1.12,1.119-2.936,0.001-4.056l-9.668-9.695C98.378,94.309,96.57,94.316,95.452,95.438z M18.883,18.773l-0.044,0.044
		c-1.119,1.121-1.119,2.937,0,4.058l9.671,9.685c1.119,1.121,2.926,1.113,4.044-0.008c0.015-0.015,0.029-0.029,0.044-0.044
		c1.12-1.12,1.127-2.929,0.008-4.05l-9.671-9.685C21.816,17.652,20.002,17.652,18.883,18.773z M64,27.833
		c-19.936,0-36.115,16.202-36.115,36.168c0,19.989,16.179,36.167,36.115,36.167c19.959,0,36.115-16.179,36.115-36.167
		C100.115,44.035,83.959,27.833,64,27.833z M64.909,91.813c-15.83,0-28.681-12.744-28.681-28.471
		c0-12.744,8.433-23.515,20.072-27.156c-3.358,4.374-5.353,9.81-5.353,15.727c0,14.311,11.69,25.917,26.106,25.917
		c5.479,0,10.528-1.669,14.72-4.501C87.708,84.127,77.205,91.813,64.909,91.813z"/>
</g>
<g id="Layer_1">
</g>
</svg>
