<?xml version="1.0" encoding="iso-8859-1"?>
<!-- Generator: Adobe Illustrator 19.0.1, SVG Export Plug-In . SVG Version: 6.00 Build 0)  -->
<svg version="1.1" xmlns="http://www.w3.org/2000/svg" xmlns:xlink="http://www.w3.org/1999/xlink" x="0px" y="0px"
	 viewBox="0 0 128 128" style="enable-background:new 0 0 128 128;" xml:space="preserve">
<g id="_x34_7">
	<path style="fill:#212121;" d="M127.839,104.297h-6.313V66.07C121.526,34.304,95.72,8.46,64,8.46S6.474,34.304,6.474,66.07v38.228
		H0.161V66.07C0.161,30.818,28.799,2.138,64,2.138s63.839,28.68,63.839,63.931V104.297z M21.553,74.167h-0.029
		c-3.465,0-6.695,1.088-9.396,2.941v45.843c2.701,1.823,5.931,2.911,9.396,2.911h0.029c9.19,0,16.737-7.557,16.737-16.791V90.928
		C38.289,81.724,30.743,74.167,21.553,74.167z M89.713,90.928v18.143c0,9.233,7.546,16.791,16.737,16.791h0.029
		c3.465,0,6.695-1.088,9.396-2.911V77.107c-2.701-1.853-5.931-2.941-9.396-2.941h-0.029C97.259,74.167,89.713,81.724,89.713,90.928z
		"/>
</g>
<g id="Layer_1">
</g>
</svg>
