<?xml version="1.0" encoding="iso-8859-1"?>
<!-- Generator: Adobe Illustrator 19.0.1, SVG Export Plug-In . SVG Version: 6.00 Build 0)  -->
<svg version="1.1" xmlns="http://www.w3.org/2000/svg" xmlns:xlink="http://www.w3.org/1999/xlink" x="0px" y="0px"
	 viewBox="0 0 128 128" style="enable-background:new 0 0 128 128;" xml:space="preserve">
<g id="_x34_8">
	<path style="fill-rule:evenodd;clip-rule:evenodd;fill:#212121;" d="M115.501,6.9v90.453c0,0.281,0,0.588-0.051,0.895
		c-0.638,6.675-6.103,12.915-13.968,15.19c-9.831,2.813-19.765-1.688-22.165-10.101c-2.4-8.388,3.652-17.467,13.483-20.28
		c4.367-1.253,11.312-1.074,15.041,0.256V27.896L49.26,37.92v73.984h-0.102c-0.638,6.675-6.103,12.94-13.968,15.191
		c-9.831,2.813-19.765-1.688-22.165-10.076c-2.4-8.388,3.652-17.492,13.509-20.305c4.367-1.253,11.338-1.048,15.066,0.281V18.127
		c0-3.325-0.179-6.163,3.09-6.726l62.742-11.227C111.645-0.567,115.501,2.655,115.501,6.9z"/>
</g>
<g id="Layer_1">
</g>
</svg>
