<?xml version="1.0" encoding="iso-8859-1"?>
<!-- Generator: Adobe Illustrator 19.0.1, SVG Export Plug-In . SVG Version: 6.00 Build 0)  -->
<svg version="1.1" xmlns="http://www.w3.org/2000/svg" xmlns:xlink="http://www.w3.org/1999/xlink" x="0px" y="0px"
	 viewBox="0 0 128 128" style="enable-background:new 0 0 128 128;" xml:space="preserve">
<g id="_x35_">
	<path style="fill:#212121;" d="M115.851,106.059l10.17,10.422l-5.665,5.515l-10.091-10.317L108,109.331L97.803,98.908
		c-0.079,0.132-0.184,0.238-0.29,0.369c-0.501,0.581-1.186,0.871-1.871,0.871c-0.553,0-1.107-0.185-1.581-0.607
		c-1.028-0.871-1.133-2.454-0.263-3.483c0.184-0.238,0.369-0.449,0.553-0.686l-9.933-10.185c-0.632,0.844-1.291,1.662-2.002,2.427
		c-0.474,0.528-1.133,0.792-1.792,0.792c-0.606,0-1.186-0.211-1.66-0.66c-1.001-0.923-1.054-2.507-0.132-3.509
		c0.764-0.844,1.475-1.715,2.081-2.639L66.477,66.823v47.046l-39.02-27.362H0.161V47.43h27.296l11.935-8.364l-26.874-27.52
		l5.665-5.541l27.77,28.47l20.524-14.38v35.383l18.048,18.47c0.632-2.243,0.948-4.565,0.948-6.939
		c0-6.623-2.477-12.876-7.008-17.626c-0.948-1.003-0.922-2.559,0.053-3.536c0.949-0.95,2.503-0.923,3.452,0.053
		c5.427,5.699,8.405,13.193,8.405,21.109c0,3.773-0.685,7.467-2.002,10.924l10.486,10.713c3.61-6.57,5.533-14.011,5.533-21.636
		c0-10.844-3.899-21.32-10.934-29.446c-0.896-1.029-0.79-2.612,0.211-3.509c1.028-0.897,2.556-0.818,3.452,0.211
		c7.825,9.05,12.146,20.686,12.146,32.745c0,8.971-2.398,17.705-6.85,25.304l9.907,10.132c6.877-10.422,10.618-22.797,10.618-35.436
		c0-14.987-5.217-29.552-14.728-40.977c-0.869-1.055-0.764-2.612,0.264-3.509c1.054-0.871,2.582-0.739,3.451,0.29
		c10.249,12.348,15.914,28.022,15.914,44.196C127.839,80.992,123.597,94.634,115.851,106.059z"/>
</g>
<g id="Layer_1">
</g>
</svg>
