<?xml version="1.0" encoding="iso-8859-1"?>
<!-- Generator: Adobe Illustrator 19.0.1, SVG Export Plug-In . SVG Version: 6.00 Build 0)  -->
<svg version="1.1" xmlns="http://www.w3.org/2000/svg" xmlns:xlink="http://www.w3.org/1999/xlink" x="0px" y="0px"
	 viewBox="0 0 128 128" style="enable-background:new 0 0 128 128;" xml:space="preserve">
<g id="_x35_0">
	<path style="fill:#212121;" d="M54.707,63.88c0-5.136,4.157-9.299,9.286-9.299s9.286,4.163,9.286,9.299s-4.157,9.299-9.286,9.299
		S54.707,69.016,54.707,63.88z M109.268,63.872c0,15.228-7.545,28.735-19.082,36.941l-2.368-3.999
		c10.168-7.393,16.807-19.412,16.807-32.943c0-13.391-6.5-25.294-16.482-32.71l2.368-3.999
		C101.862,35.393,109.268,48.784,109.268,63.872z M41.25,97.582l-2.345,3.975c-12.164-8.114-20.173-21.993-20.173-37.685
		c0-15.553,7.87-29.293,19.825-37.453l2.368,3.975c-10.586,7.346-17.55,19.621-17.55,33.477
		C23.375,77.868,30.479,90.236,41.25,97.582z M91.857,63.872c0,8.881-4.155,16.785-10.609,21.877l-2.391-4.022
		c5.107-4.254,8.357-10.671,8.357-17.855c0-7.021-3.134-13.321-8.055-17.599l2.414-4.022C87.841,47.366,91.857,55.154,91.857,63.872
		z M50.188,82.54l-2.391,4.022c-7.057-5.068-11.654-13.344-11.654-22.69c0-9.183,4.458-17.366,11.329-22.458l2.391,4.022
		c-5.525,4.278-9.077,10.95-9.077,18.436C40.786,71.521,44.477,78.309,50.188,82.54z M127.839,63.872
		c0,22.016-11.166,41.475-28.135,52.959l-2.368-3.999c15.6-10.671,25.86-28.642,25.86-48.961c0-20.179-10.121-38.034-25.536-48.728
		l2.368-3.975C116.812,22.676,127.839,42.019,127.839,63.872z M31.779,113.554l-2.391,4.022
		C11.815,106.184,0.161,86.376,0.161,63.872c0-22.341,11.514-42.056,28.902-53.448l2.368,3.975
		C15.39,25.001,4.804,43.228,4.804,63.872C4.804,84.656,15.552,102.999,31.779,113.554z M91.857,63.872
		c0,8.881-4.155,16.785-10.609,21.877l-2.391-4.022c5.107-4.254,8.357-10.671,8.357-17.855c0-7.021-3.134-13.321-8.055-17.599
		l2.414-4.022C87.841,47.366,91.857,55.154,91.857,63.872z M50.188,82.54l-2.391,4.022c-7.057-5.068-11.654-13.344-11.654-22.69
		c0-9.183,4.458-17.366,11.329-22.458l2.391,4.022c-5.525,4.278-9.077,10.95-9.077,18.436C40.786,71.521,44.477,78.309,50.188,82.54
		z M109.268,63.872c0,15.228-7.545,28.735-19.082,36.941l-2.368-3.999c10.168-7.393,16.807-19.412,16.807-32.943
		c0-13.391-6.5-25.294-16.482-32.71l2.368-3.999C101.862,35.393,109.268,48.784,109.268,63.872z M41.25,97.582l-2.345,3.975
		c-12.164-8.114-20.173-21.993-20.173-37.685c0-15.553,7.87-29.293,19.825-37.453l2.368,3.975
		c-10.586,7.346-17.55,19.621-17.55,33.477C23.375,77.868,30.479,90.236,41.25,97.582z M91.857,63.872
		c0,8.881-4.155,16.785-10.609,21.877l-2.391-4.022c5.107-4.254,8.357-10.671,8.357-17.855c0-7.021-3.134-13.321-8.055-17.599
		l2.414-4.022C87.841,47.366,91.857,55.154,91.857,63.872z M50.188,82.54l-2.391,4.022c-7.057-5.068-11.654-13.344-11.654-22.69
		c0-9.183,4.458-17.366,11.329-22.458l2.391,4.022c-5.525,4.278-9.077,10.95-9.077,18.436C40.786,71.521,44.477,78.309,50.188,82.54
		z M109.268,63.872c0,15.228-7.545,28.735-19.082,36.941l-2.368-3.999c10.168-7.393,16.807-19.412,16.807-32.943
		c0-13.391-6.5-25.294-16.482-32.71l2.368-3.999C101.862,35.393,109.268,48.784,109.268,63.872z M41.25,97.582l-2.345,3.975
		c-12.164-8.114-20.173-21.993-20.173-37.685c0-15.553,7.87-29.293,19.825-37.453l2.368,3.975
		c-10.586,7.346-17.55,19.621-17.55,33.477C23.375,77.868,30.479,90.236,41.25,97.582z M91.857,63.872
		c0,8.881-4.155,16.785-10.609,21.877l-2.391-4.022c5.107-4.254,8.357-10.671,8.357-17.855c0-7.021-3.134-13.321-8.055-17.599
		l2.414-4.022C87.841,47.366,91.857,55.154,91.857,63.872z M50.188,82.54l-2.391,4.022c-7.057-5.068-11.654-13.344-11.654-22.69
		c0-9.183,4.458-17.366,11.329-22.458l2.391,4.022c-5.525,4.278-9.077,10.95-9.077,18.436C40.786,71.521,44.477,78.309,50.188,82.54
		z M91.857,63.872c0,8.881-4.155,16.785-10.609,21.877l-2.391-4.022c5.107-4.254,8.357-10.671,8.357-17.855
		c0-7.021-3.134-13.321-8.055-17.599l2.414-4.022C87.841,47.366,91.857,55.154,91.857,63.872z M50.188,82.54l-2.391,4.022
		c-7.057-5.068-11.654-13.344-11.654-22.69c0-9.183,4.458-17.366,11.329-22.458l2.391,4.022c-5.525,4.278-9.077,10.95-9.077,18.436
		C40.786,71.521,44.477,78.309,50.188,82.54z"/>
</g>
<g id="Layer_1">
</g>
</svg>
