<?xml version="1.0" encoding="iso-8859-1"?>
<!-- Generator: Adobe Illustrator 19.0.1, SVG Export Plug-In . SVG Version: 6.00 Build 0)  -->
<svg version="1.1" xmlns="http://www.w3.org/2000/svg" xmlns:xlink="http://www.w3.org/1999/xlink" x="0px" y="0px"
	 viewBox="0 0 128 128" style="enable-background:new 0 0 128 128;" xml:space="preserve">
<g id="_x35_1">
	<path style="fill:#212121;" d="M64.087,127.912c-22.078,0-43.577-11.465-55.387-31.95C-8.898,65.436,1.583,26.263,32.064,8.639l0,0
		c30.481-17.621,69.597-7.127,87.197,23.398c8.525,14.788,10.788,32.014,6.376,48.508c-4.413,16.493-14.975,30.278-29.741,38.815
		C85.87,125.157,74.908,127.911,64.087,127.912z M34.158,12.271C5.677,28.739-4.116,65.342,12.327,93.865
		c16.444,28.524,52.993,38.33,81.474,21.862c13.797-7.976,23.667-20.857,27.79-36.269c4.123-15.411,2.007-31.508-5.959-45.325
		C99.191,5.61,62.643-4.198,34.158,12.271L34.158,12.271z M92.379,43.819c-1.214-1.195-3.162-1.195-4.376,0L55.128,76.468L42,63.425
		c-0.607-0.608-1.403-0.923-2.199-0.923c-0.796,0-1.591,0.315-2.178,0.923c-1.214,1.195-1.214,3.145,0,4.341L52.951,83.01
		c1.214,1.195,3.162,1.195,4.376,0l35.052-34.83c0.607-0.608,0.9-1.384,0.9-2.181C93.279,45.223,92.986,44.427,92.379,43.819z"/>
</g>
<g id="Layer_1">
</g>
</svg>
