<?xml version="1.0" encoding="iso-8859-1"?>
<!-- Generator: Adobe Illustrator 19.0.1, SVG Export Plug-In . SVG Version: 6.00 Build 0)  -->
<svg version="1.1" xmlns="http://www.w3.org/2000/svg" xmlns:xlink="http://www.w3.org/1999/xlink" x="0px" y="0px"
	 viewBox="0 0 128 128" style="enable-background:new 0 0 128 128;" xml:space="preserve">
<g id="_x35_2">
	<path style="fill:#212121;" d="M64.108,127.932c-22.085,0.001-43.592-11.468-55.405-31.959
		C-8.901,65.438,1.584,26.253,32.074,8.622l0,0c30.488-17.629,69.62-7.13,87.223,23.406c17.603,30.536,7.119,69.722-23.371,87.351
		C85.897,125.177,74.933,127.932,64.108,127.932z M34.169,12.256C5.679,28.73-4.118,65.344,12.332,93.875
		c16.447,28.53,53.007,38.343,81.5,21.869c28.49-16.472,38.286-53.087,21.837-81.619C99.22,5.591,62.659-4.217,34.169,12.256
		L34.169,12.256z M80.29,42.878c1.29-1.293,3.382-1.293,4.673-0.001l0,0c1.29,1.292,1.29,3.388,0,4.68L47.581,84.993
		c-1.291,1.293-3.382,1.293-4.673,0l0,0c-1.29-1.293-1.29-3.387,0-4.68L80.29,42.878z M42.909,47.558
		c-1.291-1.293-1.291-3.387,0-4.68l0,0c1.291-1.292,3.383-1.292,4.673,0l37.381,37.436c1.29,1.292,1.29,3.387,0,4.679l0,0
		c-1.29,1.293-3.382,1.293-4.673,0L42.909,47.558z"/>
</g>
<g id="Layer_1">
</g>
</svg>
