<?xml version="1.0" encoding="iso-8859-1"?>
<!-- Generator: Adobe Illustrator 19.0.1, SVG Export Plug-In . SVG Version: 6.00 Build 0)  -->
<svg version="1.1" xmlns="http://www.w3.org/2000/svg" xmlns:xlink="http://www.w3.org/1999/xlink" x="0px" y="0px"
	 viewBox="0 0 128 128" style="enable-background:new 0 0 128 128;" xml:space="preserve">
<g id="_x35_3">
	<path style="fill:#212121;" d="M114.092,113.166H43.396c-7.158,0-16.128-4.492-20.423-10.226L3.465,74.554
		c-4.413-5.89-4.413-15.22,0.047-21.174l19.461-28.32c4.294-5.734,13.264-10.226,20.423-10.226h70.697
		c7.58,0,13.747,6.176,13.747,13.767V99.4C127.839,106.991,121.672,113.166,114.092,113.166z M26.138,27.389L6.7,55.675
		c-3.399,4.542-3.399,12.107-0.046,16.584l19.507,28.386c3.466,4.626,11.38,8.588,17.235,8.588h70.697
		c5.414,0,9.819-4.412,9.819-9.833V28.6c0-5.422-4.405-9.833-9.819-9.833H43.396C37.553,18.767,29.661,22.712,26.138,27.389z
		 M91.361,45.227c1.15-1.152,3.015-1.152,4.166,0l0,0c1.151,1.152,1.151,3.02,0,4.172L62.2,82.775c-1.15,1.151-3.015,1.151-4.166,0
		l0,0c-1.151-1.152-1.151-3.02,0-4.172L91.361,45.227z M58.034,49.399c-1.151-1.152-1.151-3.02,0-4.172l0,0
		c1.15-1.152,3.015-1.152,4.166,0l33.327,33.375c1.151,1.152,1.151,3.02,0,4.172l0,0c-1.15,1.151-3.015,1.151-4.166,0L58.034,49.399
		z"/>
</g>
<g id="Layer_1">
</g>
</svg>
