<?xml version="1.0" encoding="iso-8859-1"?>
<!-- Generator: Adobe Illustrator 19.0.1, SVG Export Plug-In . SVG Version: 6.00 Build 0)  -->
<svg version="1.1" xmlns="http://www.w3.org/2000/svg" xmlns:xlink="http://www.w3.org/1999/xlink" x="0px" y="0px"
	 viewBox="0 0 128 128" style="enable-background:new 0 0 128 128;" xml:space="preserve">
<g id="_x35_5">
	<path style="fill:#212121;" d="M125.516,119.251L92.975,86.662c17.694-20.571,16.83-51.759-2.644-71.262
		c-20.414-20.444-53.616-20.444-74.005,0c-9.889,9.904-15.33,23.066-15.33,37.044c0,7.001,1.347,13.799,3.966,20.062
		c2.593,6.289,6.432,12.068,11.364,17.007c9.889,9.904,23.033,15.352,36.99,15.352c11.872,0,23.134-3.921,32.287-11.177
		l32.744,32.767c0.991,0.993,2.288,1.477,3.584,1.477s2.593-0.484,3.585-1.477C127.499,124.47,127.499,121.237,125.516,119.251z
		 M37.173,91.474c-5.034-2.088-9.661-5.168-13.652-9.165c-7.983-7.969-12.355-18.586-12.355-29.864
		c0-11.279,4.373-21.87,12.355-29.839c8.211-8.249,19.016-12.348,29.795-12.348c10.805,0,21.609,4.099,29.82,12.348
		c16.448,16.447,16.448,43.231,0,59.703c-7.957,7.969-18.558,12.373-29.82,12.373C47.698,94.682,42.232,93.587,37.173,91.474z"/>
</g>
<g id="Layer_1">
</g>
</svg>
