<?xml version="1.0" encoding="iso-8859-1"?>
<!-- Generator: Adobe Illustrator 19.0.1, SVG Export Plug-In . SVG Version: 6.00 Build 0)  -->
<svg version="1.1" xmlns="http://www.w3.org/2000/svg" xmlns:xlink="http://www.w3.org/1999/xlink" x="0px" y="0px"
	 viewBox="0 0 128 128" style="enable-background:new 0 0 128 128;" xml:space="preserve">
<g id="_x35_7">
	<path style="fill-rule:evenodd;clip-rule:evenodd;fill:#212121;" d="M63.987,0.068C28.728,0.068,0.161,28.705,0.161,64
		c0,35.295,28.567,63.933,63.826,63.933c35.259,0,63.852-28.638,63.852-63.933C127.839,28.705,99.246,0.068,63.987,0.068z
		 M62.657,124.008c-22.948,0-37.252-16.08-37.466-16.295c3.7-2.177,18.953-5.133,22.519-7.39c3.941-2.499,5.362-12.255,5.362-16.098
		s-9.141-21.815-9.979-17.34c-0.773,4.132-5.275-11.469-5.275-14.882c0-3.413,2.681-2.687,2.681-2.687s-2.091-4.139-2.091-10.723
		c0-15.023,11.393-26.847,27.023-26.847c15.629,0,24.315,12.98,24.315,26.847c0,6.584-0.992,10.723-0.992,10.723
		s2.681-0.726,2.681,2.687c0,3.413-2.88,16.846-4.434,14.874C82.926,61.712,76.18,80.51,76.18,84.225
		c0,3.715,1.421,13.598,5.362,16.098c3.512,2.231,18.417,7.246,22.358,9.423C103.899,109.987,85.578,124.008,62.657,124.008z"/>
</g>
<g id="Layer_1">
</g>
</svg>
