<?xml version="1.0" encoding="iso-8859-1"?>
<!-- Generator: Adobe Illustrator 19.0.1, SVG Export Plug-In . SVG Version: 6.00 Build 0)  -->
<svg version="1.1" xmlns="http://www.w3.org/2000/svg" xmlns:xlink="http://www.w3.org/1999/xlink" x="0px" y="0px"
	 viewBox="0 0 128 128" style="enable-background:new 0 0 128 128;" xml:space="preserve">
<g id="_x35_8">
	<path style="fill-rule:evenodd;clip-rule:evenodd;fill:#212121;" d="M127.839,39.698c0,1.127-0.054,2.226-0.161,3.326
		c-0.054,0.456-0.107,0.885-0.161,1.341c-0.589,2.146,0.321,30.035-63.29,77.009C0.161,77.53,0.589,43.266,0.241,41.764
		c-0.027-0.08-0.027-0.188-0.027-0.295c-0.026-0.59-0.053-1.18-0.053-1.77c0-18.266,14.811-33.073,33.051-33.073
		c14.035,0,26.007,8.744,30.801,21.11C68.781,15.37,80.78,6.626,94.814,6.626C113.054,6.626,127.839,21.432,127.839,39.698z"/>
</g>
<g id="Layer_1">
</g>
</svg>
