<?xml version="1.0" encoding="iso-8859-1"?>
<!-- Generator: Adobe Illustrator 19.0.1, SVG Export Plug-In . SVG Version: 6.00 Build 0)  -->
<svg version="1.1" xmlns="http://www.w3.org/2000/svg" xmlns:xlink="http://www.w3.org/1999/xlink" x="0px" y="0px"
	 viewBox="0 0 128 128" style="enable-background:new 0 0 128 128;" xml:space="preserve">
<g id="_x36_0">
	<path style="fill-rule:evenodd;clip-rule:evenodd;fill:#212121;" d="M124.634,16.054H63.716
		C62.206,7.573,54.823,1.138,45.907,1.138c-8.894,0-16.298,6.435-17.788,14.916H3.353c-1.766,0-3.192,1.449-3.192,3.196
		c0,1.769,1.426,3.196,3.192,3.196h24.746c1.511,8.481,8.915,14.916,17.809,14.916c8.915,0,16.298-6.435,17.809-14.916h60.917
		c1.766,0,3.192-1.428,3.192-3.196C127.825,17.503,126.4,16.054,124.634,16.054z M45.907,30.97c-5.362,0-9.873-3.601-11.256-8.523
		c-0.298-1.023-0.447-2.088-0.447-3.196c0-1.108,0.149-2.174,0.447-3.196c1.383-4.901,5.894-8.523,11.256-8.523
		s9.873,3.622,11.256,8.523c0.298,1.023,0.447,2.088,0.447,3.196c0,1.108-0.149,2.173-0.447,3.196
		C55.78,27.369,51.269,30.97,45.907,30.97z M124.641,60.8h-18.38c-1.492-8.468-8.882-14.92-17.788-14.92s-16.32,6.452-17.788,14.92
		H3.346c-1.753,0-3.174,1.447-3.174,3.202c0,1.755,1.421,3.202,3.174,3.202h67.315c1.492,8.468,8.906,14.896,17.812,14.896
		s16.296-6.428,17.788-14.896h18.38c1.753,0,3.174-1.447,3.174-3.202C127.815,62.247,126.394,60.8,124.641,60.8z M99.724,67.205
		c-1.398,4.91-5.898,8.516-11.251,8.516c-5.377,0-9.877-3.605-11.275-8.516c-0.284-1.044-0.45-2.087-0.45-3.202
		c0-1.115,0.166-2.182,0.45-3.202c1.397-4.91,5.898-8.516,11.275-8.516c5.353,0,9.853,3.606,11.251,8.516
		c0.284,1.02,0.45,2.087,0.45,3.202C100.174,65.117,100.008,66.161,99.724,67.205z M124.641,105.561H50.954
		c-1.516-8.492-8.906-14.92-17.812-14.92c-8.906,0-16.272,6.428-17.788,14.92H3.369c-1.776,0-3.198,1.423-3.198,3.202
		c0,1.755,1.421,3.179,3.198,3.179h11.985c1.492,8.468,8.882,14.92,17.788,14.92c8.906,0,16.32-6.452,17.812-14.92h73.687
		c1.753,0,3.198-1.423,3.198-3.179C127.839,106.984,126.394,105.561,124.641,105.561z M44.393,111.942
		c-1.374,4.91-5.898,8.539-11.251,8.539c-5.353,0-9.877-3.629-11.251-8.539c-0.308-1.02-0.45-2.087-0.45-3.179
		c0-1.115,0.142-2.182,0.45-3.202c1.374-4.934,5.898-8.539,11.251-8.539c5.353,0,9.877,3.605,11.251,8.539
		c0.308,1.02,0.45,2.087,0.45,3.202C44.843,109.854,44.701,110.922,44.393,111.942z"/>
</g>
<g id="Layer_1">
</g>
</svg>
