<?xml version="1.0" encoding="iso-8859-1"?>
<!-- Generator: Adobe Illustrator 19.0.1, SVG Export Plug-In . SVG Version: 6.00 Build 0)  -->
<svg version="1.1" xmlns="http://www.w3.org/2000/svg" xmlns:xlink="http://www.w3.org/1999/xlink" x="0px" y="0px"
	 viewBox="0 0 128 128" style="enable-background:new 0 0 128 128;" xml:space="preserve">
<g id="_x36_1">
	<path style="fill:#212121;" d="M103.094,127.735H0.168V24.657H72.48c1.391,0,2.518,1.129,2.518,2.522s-1.128,2.522-2.518,2.522
		H5.205v92.99h92.852V55.318c0-1.394,1.128-2.522,2.518-2.522s2.518,1.128,2.518,2.522V127.735z M66.795,76l50.21-50.284
		l-3.561-3.566L64.419,71.246l-8.709,1.246l1.244-8.721l49.025-49.098l-3.561-3.566L52.206,61.392l-2.43,17.046L66.795,76z
		 M126.074,8.751l-6.717-6.727c-2.343-2.347-6.142-2.347-8.485,0l-6.812,6.822l15.202,15.224l6.812-6.822
		C128.417,14.903,128.417,11.098,126.074,8.751z"/>
</g>
<g id="Layer_1">
</g>
</svg>
