<?xml version="1.0" encoding="iso-8859-1"?>
<!-- Generator: Adobe Illustrator 19.0.1, SVG Export Plug-In . SVG Version: 6.00 Build 0)  -->
<svg version="1.1" xmlns="http://www.w3.org/2000/svg" xmlns:xlink="http://www.w3.org/1999/xlink" x="0px" y="0px"
	 viewBox="0 0 128 128" style="enable-background:new 0 0 128 128;" xml:space="preserve">
<g id="_x36_2">
	<path style="fill:#212121;" d="M111.884,91.423H6.484c-3.487,0-6.323-2.841-6.323-6.332V42.909c0-3.492,2.836-6.332,6.323-6.332
		h105.4c3.487,0,6.323,2.841,6.323,6.332v42.181C118.208,88.582,115.371,91.423,111.884,91.423z M6.484,40.799
		c-1.162,0-2.108,0.946-2.108,2.111v42.181c0,1.165,0.946,2.111,2.108,2.111h105.4c1.162,0,2.108-0.946,2.108-2.111V42.909
		c0-1.165-0.946-2.111-2.108-2.111H6.484z M127.839,69.503V58.497c0-2.179-1.78-3.962-3.956-3.962h0c-2.176,0-3.956,0-3.956,0
		v18.929c0,0,1.78,0,3.956,0h0C126.059,73.465,127.839,71.682,127.839,69.503z M7.328,46.004v35.991
		c0,1.166,0.944,2.111,2.108,2.111h34.817V43.894H9.436C8.272,43.894,7.328,44.839,7.328,46.004z"/>
</g>
<g id="Layer_1">
</g>
</svg>
