<?xml version="1.0" encoding="iso-8859-1"?>
<!-- Generator: Adobe Illustrator 19.0.1, SVG Export Plug-In . SVG Version: 6.00 Build 0)  -->
<svg version="1.1" xmlns="http://www.w3.org/2000/svg" xmlns:xlink="http://www.w3.org/1999/xlink" x="0px" y="0px"
	 viewBox="0 0 128 128" style="enable-background:new 0 0 128 128;" xml:space="preserve">
<g id="_x36_3">
	<path style="fill:#212121;" d="M111.738,91.676H6.542c-3.519,0-6.381-2.867-6.381-6.391V42.715c0-3.524,2.862-6.391,6.381-6.391
		h105.196c3.519,0,6.381,2.867,6.381,6.391v42.571C118.119,88.809,115.257,91.676,111.738,91.676z M6.542,40.584
		c-1.173,0-2.127,0.955-2.127,2.13v42.571c0,1.175,0.954,2.13,2.127,2.13h105.196c1.173,0,2.127-0.955,2.127-2.13V42.715
		c0-1.175-0.954-2.13-2.127-2.13H6.542z M127.839,69.553V58.447c0-2.199-1.797-3.998-3.993-3.998h0c-2.196,0-3.993,0-3.993,0v19.103
		c0,0,1.797,0,3.993,0h0C126.042,73.552,127.839,71.752,127.839,69.553z M7.648,44.709v38.582c0,0.552,0.448,1,1,1h101.204
		c0.552,0,1-0.448,1-1V44.709c0-0.552-0.448-1-1-1H8.648C8.095,43.709,7.648,44.156,7.648,44.709z"/>
</g>
<g id="Layer_1">
</g>
</svg>
