<?xml version="1.0" encoding="iso-8859-1"?>
<!-- Generator: Adobe Illustrator 19.0.1, SVG Export Plug-In . SVG Version: 6.00 Build 0)  -->
<svg version="1.1" xmlns="http://www.w3.org/2000/svg" xmlns:xlink="http://www.w3.org/1999/xlink" x="0px" y="0px"
	 viewBox="0 0 128 128" style="enable-background:new 0 0 128 128;" xml:space="preserve">
<g id="_x36_4">
	<path style="fill:#212121;" d="M127.839,57.867c0,12.534-10.178,22.727-22.672,22.727H30.382c-9.398,0-17.059-7.65-17.059-17.062
		c0-9.412,7.661-17.084,17.059-17.084h45.143v4.461H30.382c-6.948,0-12.605,5.665-12.605,12.624c0,6.936,5.657,12.601,12.605,12.601
		h74.785c10.044,0,18.217-8.185,18.217-18.266c0-10.059-8.173-18.244-18.217-18.244h-76.21C15.528,39.622,4.615,50.551,4.615,64
		c0,13.449,10.913,24.378,24.342,24.378h53.628v4.461H28.957C13.078,92.838,0.161,79.902,0.161,64
		c0-15.902,12.917-28.838,28.796-28.838h76.21C117.661,35.162,127.839,45.354,127.839,57.867z"/>
</g>
<g id="Layer_1">
</g>
</svg>
