<?xml version="1.0" encoding="iso-8859-1"?>
<!-- Generator: Adobe Illustrator 19.0.1, SVG Export Plug-In . SVG Version: 6.00 Build 0)  -->
<svg version="1.1" xmlns="http://www.w3.org/2000/svg" xmlns:xlink="http://www.w3.org/1999/xlink" x="0px" y="0px"
	 viewBox="0 0 128 128" style="enable-background:new 0 0 128 128;" xml:space="preserve">
<g id="_x36_5">
	<path style="fill-rule:evenodd;clip-rule:evenodd;fill:#212121;" d="M127.839,24.005c0-10.764-8.726-19.48-19.496-19.48
		c-2.989,0-5.847,0.682-8.396,1.893l26.002,25.996C127.158,29.86,127.839,26.999,127.839,24.005z M2.051,32.435
		c-1.209-2.553-1.89-5.415-1.89-8.43c0-10.764,8.726-19.48,19.496-19.48c3.011,0,5.868,0.682,8.418,1.893L2.051,32.435z
		 M64.011,4.613c-32.771,0-59.344,26.612-59.344,59.431c0,32.841,26.573,59.431,59.344,59.431c32.771,0,59.344-26.59,59.344-59.431
		C123.355,31.225,96.782,4.613,64.011,4.613z M92.76,43.309L66.67,69.591l-0.066,0.066c-1.275,1.277-3.319,1.277-4.594,0
		l-0.066-0.066L45.197,52.708c-1.275-1.277-1.275-3.368,0-4.644l0.066-0.066c1.275-1.277,3.319-1.277,4.594,0l14.462,14.594
		L88.1,38.599c1.275-1.277,3.319-1.277,4.594,0l0.066,0.066C94.035,39.963,94.035,42.032,92.76,43.309z"/>
</g>
<g id="Layer_1">
</g>
</svg>
