<?xml version="1.0" encoding="iso-8859-1"?>
<!-- Generator: Adobe Illustrator 19.0.1, SVG Export Plug-In . SVG Version: 6.00 Build 0)  -->
<svg version="1.1" xmlns="http://www.w3.org/2000/svg" xmlns:xlink="http://www.w3.org/1999/xlink" x="0px" y="0px"
	 viewBox="0 0 128 128" style="enable-background:new 0 0 128 128;" xml:space="preserve">
<g id="_x36_6">
	<path style="fill:#212121;" d="M86.443,105.457H41.557C18.732,105.457,0.161,86.859,0.161,64s18.571-41.457,41.396-41.457h44.886
		c22.825,0,41.396,18.598,41.396,41.457S109.268,105.457,86.443,105.457z M41.557,26.792C21.07,26.792,4.403,43.483,4.403,64
		s16.667,37.208,37.154,37.208h44.886c20.487,0,37.154-16.692,37.154-37.208S106.93,26.792,86.443,26.792H41.557z M86.442,31.9
		c17.703,0,32.053,14.37,32.053,32.099c0,17.728-14.351,32.1-32.053,32.1c-17.7,0-32.052-14.372-32.052-32.1
		C54.391,46.27,68.742,31.9,86.442,31.9z"/>
</g>
<g id="Layer_1">
</g>
</svg>
