<?xml version="1.0" encoding="iso-8859-1"?>
<!-- Generator: Adobe Illustrator 19.0.1, SVG Export Plug-In . SVG Version: 6.00 Build 0)  -->
<svg version="1.1" xmlns="http://www.w3.org/2000/svg" xmlns:xlink="http://www.w3.org/1999/xlink" x="0px" y="0px"
	 viewBox="0 0 128 128" style="enable-background:new 0 0 128 128;" xml:space="preserve">
<g id="_x36_8">
	<path style="fill:#212121;" d="M62.89,46.286V81.19l32.798-16.004L62.89,46.286z M127.918,64.184
		c0,30.49-24.768,55.294-55.186,55.294c-12.6,0-24.93-4.36-34.691-12.294l3.38-4.197c8.815,7.122,19.955,11.075,31.311,11.075
		c27.444,0,49.779-22.367,49.779-49.879c0-27.485-22.334-49.852-49.779-49.852c-26.417,0-48.075,20.688-49.698,46.71l13.303-13.918
		l3.894,3.737L20.222,71.821L0.24,50.862l3.894-3.737l13.465,14.108C19.141,32.123,43.286,8.917,72.732,8.917
		C103.15,8.917,127.918,33.721,127.918,64.184z"/>
</g>
<g id="Layer_1">
</g>
</svg>
