<?xml version="1.0" encoding="iso-8859-1"?>
<!-- Generator: Adobe Illustrator 19.0.1, SVG Export Plug-In . SVG Version: 6.00 Build 0)  -->
<svg version="1.1" xmlns="http://www.w3.org/2000/svg" xmlns:xlink="http://www.w3.org/1999/xlink" x="0px" y="0px"
	 viewBox="0 0 128 128" style="enable-background:new 0 0 128 128;" xml:space="preserve">
<g id="_x36_9">
	<path style="fill:#212121;" d="M127.839,113.556l-4.171-5.448c-15.894-20.765-35.78-31.73-59.135-32.617v25.143L0.161,59.753
		l64.371-45.309v29.919c7.445,0.329,30.662,2.666,46.949,18.76c10.853,10.726,16.357,25.386,16.357,43.568V113.556z M59.882,70.759
		l2.346,0.02c23.705,0.216,44.081,9.971,60.666,29.022c-1.208-13.703-6.124-24.897-14.654-33.338
		C90.417,48.827,62.466,48.927,62.237,48.969l-2.352,0.027L59.882,23.41L8.53,59.553l51.352,32.613V70.759z"/>
</g>
<g id="Layer_1">
</g>
</svg>
