<?xml version="1.0" encoding="iso-8859-1"?>
<!-- Generator: Adobe Illustrator 19.0.1, SVG Export Plug-In . SVG Version: 6.00 Build 0)  -->
<svg version="1.1" xmlns="http://www.w3.org/2000/svg" xmlns:xlink="http://www.w3.org/1999/xlink" x="0px" y="0px"
	 viewBox="0 0 128 128" style="enable-background:new 0 0 128 128;" xml:space="preserve">
<g id="_x37_0">
	<path style="fill:#212121;" d="M64,127.933c-2.396,0-4.745-0.977-6.446-2.68c-1.726-1.726-2.674-4.018-2.674-6.453v-1.94
		c-7.826-1.336-15.278-4.422-21.76-9.015l-1.374,1.365c-3.549,3.552-9.334,3.552-12.883-0.007c-1.726-1.726-2.676-4.018-2.676-6.455
		c0-2.437,0.951-4.729,2.679-6.457l1.369-1.371c-4.598-6.484-7.686-13.943-9.017-21.785H9.281c-5.03,0-9.12-4.096-9.12-9.133
		c0-2.437,0.948-4.729,2.674-6.456c1.699-1.702,4.048-2.678,6.446-2.678h1.937c1.329-7.839,4.417-15.3,9.017-21.787l-1.372-1.372
		c-1.726-1.725-2.676-4.017-2.676-6.454s0.951-4.73,2.679-6.456c3.551-3.56,9.336-3.557,12.887,0.001l1.367,1.357
		c6.484-4.593,13.936-7.681,21.76-9.014V9.2c0-2.436,0.948-4.728,2.674-6.455C59.253,1.042,61.602,0.067,64,0.067
		c5.03,0,9.12,4.097,9.12,9.133v1.939c7.828,1.333,15.276,4.425,21.753,9.031l1.372-1.372c1.69-1.721,3.983-2.678,6.446-2.678
		c2.449,0,4.745,0.951,6.468,2.678c3.554,3.559,3.554,9.351,0,12.909l-1.374,1.376c4.587,6.493,7.668,13.953,8.997,21.784h1.937
		c2.431,0,4.722,0.951,6.446,2.678c1.726,1.727,2.674,4.019,2.674,6.456c0,5.037-4.09,9.133-9.12,9.133h-1.937
		c-1.331,7.833-4.413,15.294-8.997,21.783l1.374,1.376c3.554,3.559,3.554,9.352,0,12.91c-1.723,1.728-4.021,2.678-6.468,2.678
		c-2.431,0-4.722-0.95-6.446-2.678l-1.372-1.374c-6.475,4.605-13.925,7.697-21.753,9.031v1.94
		C73.12,123.837,69.03,127.933,64,127.933z M32.706,101.824l1.581,1.211c6.742,5.171,14.753,8.489,23.169,9.597l1.984,0.261v5.907
		c0,1.215,0.474,2.359,1.338,3.224c0.853,0.854,2.026,1.342,3.222,1.342c2.514,0,4.56-2.049,4.56-4.567v-5.907l1.984-0.261
		c8.421-1.106,16.432-4.431,23.165-9.617l1.585-1.222l4.175,4.181c1.739,1.741,4.749,1.719,6.466,0c1.777-1.779,1.777-4.674,0-6.453
		l-4.17-4.176l1.213-1.59c5.163-6.752,8.476-14.775,9.583-23.201l0.261-1.987h5.898c2.514,0,4.56-2.049,4.56-4.567
		c0-1.217-0.474-2.364-1.338-3.227c-0.864-0.865-2.008-1.341-3.222-1.341h-5.898l-0.261-1.987
		c-1.104-8.423-4.417-16.447-9.583-23.203l-1.213-1.588l4.17-4.178c1.777-1.779,1.777-4.673,0-6.452
		c-1.723-1.728-4.774-1.725-6.452-0.014l-4.188,4.194l-1.585-1.221c-6.735-5.186-14.746-8.512-23.165-9.616l-1.984-0.261V9.2
		c0-2.519-2.046-4.567-4.56-4.567c-1.198,0-2.371,0.488-3.222,1.34C59.914,6.838,59.44,7.984,59.44,9.2v5.908l-1.984,0.261
		c-8.414,1.106-16.425,4.424-23.171,9.595l-1.579,1.211l-4.17-4.142c-1.783-1.784-4.669-1.788-6.448-0.007
		c-0.864,0.865-1.34,2.01-1.34,3.227c0,1.215,0.476,2.36,1.338,3.224l4.177,4.181l-1.22,1.589c-5.181,6.746-8.501,14.769-9.603,23.2
		l-0.258,1.987h-5.9c-1.198,0-2.371,0.488-3.222,1.341c-0.864,0.863-1.338,2.009-1.338,3.227c0,2.517,2.046,4.567,4.56,4.567h5.898
		l0.261,1.987c1.107,8.435,4.426,16.456,9.603,23.199l1.22,1.588l-4.175,4.181c-0.864,0.865-1.34,2.011-1.34,3.227
		c0,1.215,0.476,2.361,1.338,3.224c1.781,1.779,4.667,1.782,6.444,0.002L32.706,101.824z M64,86.834
		c-12.571,0-22.8-10.244-22.8-22.833c0-12.59,10.229-22.834,22.8-22.834S86.8,51.41,86.8,64.001C86.8,76.59,76.571,86.834,64,86.834
		z M64,45.733c-10.057,0-18.24,8.194-18.24,18.268c0,10.072,8.182,18.266,18.24,18.266s18.24-8.194,18.24-18.266
		C82.24,53.927,74.057,45.733,64,45.733z"/>
</g>
<g id="Layer_1">
</g>
</svg>
