<?xml version="1.0" encoding="iso-8859-1"?>
<!-- Generator: Adobe Illustrator 19.0.1, SVG Export Plug-In . SVG Version: 6.00 Build 0)  -->
<svg version="1.1" xmlns="http://www.w3.org/2000/svg" xmlns:xlink="http://www.w3.org/1999/xlink" x="0px" y="0px"
	 viewBox="0 0 128 128" style="enable-background:new 0 0 128 128;" xml:space="preserve">
<g id="_x37_1">
	<path style="fill:#212121;" d="M36.184,124.778c-0.551,0-1.042-0.101-1.469-0.25c-1.726-0.601-3.785-2.492-3.785-8.072V99.355
		l-0.979-0.522c-18.359-9.288-29.79-26.159-29.79-44.005c0-28.455,28.638-51.607,63.84-51.607c35.2,0,63.838,23.152,63.838,51.607
		c0,28.457-28.638,51.609-63.838,51.609c-3.301,0-6.537-0.203-9.64-0.601l-11.675,14.726
		C40.082,123.851,37.86,124.778,36.184,124.778z M64.001,7.832c-32.663,0-59.236,21.083-59.236,46.996
		c0,16.097,10.462,31.39,27.305,39.913l3.464,1.841v19.874c0,2.582,0.559,3.597,0.754,3.748c0.126-0.041,1.191-0.486,2.792-2.508
		l13.319-16.801l1.315,0.196c3.279,0.488,6.741,0.736,10.288,0.736c32.663,0,59.235-21.083,59.235-46.999
		C123.236,28.915,96.663,7.832,64.001,7.832z"/>
</g>
<g id="Layer_1">
</g>
</svg>
