<?xml version="1.0" encoding="iso-8859-1"?>
<!-- Generator: Adobe Illustrator 19.0.1, SVG Export Plug-In . SVG Version: 6.00 Build 0)  -->
<svg version="1.1" xmlns="http://www.w3.org/2000/svg" xmlns:xlink="http://www.w3.org/1999/xlink" x="0px" y="0px"
	 viewBox="0 0 128 128" style="enable-background:new 0 0 128 128;" xml:space="preserve">
<g id="_x37_2">
	<path style="fill:#212121;" d="M113.249,17.542H14.751c-8.055,0-14.59,6.544-14.59,14.611v63.694
		c0,8.067,6.535,14.611,14.59,14.611h98.498c8.055,0,14.59-6.544,14.59-14.611V32.153C127.839,24.086,121.304,17.542,113.249,17.542
		z M14.751,22.087h98.498c2.269,0,4.356,0.75,6.036,2.022L66.757,73.828c-1.52,1.522-3.994,1.522-5.536-0.045L8.738,24.109
		C10.417,22.836,12.504,22.087,14.751,22.087z M123.301,95.847c0,5.567-4.515,10.066-10.052,10.066H14.751
		c-5.536,0-10.052-4.499-10.052-10.066V32.153c0-1.636,0.408-3.204,1.112-4.567l52.233,49.446c1.656,1.659,3.812,2.477,5.968,2.477
		c2.156,0,4.288-0.795,5.9-2.431l52.278-49.492c0.703,1.363,1.112,2.931,1.112,4.567V95.847z"/>
</g>
<g id="Layer_1">
</g>
</svg>
