<?xml version="1.0" encoding="iso-8859-1"?>
<!-- Generator: Adobe Illustrator 19.0.1, SVG Export Plug-In . SVG Version: 6.00 Build 0)  -->
<svg version="1.1" xmlns="http://www.w3.org/2000/svg" xmlns:xlink="http://www.w3.org/1999/xlink" x="0px" y="0px"
	 viewBox="0 0 128 128" style="enable-background:new 0 0 128 128;" xml:space="preserve">
<g id="_x37_3">
	<path style="fill:#212121;" d="M119.223,96.44L87.556,77.427V50.552l31.667-19.013V96.44z M92.262,74.758l22.256,13.362V39.859
		L92.262,53.221V74.758z M76.925,105.363H15.496c-8.456,0-15.335-6.889-15.335-15.359V37.996c0-8.47,6.879-15.359,15.335-15.359
		h61.429c8.456,0,15.337,6.889,15.337,15.359v52.009C92.262,98.474,85.382,105.363,76.925,105.363z M15.496,27.349
		c-5.861,0-10.63,4.777-10.63,10.647v52.009c0,5.87,4.769,10.647,10.63,10.647h61.429c5.862,0,10.631-4.777,10.631-10.647V37.996
		c0-5.87-4.769-10.647-10.631-10.647H15.496z M127.839,31.406h-7.058v65.166h7.058V31.406z"/>
</g>
<g id="Layer_1">
</g>
</svg>
