<?xml version="1.0" encoding="iso-8859-1"?>
<!-- Generator: Adobe Illustrator 19.0.1, SVG Export Plug-In . SVG Version: 6.00 Build 0)  -->
<svg version="1.1" xmlns="http://www.w3.org/2000/svg" xmlns:xlink="http://www.w3.org/1999/xlink" x="0px" y="0px"
	 viewBox="0 0 128 128" style="enable-background:new 0 0 128 128;" xml:space="preserve">
<g id="_x37_4">
	<path style="fill:#212121;" d="M34.827,26.455v42.198c0,13.011,10.611,23.638,23.603,23.638c4.68,0,9.031-1.377,12.705-3.741
		L34.827,26.455z M75.096,7.874c-4.29-4.296-10.18-6.947-16.666-6.947c-6.876,0-13.074,2.98-17.384,7.708l39.653,67.809
		c0.862-2.446,1.334-5.056,1.334-7.79V24.564C82.033,18.069,79.385,12.17,75.096,7.874z M89.319,37.164
		c-1.129,0-2.052,0.925-2.052,2.055v30.585c0,4.563-1.088,8.88-3.017,12.723l2.422,4.131c2.976-4.913,4.7-10.688,4.7-16.855V39.219
		C91.372,38.089,90.448,37.164,89.319,37.164z M101.511,122.198L30.681,1.091c-0.575-0.987-1.827-1.316-2.812-0.74
		c-0.965,0.576-1.293,1.829-0.718,2.816L97.96,124.274c0.39,0.658,1.067,1.028,1.786,1.028c0.349,0,0.698-0.103,1.026-0.288
		C101.757,124.438,102.085,123.184,101.511,122.198z M82.751,123.822c0,2.261-1.827,4.111-4.105,4.111h-39.12
		c-2.258,0-4.105-1.85-4.105-4.111c0-2.282,1.847-4.111,4.105-4.111h14.86v-16.978c0-0.205,0.021-0.411,0.041-0.596
		C38.521,99.978,26.207,86.31,26.207,69.804V39.219c0-1.13,0.923-2.055,2.052-2.055c1.149,0,2.052,0.925,2.052,2.055v30.585
		c0,15.724,12.787,28.509,28.488,28.509c5.685,0,10.96-1.665,15.393-4.543l2.073,3.556c-4.043,2.59-8.723,4.316-13.71,4.892
		c0.021,0.164,0.041,0.329,0.041,0.514v16.978h16.05C80.925,119.711,82.751,121.54,82.751,123.822z"/>
</g>
<g id="Layer_1">
</g>
</svg>
