<?xml version="1.0" encoding="iso-8859-1"?>
<!-- Generator: Adobe Illustrator 19.0.1, SVG Export Plug-In . SVG Version: 6.00 Build 0)  -->
<svg version="1.1" xmlns="http://www.w3.org/2000/svg" xmlns:xlink="http://www.w3.org/1999/xlink" x="0px" y="0px"
	 viewBox="0 0 128 128" style="enable-background:new 0 0 128 128;" xml:space="preserve">
<g id="_x37_5">
	<path style="fill:#212121;" d="M63.644,0.068c-14.03,0-25.418,11.424-25.418,25.455v43.681c0,14.051,11.387,25.455,25.418,25.455
		c14.01,0,25.418-11.404,25.418-25.455V25.522C89.062,11.492,77.654,0.068,63.644,0.068z M42.293,25.522
		c0-11.791,9.577-21.382,21.351-21.382c11.774,0,21.351,9.591,21.351,21.382v22.4H42.293V25.522z M67.731,102.437
		c0.02,0.163,0.041,0.346,0.041,0.529v16.821h15.901c2.257,0,4.067,1.812,4.067,4.073c0,2.24-1.81,4.073-4.067,4.073H44.916
		c-2.237,0-4.067-1.833-4.067-4.073c0-2.26,1.83-4.073,4.067-4.073h14.722v-16.821c0-0.204,0.02-0.407,0.041-0.591
		C43.92,100.238,31.72,86.696,31.72,70.343V40.042c0-1.12,0.915-2.036,2.033-2.036c1.139,0,2.033,0.916,2.033,2.036v30.302
		c0,15.578,12.668,28.245,28.224,28.245c15.556,0,28.204-12.666,28.204-28.245V40.042c0-1.12,0.915-2.036,2.033-2.036
		c1.118,0,2.033,0.916,2.033,2.036v30.302C96.28,86.899,83.775,100.584,67.731,102.437z"/>
</g>
<g id="Layer_1">
</g>
</svg>
