<?xml version="1.0" encoding="iso-8859-1"?>
<!-- Generator: Adobe Illustrator 19.0.1, SVG Export Plug-In . SVG Version: 6.00 Build 0)  -->
<svg version="1.1" xmlns="http://www.w3.org/2000/svg" xmlns:xlink="http://www.w3.org/1999/xlink" x="0px" y="0px"
	 viewBox="0 0 128 128" style="enable-background:new 0 0 128 128;" xml:space="preserve">
<g id="_x37_6">
	<path style="fill:#212121;" d="M22.928,127.932l-1.163-25.024C8.118,91.739,0.315,75.753,0.315,58.888
		c0-32.433,28.568-58.82,63.684-58.82s63.686,26.388,63.686,58.82s-28.57,58.818-63.686,58.818c-5.522,0-10.978-0.647-16.232-1.926
		L22.928,127.932z M63.999,4.654c-32.589,0-59.103,24.33-59.103,54.234c0,15.787,7.483,30.762,20.528,41.08l0.819,0.65l0.935,20.13
		l20.087-9.828l0.819,0.211c5.133,1.319,10.489,1.989,15.916,1.989c32.591,0,59.106-24.327,59.106-54.231S96.59,4.654,63.999,4.654z
		 M101.722,42.63H28.628v4.587h73.094V42.63z M101.722,56.391H28.628v4.587h73.094V56.391z M101.722,70.151H28.628v4.587h73.094
		V70.151z"/>
</g>
<g id="Layer_1">
</g>
</svg>
