<?xml version="1.0" encoding="iso-8859-1"?>
<!-- Generator: Adobe Illustrator 19.0.1, SVG Export Plug-In . SVG Version: 6.00 Build 0)  -->
<svg version="1.1" xmlns="http://www.w3.org/2000/svg" xmlns:xlink="http://www.w3.org/1999/xlink" x="0px" y="0px"
	 viewBox="0 0 128 128" style="enable-background:new 0 0 128 128;" xml:space="preserve">
<g id="_x37_7">
	<path style="fill:#212121;" d="M14.117,126.254c9.67,5.81,14.505-5.326,14.505-5.326l12.406-20.985c0,0,4.187-5.162-1.77-12.095
		c-5.966-6.943-6.44-12.919,7.252-27.6c3.143-3.38,10.356-10.604,13.741-13.761c14.66-13.713,20.626-13.238,27.559-7.263
		c6.924,5.965,12.078,1.772,12.078,1.772l20.955-12.425c0,0,11.12-4.842,5.318-14.526c-5.802-9.684-9.186-17.586-29.01-12.26
		C78.093,6.907,57.99,21.133,40.42,38.303c-0.358,0.339-0.706,0.688-1.054,1.036s-0.687,0.688-1.025,1.046
		C21.196,57.981,6.991,78.114,1.875,97.201C-3.443,117.054,4.447,120.443,14.117,126.254z"/>
</g>
<g id="Layer_1">
</g>
</svg>
