<?xml version="1.0" encoding="iso-8859-1"?>
<!-- Generator: Adobe Illustrator 19.0.1, SVG Export Plug-In . SVG Version: 6.00 Build 0)  -->
<svg version="1.1" xmlns="http://www.w3.org/2000/svg" xmlns:xlink="http://www.w3.org/1999/xlink" x="0px" y="0px"
	 viewBox="0 0 128 128" style="enable-background:new 0 0 128 128;" xml:space="preserve">
<g id="_x37_8">
	<path style="fill:#212121;" d="M86.046,74.137V22.133c0-12.159-9.892-22.066-22.034-22.066c-12.165,0-22.058,9.907-22.058,22.066
		v52.004c-5.95,5.837-9.36,13.927-9.36,22.356c0,17.343,14.1,31.439,31.418,31.439c17.317,0,31.394-14.097,31.394-31.439
		C95.406,88.064,92.019,79.974,86.046,74.137z M64.012,123.088c-14.657,0-26.58-11.917-26.58-26.595
		c0-7.436,3.12-14.557,8.562-19.547l0.798-0.702V22.133c0-9.495,7.715-17.221,17.22-17.221c9.481,0,17.196,7.727,17.196,17.221
		v54.111l0.798,0.702c5.442,4.99,8.562,12.111,8.562,19.547C90.568,111.171,78.645,123.088,64.012,123.088z M83.458,94.095
		c0,10.754-8.707,19.474-19.446,19.474s-19.445-8.72-19.445-19.474c0-7.945,4.765-14.799,11.585-17.827V25.67
		c0-4.36,3.507-7.872,7.86-7.872c4.329,0,7.86,3.512,7.86,7.872v50.599C78.693,79.296,83.458,86.15,83.458,94.095z"/>
</g>
<g id="Layer_1">
</g>
</svg>
