<?xml version="1.0" encoding="iso-8859-1"?>
<!-- Generator: Adobe Illustrator 19.0.1, SVG Export Plug-In . SVG Version: 6.00 Build 0)  -->
<svg version="1.1" xmlns="http://www.w3.org/2000/svg" xmlns:xlink="http://www.w3.org/1999/xlink" x="0px" y="0px"
	 viewBox="0 0 128 128" style="enable-background:new 0 0 128 128;" xml:space="preserve">
<g id="_x37_9">
	<path style="fill:#212121;" d="M63.18,13.095l-9.943,48.08l10.922,53.666l9.772-53.666L63.18,13.095z M63.947,95.097l-6.132-30.191
		h11.646L63.947,95.097z M63.18,13.095l-9.943,48.08l10.922,53.666l9.772-53.666L63.18,13.095z M63.947,95.097l-6.132-30.191h11.646
		L63.947,95.097z M63.18,13.095l-9.943,48.08l10.922,53.666l9.772-53.666L63.18,13.095z M63.947,95.097l-6.132-30.191h11.646
		L63.947,95.097z M63.989,0.068c-35.193,0-63.828,28.677-63.828,63.922c0,35.266,28.635,63.943,63.828,63.943
		c35.214,0,63.85-28.677,63.85-63.943C127.839,28.745,99.203,0.068,63.989,0.068z M122.644,74.522l-5.812-1.13l-0.426,2.09
		l5.812,1.13c-0.66,3.177-1.597,6.269-2.789,9.232l-5.45-2.26l-0.809,1.962l5.45,2.26c-1.32,3.028-2.874,5.906-4.663,8.635
		l-4.854-3.262l-1.192,1.791l4.854,3.241c-1.767,2.537-3.747,4.947-5.919,7.164l-4.109-4.072l-1.49,1.535l4.088,4.051
		c-2.278,2.239-4.769,4.286-7.388,6.098l-3.215-4.755l-1.767,1.194l3.215,4.733c-2.725,1.791-5.621,3.326-8.623,4.627l-2.193-5.266
		l-1.959,0.832l2.172,5.245c-2.917,1.173-5.961,2.089-9.091,2.729l-1.128-5.522l-2.086,0.426l1.128,5.522
		c-3.172,0.576-6.43,0.874-9.751,0.895v-5.544H62.52v5.522c-3.236-0.064-6.387-0.384-9.474-0.981l1.065-5.373l-2.086-0.405
		l-1.065,5.352c-3.087-0.682-6.089-1.62-8.963-2.772l2.044-5.011l-1.98-0.81l-2.044,4.968c-2.917-1.279-5.706-2.793-8.346-4.52
		l2.917-4.414l-1.788-1.173l-2.895,4.371c-2.661-1.834-5.152-3.902-7.452-6.183l3.662-3.667l-1.49-1.514l-3.683,3.689
		c-2.172-2.281-4.173-4.733-5.961-7.335l4.301-2.878l-1.192-1.77l-4.279,2.878c-1.703-2.623-3.172-5.394-4.428-8.294l4.727-1.983
		l-0.809-1.983l-4.748,1.983c-1.15-2.9-2.087-5.927-2.747-9.04l5.024-1.023l-0.426-2.09l-5.003,1.024
		c-0.596-3.134-0.915-6.354-0.958-9.637h5.088v-2.132H4.44c0.043-3.177,0.362-6.311,0.916-9.339l5.003,0.981l0.405-2.09L5.76,51.474
		c0.639-3.113,1.554-6.141,2.704-9.062l4.727,1.94l0.83-1.962l-4.748-1.962c1.277-2.964,2.789-5.821,4.535-8.507l4.258,2.836
		l1.192-1.77L15,30.131c1.746-2.537,3.683-4.925,5.791-7.143l3.662,3.646l1.49-1.514l-3.662-3.646
		c2.236-2.217,4.663-4.264,7.239-6.077l2.917,4.328l1.767-1.194l-2.917-4.35c2.683-1.791,5.514-3.347,8.473-4.669l2.044,4.904
		l1.98-0.81L41.72,8.66c2.896-1.173,5.919-2.132,9.027-2.814l1.065,5.288l2.087-0.426l-1.065-5.309
		c3.151-0.618,6.387-0.959,9.687-1.024v5.48h2.129V4.353c3.236,0.021,6.408,0.32,9.496,0.853l-1.086,5.458l2.086,0.426l1.086-5.48
		c3.13,0.64,6.153,1.535,9.07,2.687l-2.15,5.202l1.959,0.81l2.15-5.245c2.959,1.279,5.791,2.772,8.473,4.477l-3.13,4.755
		l1.767,1.173l3.151-4.755c2.704,1.834,5.237,3.902,7.601,6.162l-4.067,4.072l1.512,1.493l4.066-4.051
		c2.236,2.281,4.279,4.733,6.089,7.356l-4.812,3.22l1.192,1.77l4.812-3.219c1.746,2.644,3.279,5.437,4.556,8.358l-5.408,2.281
		l0.83,1.962l5.429-2.26c1.192,2.964,2.15,6.034,2.832,9.19l-5.791,1.173l0.405,2.09l5.812-1.173
		c0.596,3.177,0.937,6.439,0.979,9.765h-5.919v2.132h5.919C123.517,68.275,123.198,71.452,122.644,74.522z"/>
</g>
<g id="Layer_1">
</g>
</svg>
