<?xml version="1.0" encoding="iso-8859-1"?>
<!-- Generator: Adobe Illustrator 19.0.1, SVG Export Plug-In . SVG Version: 6.00 Build 0)  -->
<svg version="1.1" xmlns="http://www.w3.org/2000/svg" xmlns:xlink="http://www.w3.org/1999/xlink" x="0px" y="0px"
	 viewBox="0 0 128 128" style="enable-background:new 0 0 128 128;" xml:space="preserve">
<g id="_x38_0">
	<path style="fill:#212121;" d="M68.083,49.842c1.626-1.107,2.688-2.974,2.688-5.102c0-3.43-2.775-6.209-6.2-6.209
		c-3.425,0-6.2,2.779-6.2,6.209c0,1.672,0.65,3.17,1.734,4.277l-29.309,76.658l31.043-18.41v18.497c0,1.194,0.976,2.171,2.168,2.171
		s2.168-0.977,2.168-2.171v-18.367l29.417,18.41L68.083,49.842z M39.294,115.579l8.021-20.994l12.66,8.749L39.294,115.579z
		 M61.84,99.34l-12.92-8.923l12.92-33.802V99.34z M66.175,57.288l12.4,34.237l-12.4,8.554V57.288z M80.093,95.737l7.132,19.713
		l-18.708-11.702L80.093,95.737z M89.35,17.593l-2.452,2.509c6.033,5.954,9.791,14.222,9.791,23.356
		c0,7.915-2.823,15.176-7.497,20.847l2.664,2.314c5.222-6.289,8.362-14.363,8.362-23.161C100.217,33.334,96.054,24.165,89.35,17.593
		z M27.783,43.458c0,8.957,3.264,17.172,8.662,23.497l2.664-2.297c-4.851-5.724-7.797-13.127-7.797-21.2
		c0-9.717,4.251-18.462,10.99-24.469l-2.346-2.632C32.493,22.999,27.783,32.698,27.783,43.458z M104.61,2.046l-2.47,2.509
		c10.073,9.911,16.318,23.691,16.318,38.903c0,13.374-4.834,25.635-12.843,35.14l2.664,2.314
		c8.556-10.123,13.707-23.197,13.707-37.454C121.986,27.257,115.336,12.593,104.61,2.046z M6.014,43.458
		c0,14.381,5.257,27.543,13.937,37.701l2.664-2.297C14.464,69.34,9.542,56.955,9.542,43.458c0-16.201,7.092-30.758,18.311-40.758
		l-2.346-2.632C13.564,10.721,6.014,26.215,6.014,43.458z"/>
</g>
<g id="Layer_1">
</g>
</svg>
