<?xml version="1.0" encoding="iso-8859-1"?>
<!-- Generator: Adobe Illustrator 19.0.1, SVG Export Plug-In . SVG Version: 6.00 Build 0)  -->
<svg version="1.1" xmlns="http://www.w3.org/2000/svg" xmlns:xlink="http://www.w3.org/1999/xlink" x="0px" y="0px"
	 viewBox="0 0 128 128" style="enable-background:new 0 0 128 128;" xml:space="preserve">
<g id="_x38_1">
	<path style="fill:#22272D;" d="M63.999,127.932c-25.01,0-44.603-19.15-44.603-43.593c0-25.348,40.916-79.423,42.658-81.713
		l1.947-2.559l1.947,2.559c1.742,2.29,42.656,56.365,42.656,81.713C108.604,108.783,89.011,127.932,63.999,127.932z M64.001,8.217
		c-8.232,11.206-39.711,55.414-39.711,76.122c0,21.696,17.441,38.692,39.708,38.692c22.268,0,39.711-16.996,39.711-38.692
		C103.709,63.624,72.233,19.421,64.001,8.217z M94.409,83.255c0-0.677-0.547-1.225-1.224-1.225s-1.224,0.548-1.224,1.225
		c0,15.445-12.545,28.008-27.963,28.008c-0.676,0-1.224,0.548-1.224,1.225c0,0.677,0.547,1.225,1.224,1.225
		C80.768,113.713,94.409,100.049,94.409,83.255z"/>
</g>
<g id="Layer_1">
</g>
</svg>
