<?xml version="1.0" encoding="iso-8859-1"?>
<!-- Generator: Adobe Illustrator 19.0.1, SVG Export Plug-In . SVG Version: 6.00 Build 0)  -->
<svg version="1.1" xmlns="http://www.w3.org/2000/svg" xmlns:xlink="http://www.w3.org/1999/xlink" x="0px" y="0px"
	 viewBox="0 0 128 128" style="enable-background:new 0 0 128 128;" xml:space="preserve">
<g id="_x38_2">
	<path style="fill:#212121;" d="M127.743,24.351c-0.168-0.624-4.531-15.413-31.524-15.413c-19.25,0-28.456,8.235-32.219,13.108
		C60.236,17.173,51.031,8.938,31.781,8.938c-26.993,0-31.356,14.789-31.548,15.413l-0.072,0.312v89.333l4.075-4.009
		c0.096-0.096,9.445-9.075,29.031-9.075c17.716,0,26.777,14.861,28.336,17.742c0.12,0.192,0.168,0.336,0.216,0.408h4.339
		c0.048-0.072,0.12-0.216,0.24-0.432c1.606-2.929,10.644-17.718,28.312-17.718c19.61,0,28.959,8.979,29.031,9.051l4.099,4.105
		V24.975L127.743,24.351z M61.603,110.227c-4.986-6.098-14.264-14.117-28.336-14.117c-14.144,0-23.445,4.273-28.312,7.346V25.384
		c0.695-1.825,5.394-11.644,26.825-11.644c21.383,0,28.527,10.972,29.822,13.3V110.227z M123.044,103.457
		c-4.867-3.073-14.168-7.346-28.336-7.346c-14.048,0-23.301,7.995-28.312,14.092V27.04c1.318-2.329,8.558-13.3,29.822-13.3
		c21.479,0,26.154,9.891,26.825,11.644V103.457z"/>
</g>
<g id="Layer_1">
</g>
</svg>
