<?xml version="1.0" encoding="iso-8859-1"?>
<!-- Generator: Adobe Illustrator 19.0.1, SVG Export Plug-In . SVG Version: 6.00 Build 0)  -->
<svg version="1.1" xmlns="http://www.w3.org/2000/svg" xmlns:xlink="http://www.w3.org/1999/xlink" x="0px" y="0px"
	 viewBox="0 0 128 128" style="enable-background:new 0 0 128 128;" xml:space="preserve">
<g id="_x38_3">
	<path style="fill:#212121;" d="M78.014,102.153H50.428l-0.356-1.943c-0.009-0.056-1.034-5.577-3.301-10.966
		c-3.118-7.413-5.205-11.124-5.885-12.266c-11.764-7.797-18.771-20.836-18.771-34.99c0-23.115,18.789-41.92,41.884-41.92
		s41.884,18.805,41.884,41.92c0,13.09-6.2,25.571-16.609,33.475c-0.9,1.439-4.429,7.309-6.312,13.742
		c-2.184,7.455-2.595,10.818-2.6,10.853l-0.246,2.091L78.014,102.153z M54.314,97.415h21.702c0.363-1.853,1.069-4.975,2.408-9.544
		c2.363-8.073,6.92-15.053,7.112-15.347l0.231-0.349l0.336-0.25c9.425-7.002,15.051-18.192,15.051-29.938
		c0-20.503-16.667-37.183-37.154-37.183s-37.154,16.68-37.154,37.183c0,12.717,6.376,24.421,17.056,31.305l0.419,0.271l0.275,0.416
		c0.099,0.15,2.499,3.828,6.534,13.425C52.77,91.302,53.796,95.174,54.314,97.415z M78.014,106.221h-26.66v4.737h26.66V106.221z
		 M75.819,114.389H53.863v4.737h21.956V114.389z M74.25,121.677H55.432v6.255H74.25V121.677z M84.254,45.6H45.428v4.737h38.826V45.6
		z M67.206,47.969h-4.73v41.043h4.73V47.969z"/>
</g>
<g id="Layer_1">
</g>
</svg>
