<?xml version="1.0" encoding="iso-8859-1"?>
<!-- Generator: Adobe Illustrator 19.0.1, SVG Export Plug-In . SVG Version: 6.00 Build 0)  -->
<svg version="1.1" xmlns="http://www.w3.org/2000/svg" xmlns:xlink="http://www.w3.org/1999/xlink" x="0px" y="0px"
	 viewBox="0 0 128 128" style="enable-background:new 0 0 128 128;" xml:space="preserve">
<g id="_x38_4">
	<path style="fill:#212121;" d="M115.289,127.932H14.911V0.068h109.363v118.867C124.273,123.897,120.243,127.932,115.289,127.932z
		 M19.403,123.434h95.886c2.477,0,4.492-2.019,4.492-4.499V4.566H19.403V123.434z M11.565,127.932c-4.322,0-7.838-3.521-7.838-7.849
		V14.434h15.677v105.65C19.403,124.411,15.887,127.932,11.565,127.932z M8.219,18.932v101.151c0,1.847,1.501,3.35,3.346,3.35
		s3.346-1.503,3.346-3.35V18.932H8.219z M114.976,14.434H24.208v60.547h90.768V14.434z M114.977,85.155H24.208v4.499h90.769V85.155z
		 M114.977,96.843H24.208v4.499h90.769V96.843z M114.977,108.529H24.208v4.499h90.769V108.529z"/>
</g>
<g id="Layer_1">
</g>
</svg>
