<?xml version="1.0" encoding="iso-8859-1"?>
<!-- Generator: Adobe Illustrator 19.0.1, SVG Export Plug-In . SVG Version: 6.00 Build 0)  -->
<svg version="1.1" xmlns="http://www.w3.org/2000/svg" xmlns:xlink="http://www.w3.org/1999/xlink" x="0px" y="0px"
	 viewBox="0 0 128 128" style="enable-background:new 0 0 128 128;" xml:space="preserve">
<g id="_x38_5">
	<path style="fill:#212121;" d="M89.082,11.352l-2.558,3.831c15.507,10.407,19.056,16.822,24.563,31.245l4.286-1.661
		C109.751,30.02,105.557,22.405,89.082,11.352z M20.623,64.173c-0.714-0.715-1.705-1.154-2.811-1.154
		c-2.166,0-3.963,1.777-3.963,3.969v18.507c0,2.192,1.797,3.969,3.963,3.969c2.189,0,3.963-1.777,3.963-3.969V66.988
		C21.775,65.881,21.337,64.888,20.623,64.173z M17.812,34.336c-3.641,0-6.59,2.954-6.59,6.6c0,3.623,2.949,6.577,6.59,6.577
		c3.618,0,6.567-2.954,6.567-6.577C24.379,37.289,21.429,34.336,17.812,34.336z M20.623,64.173
		c-0.714-0.715-1.705-1.154-2.811-1.154c-2.166,0-3.963,1.777-3.963,3.969v18.507c0,2.192,1.797,3.969,3.963,3.969
		c2.189,0,3.963-1.777,3.963-3.969V66.988C21.775,65.881,21.337,64.888,20.623,64.173z M17.812,34.336c-3.641,0-6.59,2.954-6.59,6.6
		c0,3.623,2.949,6.577,6.59,6.577c3.618,0,6.567-2.954,6.567-6.577C24.379,37.289,21.429,34.336,17.812,34.336z M20.623,64.173
		c-0.714-0.715-1.705-1.154-2.811-1.154c-2.166,0-3.963,1.777-3.963,3.969v18.507c0,2.192,1.797,3.969,3.963,3.969
		c2.189,0,3.963-1.777,3.963-3.969V66.988C21.775,65.881,21.337,64.888,20.623,64.173z M17.812,34.336c-3.641,0-6.59,2.954-6.59,6.6
		c0,3.623,2.949,6.577,6.59,6.577c3.618,0,6.567-2.954,6.567-6.577C24.379,37.289,21.429,34.336,17.812,34.336z M122.032,62.073
		l-4.585,0.438l0.853,9.184c0,28.453-23.112,51.621-51.523,51.621c-16.36,0-31.752-7.938-41.43-20.999
		c3.134-2.308,5.161-6.023,5.161-10.2V36.851c0-3.485-1.452-6.646-3.733-8.977c-0.576-0.577-1.221-1.108-1.912-1.546
		C34.586,12.713,50.025,4.683,66.777,4.683c24.655,0,45.808,17.469,50.555,41.676l-6.06,12.046l0.046,0.669
		c1.774,19.938-1.175,27.23-9.47,41.537l4.009,2.308c8.341-14.423,11.867-22.984,10.116-43.614l6.175-12.253l-0.138-0.762
		C117.17,19.498,93.921,0.068,66.777,0.068c-18.595,0-35.67,9.069-46.223,24.392c-0.876-0.185-1.797-0.3-2.742-0.3
		c-7.005,0-12.719,5.723-12.719,12.692v55.267c0,7.015,5.714,12.738,12.719,12.738c1.152,0,2.281-0.162,3.341-0.462
		c10.507,14.63,27.536,23.538,45.624,23.538c30.946,0,56.131-25.222,56.131-56.444L122.032,62.073z M8.641,40.935
		c0-5.123,4.079-9.207,9.171-9.207c5.092,0,9.194,4.085,9.194,9.207c0,5.077-4.102,9.184-9.194,9.184
		C12.719,50.12,8.641,46.012,8.641,40.935z M12.189,86.118v-19.73c0-3.092,2.535-5.631,5.622-5.631c1.544,0,2.949,0.623,3.963,1.661
		c1.014,1.015,1.659,2.423,1.659,3.969v19.73c0,3.092-2.535,5.607-5.622,5.607C14.724,91.726,12.189,89.211,12.189,86.118z"/>
</g>
<g id="Layer_1">
</g>
</svg>
