<?xml version="1.0" encoding="iso-8859-1"?>
<!-- Generator: Adobe Illustrator 19.0.1, SVG Export Plug-In . SVG Version: 6.00 Build 0)  -->
<svg version="1.1" xmlns="http://www.w3.org/2000/svg" xmlns:xlink="http://www.w3.org/1999/xlink" x="0px" y="0px"
	 viewBox="0 0 128 128" style="enable-background:new 0 0 128 128;" xml:space="preserve">
<g id="_x38_6">
	<path style="fill:#212121;" d="M0.161,14.677c0-5.608,4.54-10.155,10.14-10.155s10.14,4.546,10.14,10.155
		s-4.54,10.155-10.14,10.155S0.161,20.286,0.161,14.677z M10.301,59.648c5.6,0,10.14-4.546,10.14-10.155s-4.54-10.155-10.14-10.155
		s-10.14,4.546-10.14,10.155S4.701,59.648,10.301,59.648z M10.301,93.013c5.6,0,10.14-4.546,10.14-10.155s-4.54-10.155-10.14-10.155
		S0.161,77.25,0.161,82.859S4.701,93.013,10.301,93.013z M10.301,123.477c5.6,0,10.14-4.546,10.14-10.155s-4.54-10.155-10.14-10.155
		s-10.14,4.546-10.14,10.155S4.701,123.477,10.301,123.477z M127.839,11.072h-99.75v4.311h99.75V11.072z M127.839,45.887h-99.75
		v4.311h99.75V45.887z M127.839,79.252h-99.75v4.311h99.75V79.252z M127.839,111.166h-99.75v4.311h99.75V111.166z"/>
</g>
<g id="Layer_1">
</g>
</svg>
