<?xml version="1.0" encoding="iso-8859-1"?>
<!-- Generator: Adobe Illustrator 19.0.1, SVG Export Plug-In . SVG Version: 6.00 Build 0)  -->
<svg version="1.1" xmlns="http://www.w3.org/2000/svg" xmlns:xlink="http://www.w3.org/1999/xlink" x="0px" y="0px"
	 viewBox="0 0 128 128" style="enable-background:new 0 0 128 128;" xml:space="preserve">
<g id="_x38_7">
	<path style="fill:#212121;" d="M64.011,85.123c-3.48,0-6.302,2.826-6.302,6.312c0,3.485,2.822,6.311,6.302,6.311
		c3.48,0,6.302-2.826,6.302-6.311C70.313,87.949,67.491,85.123,64.011,85.123z M64.011,95.621c-2.313,0-4.18-1.87-4.18-4.186
		c0-2.316,1.867-4.186,4.18-4.186c2.292,0,4.18,1.87,4.18,4.186C68.191,93.751,66.302,95.621,64.011,95.621z M64.011,85.123
		c-3.48,0-6.302,2.826-6.302,6.312c0,3.485,2.822,6.311,6.302,6.311c3.48,0,6.302-2.826,6.302-6.311
		C70.313,87.949,67.491,85.123,64.011,85.123z M64.011,95.621c-2.313,0-4.18-1.87-4.18-4.186c0-2.316,1.867-4.186,4.18-4.186
		c2.292,0,4.18,1.87,4.18,4.186C68.191,93.751,66.302,95.621,64.011,95.621z M64.011,85.123c-3.48,0-6.302,2.826-6.302,6.312
		c0,3.485,2.822,6.311,6.302,6.311c3.48,0,6.302-2.826,6.302-6.311C70.313,87.949,67.491,85.123,64.011,85.123z M64.011,95.621
		c-2.313,0-4.18-1.87-4.18-4.186c0-2.316,1.867-4.186,4.18-4.186c2.292,0,4.18,1.87,4.18,4.186
		C68.191,93.751,66.302,95.621,64.011,95.621z M120.688,6.942H7.333c-3.947,0-7.172,3.209-7.172,7.161V97.3
		c0,3.931,3.225,7.161,7.172,7.161h54.555v12.347H41.348v4.25h44.879v-4.25H66.133v-12.347h54.555c3.947,0,7.151-3.23,7.151-7.161
		V14.104C127.839,10.151,124.635,6.942,120.688,6.942z M123.595,97.3c0,1.594-1.294,2.911-2.907,2.911H7.333
		c-1.613,0-2.928-1.318-2.928-2.911V83.083h119.19V97.3z M123.595,78.833H4.405V14.104c0-1.594,1.316-2.911,2.928-2.911h113.355
		c1.613,0,2.907,1.318,2.907,2.911V78.833z"/>
</g>
<g id="Layer_1">
</g>
</svg>
