<?xml version="1.0" encoding="iso-8859-1"?>
<!-- Generator: Adobe Illustrator 19.0.1, SVG Export Plug-In . SVG Version: 6.00 Build 0)  -->
<svg version="1.1" xmlns="http://www.w3.org/2000/svg" xmlns:xlink="http://www.w3.org/1999/xlink" x="0px" y="0px"
	 viewBox="0 0 128 128" style="enable-background:new 0 0 128 128;" xml:space="preserve">
<g id="_x38_9">
	<path style="fill:#212121;" d="M77.73,23.245c-7.149,0-12.989,5.827-12.989,13.008c0,7.16,5.84,13.008,12.989,13.008
		c7.171,0,13.01-5.848,13.01-13.008C90.74,29.072,84.9,23.245,77.73,23.245z M77.73,44.961c-4.788,0-8.695-3.913-8.695-8.708
		c0-4.816,3.907-8.708,8.695-8.708c4.809,0,8.717,3.892,8.717,8.708C86.446,41.048,82.539,44.961,77.73,44.961z M77.73,23.245
		c-7.149,0-12.989,5.827-12.989,13.008c0,7.16,5.84,13.008,12.989,13.008c7.171,0,13.01-5.848,13.01-13.008
		C90.74,29.072,84.9,23.245,77.73,23.245z M77.73,44.961c-4.788,0-8.695-3.913-8.695-8.708c0-4.816,3.907-8.708,8.695-8.708
		c4.809,0,8.717,3.892,8.717,8.708C86.446,41.048,82.539,44.961,77.73,44.961z M117.104,11.033H10.896
		c-5.904,0-10.735,4.816-10.735,10.75v84.433c0,5.934,4.831,10.75,10.735,10.75h106.209c5.926,0,10.735-4.816,10.735-10.75V21.783
		C127.839,15.849,123.03,11.033,117.104,11.033z M123.545,106.217c0,3.548-2.898,6.45-6.441,6.45H10.896
		c-3.542,0-6.441-2.903-6.441-6.45V21.783c0-3.548,2.898-6.45,6.441-6.45h106.209c3.542,0,6.441,2.903,6.441,6.45V106.217z
		 M77.73,23.245c-7.149,0-12.989,5.827-12.989,13.008c0,7.16,5.84,13.008,12.989,13.008c7.171,0,13.01-5.848,13.01-13.008
		C90.74,29.072,84.9,23.245,77.73,23.245z M77.73,44.961c-4.788,0-8.695-3.913-8.695-8.708c0-4.816,3.907-8.708,8.695-8.708
		c4.809,0,8.717,3.892,8.717,8.708C86.446,41.048,82.539,44.961,77.73,44.961z M117.491,90.242l-3.113,2.946L96.623,74.374
		L78.996,91.317l8.094,8.579l-3.135,2.946L48.016,64.72l-39.74,38.207L5.314,99.81l42.853-41.195l27.889,29.585l20.718-19.931
		L117.491,90.242z"/>
</g>
<g id="Layer_1">
</g>
</svg>
