<?xml version="1.0" encoding="iso-8859-1"?>
<!-- Generator: Adobe Illustrator 19.0.1, SVG Export Plug-In . SVG Version: 6.00 Build 0)  -->
<svg version="1.1" xmlns="http://www.w3.org/2000/svg" xmlns:xlink="http://www.w3.org/1999/xlink" x="0px" y="0px"
	 viewBox="0 0 128 128" style="enable-background:new 0 0 128 128;" xml:space="preserve">
<g id="_x39_0">
	<path style="fill:#212121;" d="M13.453,18.722c-2.417,0-4.355,1.964-4.355,4.384s1.938,4.361,4.355,4.361s4.377-1.941,4.377-4.361
		S15.87,18.722,13.453,18.722z M24.853,18.722c-2.417,0-4.355,1.964-4.355,4.384s1.938,4.361,4.355,4.361s4.377-1.941,4.377-4.361
		S27.27,18.722,24.853,18.722z M36.253,18.722c-2.417,0-4.355,1.964-4.355,4.384s1.938,4.361,4.355,4.361
		c2.417,0,4.377-1.941,4.377-4.361S38.67,18.722,36.253,18.722z M13.453,18.722c-2.417,0-4.355,1.964-4.355,4.384
		s1.938,4.361,4.355,4.361s4.377-1.941,4.377-4.361S15.87,18.722,13.453,18.722z M24.853,18.722c-2.417,0-4.355,1.964-4.355,4.384
		s1.938,4.361,4.355,4.361s4.377-1.941,4.377-4.361S27.27,18.722,24.853,18.722z M36.253,18.722c-2.417,0-4.355,1.964-4.355,4.384
		s1.938,4.361,4.355,4.361c2.417,0,4.377-1.941,4.377-4.361S38.67,18.722,36.253,18.722z M13.453,18.722
		c-2.417,0-4.355,1.964-4.355,4.384s1.938,4.361,4.355,4.361s4.377-1.941,4.377-4.361S15.87,18.722,13.453,18.722z M24.853,18.722
		c-2.417,0-4.355,1.964-4.355,4.384s1.938,4.361,4.355,4.361s4.377-1.941,4.377-4.361S27.27,18.722,24.853,18.722z M36.253,18.722
		c-2.417,0-4.355,1.964-4.355,4.384s1.938,4.361,4.355,4.361c2.417,0,4.377-1.941,4.377-4.361S38.67,18.722,36.253,18.722z
		 M120.999,8.059H7.001c-3.762,0-6.84,3.082-6.84,6.85v98.182c0,3.79,3.078,6.85,6.84,6.85h113.998c3.762,0,6.84-3.06,6.84-6.85
		V14.909C127.839,11.141,124.761,8.059,120.999,8.059z M4.721,14.909c0-1.256,1.026-2.283,2.28-2.283h113.998
		c1.254,0,2.28,1.027,2.28,2.283v18.266H4.721V14.909z M123.279,113.091c0,1.279-1.026,2.283-2.28,2.283H7.001
		c-1.254,0-2.28-1.005-2.28-2.283V37.742h118.558V113.091z"/>
</g>
<g id="Layer_1">
</g>
</svg>
