<?xml version="1.0" encoding="iso-8859-1"?>
<!-- Generator: Adobe Illustrator 19.0.1, SVG Export Plug-In . SVG Version: 6.00 Build 0)  -->
<svg version="1.1" xmlns="http://www.w3.org/2000/svg" xmlns:xlink="http://www.w3.org/1999/xlink" x="0px" y="0px"
	 viewBox="0 0 128 128" style="enable-background:new 0 0 128 128;" xml:space="preserve">
<g id="_x39_1">
	<path style="fill:#212121;" d="M120.456,28.992H85.488v-6.766c0-5.467-4.452-9.948-9.933-9.948H52.892
		c-5.481,0-9.956,4.481-9.956,9.948v6.766H7.544c-4.072,0-7.383,3.316-7.383,7.371v71.965c0,4.078,3.311,7.394,7.383,7.394h112.912
		c4.072,0,7.383-3.316,7.383-7.394V36.364C127.839,32.308,124.528,28.992,120.456,28.992z M47.411,22.226
		c0-3.002,2.461-5.467,5.481-5.467h22.663c3.02,0,5.459,2.464,5.459,5.467v6.766H47.411V22.226z M22.846,111.241H7.544
		c-1.611,0-2.908-1.299-2.908-2.913V36.364c0-1.591,1.297-2.89,2.908-2.89h15.303V111.241z M99.829,111.241H27.321V33.473h72.508
		V111.241z M123.365,108.328c0,1.613-1.298,2.913-2.908,2.913h-16.153V33.473h16.153c1.611,0,2.908,1.299,2.908,2.89V108.328z"/>
</g>
<g id="Layer_1">
</g>
</svg>
