<?xml version="1.0" encoding="iso-8859-1"?>
<!-- Generator: Adobe Illustrator 19.0.1, SVG Export Plug-In . SVG Version: 6.00 Build 0)  -->
<svg version="1.1" xmlns="http://www.w3.org/2000/svg" xmlns:xlink="http://www.w3.org/1999/xlink" x="0px" y="0px"
	 viewBox="0 0 128 128" style="enable-background:new 0 0 128 128;" xml:space="preserve">
<g id="_x39_2">
	<path style="fill:#212121;" d="M125.123,12.09H93.156V9.152c0-3.101-2.526-5.63-5.649-5.63H40.493c-3.123,0-5.649,2.53-5.649,5.63
		v2.937H2.877c-1.494,0-2.716,1.224-2.716,2.72c0,1.496,1.222,2.72,2.716,2.72h12.33v92.914c0,7.725,6.274,14.035,14.014,14.035
		h69.583c7.713,0,13.987-6.31,13.987-14.035V17.53h12.331c1.521,0,2.716-1.224,2.716-2.72
		C127.839,13.314,126.644,12.09,125.123,12.09z M107.36,110.443c0,4.733-3.829,8.595-8.555,8.595H29.222
		c-4.726,0-8.582-3.862-8.582-8.595V17.53h86.721V110.443z M82.815,100.929c-1.5,0-2.716-1.217-2.716-2.72V36.473
		c0-1.503,1.216-2.72,2.716-2.72s2.716,1.217,2.716,2.72v61.735C85.531,99.712,84.315,100.929,82.815,100.929z M64.006,100.929
		c-1.5,0-2.716-1.217-2.716-2.72V36.473c0-1.503,1.216-2.72,2.716-2.72c1.5,0,2.716,1.217,2.716,2.72v61.735
		C66.722,99.712,65.506,100.929,64.006,100.929z M45.199,100.929c-1.5,0-2.716-1.217-2.716-2.72V36.473
		c0-1.503,1.216-2.72,2.716-2.72s2.716,1.217,2.716,2.72v61.735C47.915,99.712,46.699,100.929,45.199,100.929z"/>
</g>
<g id="Layer_1">
</g>
</svg>
