<?xml version="1.0" encoding="iso-8859-1"?>
<!-- Generator: Adobe Illustrator 19.0.1, SVG Export Plug-In . SVG Version: 6.00 Build 0)  -->
<svg version="1.1" xmlns="http://www.w3.org/2000/svg" xmlns:xlink="http://www.w3.org/1999/xlink" x="0px" y="0px"
	 viewBox="0 0 128 128" style="enable-background:new 0 0 128 128;" xml:space="preserve">
<g id="_x39_3">
	<path style="fill:#212121;" d="M117.514,9.289h-7.819V6.356c0-3.256-2.656-5.916-5.907-5.916h-0.596
		c-3.252,0-5.907,2.66-5.907,5.916v2.933H31.361V6.356c0-3.256-2.656-5.916-5.883-5.916h-0.621c-3.227,0-5.883,2.66-5.883,5.916
		v2.933h-8.489c-5.684,0-10.326,4.624-10.326,10.316v97.614c0,5.692,4.641,10.34,10.326,10.34h107.027
		c5.684,0,10.325-4.648,10.325-10.34V19.605C127.839,13.913,123.197,9.289,117.514,9.289z M122.875,117.219
		c0,2.958-2.408,5.369-5.361,5.369H10.487c-2.954,0-5.361-2.411-5.361-5.369V37.353h117.75V117.219z M122.875,32.382H5.125V19.605
		c0-2.933,2.408-5.344,5.361-5.344h8.489v5.767c0,3.256,2.656,5.916,5.883,5.916h0.621c3.227,0,5.883-2.66,5.883-5.916v-5.767
		h65.924v5.767c0,3.256,2.656,5.916,5.907,5.916h0.596c3.252,0,5.907-2.66,5.907-5.916v-5.767h7.819
		c2.954,0,5.361,2.411,5.361,5.344V32.382z M44.64,59.533h-7.832V51.69h7.832V59.533z M60.304,51.69h-7.832v7.844h7.832V51.69z
		 M75.968,51.69h-7.832v7.844h7.832V51.69z M91.632,51.69H83.8v7.844h7.832V51.69z M107.296,51.69h-7.832v7.844h7.832V51.69z
		 M44.64,75.22h-7.832v-7.844h7.832V75.22z M60.304,67.377h-7.832v7.844h7.832V67.377z M75.968,67.377h-7.832v7.844h7.832V67.377z
		 M92.29,63.627h-9.148c-1.704,0-3.086,1.382-3.086,3.086v9.17c0,1.704,1.382,3.086,3.086,3.086h9.148
		c1.704,0,3.086-1.382,3.086-3.086v-9.17C95.376,65.009,93.994,63.627,92.29,63.627z M107.296,67.377h-7.832v7.844h7.832V67.377z
		 M44.64,90.907h-7.832v-7.844h7.832V90.907z M28.976,90.907h-7.832v-7.844h7.832V90.907z M28.976,75.22h-7.832v-7.844h7.832V75.22z
		 M60.304,83.064h-7.832v7.844h7.832V83.064z M75.968,83.064h-7.832v7.844h7.832V83.064z M44.64,106.594h-7.832v-7.844h7.832
		V106.594z M28.976,106.594h-7.832v-7.844h7.832V106.594z M60.304,98.751h-7.832v7.844h7.832V98.751z M75.968,98.751h-7.832v7.844
		h7.832V98.751z M91.632,83.064H83.8v7.844h7.832V83.064z M107.296,83.064h-7.832v7.844h7.832V83.064z"/>
</g>
<g id="Layer_1">
</g>
</svg>
