<?xml version="1.0" encoding="iso-8859-1"?>
<!-- Generator: Adobe Illustrator 19.0.1, SVG Export Plug-In . SVG Version: 6.00 Build 0)  -->
<svg version="1.1" xmlns="http://www.w3.org/2000/svg" xmlns:xlink="http://www.w3.org/1999/xlink" x="0px" y="0px"
	 viewBox="0 0 128 128" style="enable-background:new 0 0 128 128;" xml:space="preserve">
<g id="_x39_6">
	<path style="fill:#212121;" d="M110.921,29.454H31.919l93.417-25.067l-1.162-4.32L14.084,29.611l0.045,0.134
		C6.888,31.111,1.413,37.489,1.413,45.121v67.144c0,8.639,7.018,15.667,15.644,15.667h93.864c8.627,0,15.666-7.028,15.666-15.667
		V45.121C126.587,36.482,119.548,29.454,110.921,29.454z M122.118,112.266c0,6.177-5.028,11.191-11.197,11.191H17.057
		c-6.146,0-11.174-5.013-11.174-11.191V45.121c0-6.177,5.028-11.191,11.174-11.191h93.864c6.168,0,11.197,5.013,11.197,11.191
		V112.266z M18.934,44.405v20.166h94.848V44.405H18.934z M109.312,60.094H23.404V48.881h38.373l-0.022,8.013h4.47l0.022-8.013
		h43.066V60.094z"/>
</g>
<g id="Layer_1">
</g>
</svg>
