<?xml version="1.0" encoding="iso-8859-1"?>
<!-- Generator: Adobe Illustrator 19.0.1, SVG Export Plug-In . SVG Version: 6.00 Build 0)  -->
<svg version="1.1" xmlns="http://www.w3.org/2000/svg" xmlns:xlink="http://www.w3.org/1999/xlink" x="0px" y="0px"
	 viewBox="0 0 128 128" style="enable-background:new 0 0 128 128;" xml:space="preserve">
<g id="_x39_7">
	<path style="fill-rule:evenodd;clip-rule:evenodd;fill:#212121;" d="M96.004,76.713c2.869,0,5.195,2.33,5.195,5.203
		c0,2.874-2.326,5.204-5.195,5.204c-2.87,0-5.196-2.33-5.196-5.204C90.808,79.043,93.134,76.713,96.004,76.713z M96.004,102.729
		c2.869,0,5.195,2.33,5.195,5.204c0,2.873-2.326,5.203-5.195,5.203c-2.87,0-5.196-2.33-5.196-5.203
		C90.808,105.059,93.134,102.729,96.004,102.729z M77.82,36.822c-1.435,0-2.598-1.165-2.598-2.602l0,0
		c0-1.437,1.163-2.601,2.598-2.601h34.637c1.435,0,2.598,1.165,2.598,2.601l0,0c0,1.437-1.163,2.602-2.598,2.602H77.82z
		 M79.552,97.526c-1.435,0-2.598-1.165-2.598-2.602l0,0c0-1.436,1.163-2.601,2.598-2.601h32.905c1.435,0,2.598,1.165,2.598,2.601
		l0,0c0,1.437-1.163,2.602-2.598,2.602H79.552z M118.266,0.068H9.734c-5.289,0-9.573,4.314-9.573,9.587v108.691
		c0,5.297,4.284,9.587,9.573,9.587h108.532c5.289,0,9.573-4.29,9.573-9.587V9.654C127.839,4.382,123.555,0.068,118.266,0.068z
		 M62.887,123.139H9.734c-2.632,0-4.786-2.133-4.786-4.793V66.409h57.94V123.139z M62.887,61.615H4.947V9.654
		c0-2.636,2.154-4.793,4.786-4.793h53.153V61.615z M123.053,118.346c0,2.66-2.154,4.793-4.786,4.793H67.674v-56.73h55.379V118.346z
		 M123.053,61.615H67.674V4.861h50.593c2.632,0,4.786,2.157,4.786,4.793V61.615z M48.456,106.889L37.352,95.768l11.104-11.145
		c0.503-0.503,0.766-1.174,0.766-1.846c0-0.671-0.263-1.366-0.766-1.869c-1.029-1.007-2.68-1.007-3.709,0L33.642,92.054
		L22.514,80.909c-0.503-0.503-1.173-0.743-1.843-0.743c-0.67,0-1.34,0.24-1.867,0.743c-1.029,1.031-1.029,2.708,0,3.715
		l11.128,11.145l-11.128,11.121c-0.527,0.503-0.766,1.174-0.766,1.846c0,0.671,0.239,1.342,0.766,1.869
		c1.029,1.031,2.68,1.031,3.709,0l11.128-11.121l11.104,11.121c0.527,0.527,1.197,0.767,1.867,0.767c0.67,0,1.34-0.24,1.843-0.767
		C49.485,109.574,49.485,107.92,48.456,106.889z M51.831,31.608H37.112v-14.74c0-1.438-1.149-2.588-2.585-2.588
		c-1.436,0-2.609,1.151-2.609,2.588v14.74H17.201c-1.436,0-2.585,1.174-2.585,2.612c0,1.438,1.149,2.612,2.585,2.612h14.718v14.74
		c0,1.438,1.173,2.588,2.609,2.588c1.436,0,2.585-1.15,2.585-2.588v-14.74h14.718c1.436,0,2.609-1.174,2.609-2.612
		C54.439,32.783,53.266,31.608,51.831,31.608z"/>
</g>
<g id="Layer_1">
</g>
</svg>
