<?xml version="1.0" encoding="iso-8859-1"?>
<!-- Generator: Adobe Illustrator 19.0.1, SVG Export Plug-In . SVG Version: 6.00 Build 0)  -->
<svg version="1.1" xmlns="http://www.w3.org/2000/svg" xmlns:xlink="http://www.w3.org/1999/xlink" x="0px" y="0px"
	 viewBox="0 0 128 128" style="enable-background:new 0 0 128 128;" xml:space="preserve">
<g id="_x39_8">
	<path style="fill:#212121;" d="M50.476,56.3c0-7.476,6.052-13.537,13.517-13.537S77.51,48.824,77.51,56.3
		s-6.052,13.537-13.517,13.537S50.476,63.776,50.476,56.3z M77.51,81.118c0-5.584-4.562-10.153-10.138-10.153h-6.759
		c-5.576,0-10.138,4.569-10.138,10.153c0,0,4.562,46.815,10.138,46.815h6.759C72.948,127.932,77.51,81.118,77.51,81.118z
		 M104.352,57.983c0-22.272-18.11-40.393-40.37-40.393c-22.242,0-40.336,18.121-40.336,40.393c0,14.211,7.601,27.546,19.834,34.799
		l2.32-3.92c-10.858-6.437-17.603-18.27-17.603-30.879c0-19.76,16.054-35.836,35.786-35.836c19.752,0,35.819,16.076,35.819,35.836
		c0,12.616-6.756,24.449-17.634,30.877l2.315,3.925C96.738,85.54,104.352,72.203,104.352,57.983z M121.768,57.903
		c0-31.891-25.924-57.835-57.786-57.835c-31.845,0-57.75,25.944-57.75,57.835c0,24.502,15.51,46.438,38.597,54.582l1.511-4.299
		c-21.267-7.503-35.557-27.71-35.557-50.283c0-29.377,23.866-53.278,53.2-53.278c29.354,0,53.236,23.901,53.236,53.278
		c0,22.577-14.304,42.785-35.593,50.283l1.511,4.299C106.242,104.345,121.768,82.411,121.768,57.903z"/>
</g>
<g id="Layer_1">
</g>
</svg>
